<?xml version="1.0" encoding="UTF-8" standalone="no"?>
<!-- Created with Inkscape (http://www.inkscape.org/) -->

<svg
   height="44.328171mm"
   version="1.1"
   id="svg8"
   inkscape:version="0.92.4 (5da689c313, 2019-01-14)"
   sodipodi:docname="ar_core.svg"
   width="38.451233mm"
   viewBox="0 0 38.4568 44.328171"
   xmlns:inkscape="http://www.inkscape.org/namespaces/inkscape"
   xmlns:sodipodi="http://sodipodi.sourceforge.net/DTD/sodipodi-0.dtd"
   xmlns="http://www.w3.org/2000/svg"
   xmlns:svg="http://www.w3.org/2000/svg"
   xmlns:rdf="http://www.w3.org/1999/02/22-rdf-syntax-ns#"
   xmlns:cc="http://creativecommons.org/ns#"
   xmlns:dc="http://purl.org/dc/elements/1.1/">
  <defs
     id="defs2" />
  <sodipodi:namedview
     id="base"
     pagecolor="#ffffff"
     bordercolor="#666666"
     borderopacity="1.0"
     inkscape:pageopacity="0.0"
     inkscape:pageshadow="2"
     inkscape:zoom="0.7"
     inkscape:cx="-48.635941"
     inkscape:cy="307.2732"
     inkscape:document-units="mm"
     inkscape:current-layer="layer1"
     showgrid="false"
     fit-margin-top="0"
     fit-margin-left="0"
     fit-margin-right="0"
     fit-margin-bottom="0"
     inkscape:window-width="1920"
     inkscape:window-height="1017"
     inkscape:window-x="-8"
     inkscape:window-y="-8"
     inkscape:window-maximized="1"
     inkscape:showpageshadow="2"
     inkscape:pagecheckerboard="0"
     inkscape:deskcolor="#d1d1d1" />
  <metadata
     id="metadata5">
    <rdf:RDF>
      <cc:Work
         rdf:about="">
        <dc:format>image/svg+xml</dc:format>
        <dc:type
           rdf:resource="http://purl.org/dc/dcmitype/StillImage" />
        <dc:title />
      </cc:Work>
    </rdf:RDF>
  </metadata>
  <g
     inkscape:label="Livello 1"
     inkscape:groupmode="layer"
     id="layer1"
     transform="translate(-53.473611,-156.32091)">
    <g
       id="g232"
       transform="translate(0.0025842,0.18465903)">
      <path
         style="fill:#e4c1ea;fill-opacity:1;stroke-width:0.352778"
         d="m 63.317642,195.1054 c -9.538699,-5.43306 -9.245184,-4.8531 -9.538699,-5.43306 -0.317775,-0.62791 0.626361,-3.64479 -0.06333,-11.51508 l 0.153635,-11.46598 v 0 c 0.533576,-0.56349 4.767581,-2.98256 9.327234,-5.55945 6.699963,-3.7865 7.921755,-4.42871 9.062173,-4.44431 1.180592,-0.0162 2.502593,0.87554 9.438572,4.82359 4.559653,2.59542 9.297699,4.89191 9.645788,5.19119 0.371829,0.46265 -0.0065,0.45359 -5.083453,3.69553 -2.999948,1.69999 -5.233081,2.98221 -5.670107,3.30804 -0.301326,0.22466 -2.428227,1.01506 -4.029997,1.88818 -1.667168,0.90877 -3.37747,1.5875 -4.000289,1.5875 -0.658266,0 -2.286801,-0.68739 -4.123235,-1.74038 -1.66939,-0.95721 -4.366658,-2.42056 -4.608011,-2.32794 -1.432479,0.54969 -1.699292,7.9551 -0.02016,10.76871 0.688947,1.64889 2.262195,2.40333 3.970804,3.30816 1.094842,0.57979 1.903031,1.33455 3.921442,1.34079 2.256681,0.007 3.708418,-0.23395 5.10921,-1.05742 0.903295,-0.531 2.437635,-1.13919 3.06317,-1.929 0.785248,-0.99145 1.301002,-1.65713 1.301002,-1.65713 1.208842,0.46357 8.638896,6.03767 9.02827,6.50683 0.506688,0.61052 0.8278,-0.51279 0,0 -0.341715,0.21169 -4.022281,2.56797 -8.525507,5.12071 -6.543227,3.70913 -8.456281,4.64062 -9.525,4.63783 -1.070903,-0.003 -3.649595,-2.09465 -8.833508,-5.04731 z"
         id="path246"
         inkscape:connector-curvature="0"
         sodipodi:nodetypes="ccsccccsccsssscccccccccccsc" />
      <path
         style="fill:#bb67cb;fill-opacity:1;stroke-width:0.352778"
         d="m 63.027524,195.68305 c -4.542332,-2.60504 -8.55077,-5.00068 -8.90764,-5.32364 -0.604329,-0.54691 -0.648857,-1.36563 -0.648857,-11.93039 0,-8.55006 0.108585,-11.47674 0.440973,-11.8856 0.242534,-0.29834 2.504722,-1.70159 5.027083,-3.11834 2.522361,-1.41674 6.332362,-3.5634 8.466667,-4.77035 2.134306,-1.20694 4.310585,-2.29604 4.836178,-2.42022 0.727329,-0.17184 1.654373,1.07887 3.880556,2.25515 6.601033,3.48788 14.911839,7.85883 15.015157,8.36712 0.124104,0.61055 -0.302915,1.01816 -6.378959,4.46224 l -4.133105,2.3617 -1.742448,-1.53657 c -1.791582,-1.61079 -4.47439,-2.72371 -6.565766,-2.72371 -3.171529,0 -7.93676,3.16896 -9.133717,6.07409 -0.619439,1.50343 -0.711927,4.71771 -0.176287,6.12655 0.800404,2.26086 2.941066,4.26938 4.817618,5.31945 2.367665,1.38755 5.757023,1.55066 8.274315,0.39821 1.042667,-0.47735 2.59331,-1.35207 3.359254,-2.16037 0.765944,-0.8083 1.491374,-1.64682 1.698684,-1.64682 0.576453,0 8.750661,5.21015 9.539345,5.99251 0.608972,0.60408 0.964751,0.41596 0.510476,0.85292 -0.284882,0.27402 -4.336645,2.6559 -9.003916,5.29307 -6.51666,3.68212 -8.768014,4.78957 -9.70139,4.77213 -0.890044,-0.0166 -3.426463,-1.29072 -9.474221,-4.75913 z"
         id="path244"
         inkscape:connector-curvature="0"
         sodipodi:nodetypes="scsccccsssccsccccssccccs" />
      <path
         style="fill:#7620a2;fill-opacity:1;stroke-width:0.352778"
         d="m 71.429324,188.06343 c -0.08162,-0.0816 2.367568,0.69622 5.987338,-1.4516 1.19712,-0.79004 2.370617,-1.91082 3.685854,-3.17334 2.967659,1.54738 2.996222,1.55103 10.824466,6.41741 0.06912,0.21847 -4.119606,2.68961 -8.056814,4.92719 -9.369327,5.32477 -10.437108,5.68033 -11.318403,5.67238 -1.844238,-4.42576 -1.124781,-8.33845 -1.122441,-12.39204 z M 58.853453,170.17487 c -2.569453,-1.48209 -5.040387,-3.34233 -5.041801,-3.56222 -0.0014,-0.21988 2.506042,-1.71519 5.367951,-3.3229 2.86191,-1.60772 6.555026,-3.68171 8.533591,-4.81304 2.24312,-1.28259 4.430753,-2.62905 5.017195,-2.29081 2.896182,1.67043 5.196428,2.70728 16.16905,9.094 l 2.443685,1.42237 -0.791358,0.64081 c -0.844815,0.68409 -9.428985,5.60514 -9.77748,5.60514 -0.11412,0 -0.752113,-0.0585 -1.621925,-0.82412 -3.943749,-3.47143 -7.539618,-3.75677 -13.195536,-0.016 -0.775875,0.70096 -1.232812,1.3236 -1.403323,1.30197 -0.170512,-0.0216 -3.130592,-1.75307 -5.700049,-3.23516 z"
         id="path238"
         inkscape:connector-curvature="0"
         sodipodi:nodetypes="ccccccccsccssccssccsc" />
      <path
         style="fill:#471584;fill-opacity:1;stroke-width:0.352778"
         d="m 62.724085,195.52466 c -4.802187,-2.75461 -8.95224,-5.0482 -8.84818,-5.54422 0,0 2.528669,-1.62626 5.132726,-3.19559 l 5.128916,-3.09095 1.31589,1.46194 c 1.613185,1.79222 4.672982,2.72209 5.480194,2.84246 2.288391,0.17605 1.963391,1.33527 1.963391,1.33527 l -0.172604,4.88884 c -0.09004,2.55035 -0.172653,6.23306 -0.172653,6.23306 -0.525701,0.0427 -0.513142,-0.0188 -1.235554,-0.31664 -0.493933,-0.22116 -3.789938,-1.85956 -8.592126,-4.61417 z m 15.835158,-23.60405 c -1.27925,-1.08281 -1.975207,-1.44293 -5.141716,-2.42307 l -0.926852,-0.0737 -0.0146,-6.70617 c 0.0021,-5.53018 -0.280263,-6.39423 0.383936,-6.49787 8.624601,4.8801 8.846619,5.10627 18.65016,10.53677 0.03554,0.3556 -0.189133,0.68229 -0.720473,0.9749 -0.94282,0.76344 -9.787988,5.96194 -10.164117,5.94926 -0.143894,-0.005 -0.941235,-0.74526 -1.724004,-1.48449 z"
         id="path234"
         inkscape:connector-curvature="0"
         sodipodi:nodetypes="ssscsccsccscccccccccc" />
    </g>
  </g>
</svg>
