<svg width="118" height="162" viewBox="0 0 118 162" fill="none" xmlns="http://www.w3.org/2000/svg">
<path d="M0.362793 130.367L20.225 3.27116C20.4678 1.71244 21.68 0.483689 23.2353 0.21947C24.7906 -0.0447485 26.3404 0.715404 27.0841 2.10655L47.6251 40.4186L55.8127 24.8296C56.4467 23.6242 57.6968 22.8695 59.0589 22.8695C60.421 22.8695 61.6709 23.6242 62.3051 24.8296L117.738 130.367L0.362793 130.367Z" fill="#FFA000"/>
<path d="M68.9816 80.8584L47.6156 40.4004L0.362793 130.367L68.9816 80.8584Z" fill="#F57C00"/>
<path d="M117.738 130.367L102.526 36.2281C102.296 34.8762 101.331 33.7657 100.024 33.347C98.7178 32.9284 97.2878 33.2769 96.3175 34.2461L0.362793 130.366L53.457 160.141C56.7911 162.002 60.8516 162.002 64.1858 160.141L117.738 130.366V130.367Z" fill="#FFCA28"/>
<path d="M102.525 36.2282C102.295 34.8763 101.33 33.7658 100.024 33.3471C98.7173 32.9285 97.2874 33.277 96.3171 34.2462L77.2723 53.3394L62.2964 24.8291C61.6623 23.6237 60.4123 22.869 59.0502 22.869C57.6881 22.869 56.4382 23.6237 55.804 24.8291L47.6164 40.4181L27.0744 2.10666C26.3295 0.715144 24.7778 -0.0437776 23.2207 0.222411C21.6636 0.4886 20.4554 1.72043 20.2153 3.28038L0.362363 130.367H0.29834L0.362363 130.441L0.885013 130.697L96.2894 35.1828C97.2592 34.2083 98.6927 33.858 100.003 34.2753C101.313 34.6927 102.279 35.8076 102.507 37.1634L117.591 130.459L117.738 130.367L102.525 36.2282ZM0.536581 130.193L20.2246 4.17917C20.4644 2.61922 21.6754 1.38739 23.2312 1.1212C24.787 0.855009 26.3388 1.61368 27.0849 3.00545L47.6246 41.3175L55.8122 25.7285C56.4463 24.5231 57.6963 23.7684 59.0584 23.7684C60.4205 23.7684 61.6705 24.5231 62.3047 25.7285L76.9767 53.6328L0.536581 130.193Z" fill="white" fill-opacity="0.21"/>
<path opacity="0.2" d="M64.1859 159.243C60.8518 161.105 56.7912 161.105 53.4571 159.243L0.491208 129.551L0.362793 130.367L53.457 160.133C56.7911 161.995 60.8516 161.995 64.1858 160.133L117.738 130.367L117.601 129.524L64.1859 159.243Z" fill="#A52714"/>
<path d="M102.373 36.2476C102.144 34.8961 101.183 33.7852 99.8809 33.369C98.579 32.9529 97.154 33.2989 96.187 34.2678L77.2077 53.3514L62.2853 24.8543C61.6534 23.6495 60.4077 22.895 59.0506 22.895C57.6934 22.895 56.4478 23.6495 55.8158 24.8543L47.6557 40.4366L27.1867 2.14101C26.4443 0.750104 24.8982 -0.00869401 23.3478 0.257618C21.7975 0.52393 20.5906 1.75478 20.3516 3.31436L0.567871 130.345L53.4765 160.098C56.7989 161.959 60.8453 161.959 64.1679 160.098L117.533 130.345L102.373 36.2474V36.2476Z" fill="url(#paint0_linear_412_303)"/>
<defs>
<linearGradient id="paint0_linear_412_303" x1="-407.641" y1="2745.34" x2="14188.6" y2="10444.7" gradientUnits="userSpaceOnUse">
<stop stop-color="white" stop-opacity="0.1"/>
<stop offset="0.14" stop-color="white" stop-opacity="0.08"/>
<stop offset="0.61" stop-color="white" stop-opacity="0.02"/>
<stop offset="1" stop-color="white" stop-opacity="0"/>
</linearGradient>
</defs>
</svg>
