<svg width="141" height="170" viewBox="0 0 141 170" fill="none" xmlns="http://www.w3.org/2000/svg">
<rect x="1" y="1" width="139" height="74" rx="13" stroke="#F8D40D" stroke-width="2"/>
<path d="M21.4954 50V27.6H30.8394C32.2687 27.6 33.474 27.8133 34.4554 28.24C35.4367 28.6667 36.1727 29.3067 36.6634 30.16C37.1754 30.992 37.4314 32.016 37.4314 33.232C37.4314 34.448 37.09 35.4827 36.4074 36.336C35.746 37.1893 34.818 37.776 33.6234 38.096V37.456C34.626 37.6693 35.5007 38.0533 36.2474 38.608C36.994 39.1413 37.57 39.8133 37.9754 40.624C38.402 41.4347 38.6154 42.3627 38.6154 43.408C38.6154 44.4747 38.4447 45.424 38.1034 46.256C37.7834 47.0667 37.2927 47.7493 36.6314 48.304C35.9914 48.8587 35.2127 49.2853 34.2954 49.584C33.378 49.8613 32.3327 50 31.1594 50H21.4954ZM24.9514 46.672H30.9674C31.842 46.672 32.578 46.544 33.1754 46.288C33.794 46.032 34.2634 45.6587 34.5834 45.168C34.9247 44.656 35.0954 44.048 35.0954 43.344C35.0954 42.6827 34.914 42.1173 34.5514 41.648C34.21 41.1787 33.7194 40.8267 33.0794 40.592C32.4394 40.336 31.682 40.208 30.8074 40.208H24.9514V46.672ZM24.9514 36.88H30.6474C31.2874 36.88 31.8527 36.752 32.3434 36.496C32.8554 36.24 33.25 35.888 33.5274 35.44C33.826 34.992 33.9754 34.48 33.9754 33.904C33.9754 32.944 33.6554 32.208 33.0154 31.696C32.3754 31.184 31.458 30.928 30.2634 30.928H24.9514V36.88ZM48.3326 50.32C47.138 50.32 46.0926 50.0427 45.1966 49.488C44.322 48.9333 43.6393 48.1547 43.1486 47.152C42.6793 46.1493 42.4446 44.9547 42.4446 43.568V33.2H45.7406V42.672C45.7406 43.6533 45.89 44.5067 46.1886 45.232C46.5086 45.936 46.9566 46.48 47.5326 46.864C48.13 47.248 48.8446 47.44 49.6766 47.44C50.2953 47.44 50.8606 47.344 51.3726 47.152C51.8846 46.9387 52.322 46.6507 52.6846 46.288C53.0686 45.9253 53.3673 45.488 53.5806 44.976C53.794 44.464 53.9006 43.9093 53.9006 43.312V33.2H57.1966V50H53.9006V46.48L54.4766 46.096C54.2206 46.8853 53.7833 47.6 53.1646 48.24C52.5673 48.88 51.8526 49.392 51.0206 49.776C50.1886 50.1387 49.2926 50.32 48.3326 50.32ZM63.8996 50V28.912H67.1956V50H63.8996ZM60.4116 36.4V33.2H71.0996V36.4H60.4116ZM76.1809 50V28.912H79.4769V50H76.1809ZM72.6929 36.4V33.2H83.3809V36.4H72.6929ZM93.7779 50.32C92.1352 50.32 90.6632 49.9467 89.3619 49.2C88.0819 48.432 87.0685 47.3973 86.3219 46.096C85.5752 44.7733 85.2019 43.2693 85.2019 41.584C85.2019 39.8987 85.5752 38.4053 86.3219 37.104C87.0685 35.7813 88.0819 34.7467 89.3619 34C90.6632 33.232 92.1352 32.848 93.7779 32.848C95.3992 32.848 96.8499 33.232 98.1299 34C99.4312 34.7467 100.455 35.7813 101.202 37.104C101.949 38.4053 102.322 39.8987 102.322 41.584C102.322 43.2693 101.949 44.7733 101.202 46.096C100.455 47.3973 99.4312 48.432 98.1299 49.2C96.8499 49.9467 95.3992 50.32 93.7779 50.32ZM93.7779 47.312C94.7805 47.312 95.6765 47.0667 96.4659 46.576C97.2552 46.064 97.8739 45.3813 98.3219 44.528C98.7699 43.6533 98.9832 42.672 98.9619 41.584C98.9832 40.4747 98.7699 39.4933 98.3219 38.64C97.8739 37.7653 97.2552 37.0827 96.4659 36.592C95.6765 36.1013 94.7805 35.856 93.7779 35.856C92.7752 35.856 91.8685 36.112 91.0579 36.624C90.2685 37.1147 89.6499 37.7973 89.2019 38.672C88.7539 39.5253 88.5405 40.496 88.5619 41.584C88.5405 42.672 88.7539 43.6533 89.2019 44.528C89.6499 45.3813 90.2685 46.064 91.0579 46.576C91.8685 47.0667 92.7752 47.312 93.7779 47.312ZM105.913 50V33.2H109.209V36.656L108.633 37.04C108.847 36.2933 109.263 35.6107 109.881 34.992C110.5 34.352 111.236 33.84 112.089 33.456C112.943 33.0507 113.817 32.848 114.713 32.848C115.993 32.848 117.06 33.104 117.913 33.616C118.767 34.1067 119.407 34.864 119.833 35.888C120.26 36.912 120.473 38.2027 120.473 39.76V50H117.177V39.984C117.177 39.024 117.049 38.2347 116.793 37.616C116.537 36.976 116.143 36.5173 115.609 36.24C115.076 35.9413 114.415 35.8133 113.625 35.856C112.985 35.856 112.399 35.9627 111.865 36.176C111.332 36.368 110.863 36.6453 110.457 37.008C110.073 37.3707 109.764 37.7973 109.529 38.288C109.316 38.7573 109.209 39.2693 109.209 39.824V50H107.577C107.3 50 107.023 50 106.745 50C106.468 50 106.191 50 105.913 50Z" fill="#F8D40D"/>
<rect x="1" y="95" width="139" height="74" rx="13" fill="#F8D40D" fill-opacity="0.1"/>
<rect x="1" y="95" width="139" height="74" rx="13" stroke="#F8D40D" stroke-width="2"/>
<path d="M21.4954 144V121.6H30.8394C32.2687 121.6 33.474 121.813 34.4554 122.24C35.4367 122.667 36.1727 123.307 36.6634 124.16C37.1754 124.992 37.4314 126.016 37.4314 127.232C37.4314 128.448 37.09 129.483 36.4074 130.336C35.746 131.189 34.818 131.776 33.6234 132.096V131.456C34.626 131.669 35.5007 132.053 36.2474 132.608C36.994 133.141 37.57 133.813 37.9754 134.624C38.402 135.435 38.6154 136.363 38.6154 137.408C38.6154 138.475 38.4447 139.424 38.1034 140.256C37.7834 141.067 37.2927 141.749 36.6314 142.304C35.9914 142.859 35.2127 143.285 34.2954 143.584C33.378 143.861 32.3327 144 31.1594 144H21.4954ZM24.9514 140.672H30.9674C31.842 140.672 32.578 140.544 33.1754 140.288C33.794 140.032 34.2634 139.659 34.5834 139.168C34.9247 138.656 35.0954 138.048 35.0954 137.344C35.0954 136.683 34.914 136.117 34.5514 135.648C34.21 135.179 33.7194 134.827 33.0794 134.592C32.4394 134.336 31.682 134.208 30.8074 134.208H24.9514V140.672ZM24.9514 130.88H30.6474C31.2874 130.88 31.8527 130.752 32.3434 130.496C32.8554 130.24 33.25 129.888 33.5274 129.44C33.826 128.992 33.9754 128.48 33.9754 127.904C33.9754 126.944 33.6554 126.208 33.0154 125.696C32.3754 125.184 31.458 124.928 30.2634 124.928H24.9514V130.88ZM48.3326 144.32C47.138 144.32 46.0926 144.043 45.1966 143.488C44.322 142.933 43.6393 142.155 43.1486 141.152C42.6793 140.149 42.4446 138.955 42.4446 137.568V127.2H45.7406V136.672C45.7406 137.653 45.89 138.507 46.1886 139.232C46.5086 139.936 46.9566 140.48 47.5326 140.864C48.13 141.248 48.8446 141.44 49.6766 141.44C50.2953 141.44 50.8606 141.344 51.3726 141.152C51.8846 140.939 52.322 140.651 52.6846 140.288C53.0686 139.925 53.3673 139.488 53.5806 138.976C53.794 138.464 53.9006 137.909 53.9006 137.312V127.2H57.1966V144H53.9006V140.48L54.4766 140.096C54.2206 140.885 53.7833 141.6 53.1646 142.24C52.5673 142.88 51.8526 143.392 51.0206 143.776C50.1886 144.139 49.2926 144.32 48.3326 144.32ZM63.8996 144V122.912H67.1956V144H63.8996ZM60.4116 130.4V127.2H71.0996V130.4H60.4116ZM76.1809 144V122.912H79.4769V144H76.1809ZM72.6929 130.4V127.2H83.3809V130.4H72.6929ZM93.7779 144.32C92.1352 144.32 90.6632 143.947 89.3619 143.2C88.0819 142.432 87.0685 141.397 86.3219 140.096C85.5752 138.773 85.2019 137.269 85.2019 135.584C85.2019 133.899 85.5752 132.405 86.3219 131.104C87.0685 129.781 88.0819 128.747 89.3619 128C90.6632 127.232 92.1352 126.848 93.7779 126.848C95.3992 126.848 96.8499 127.232 98.1299 128C99.4312 128.747 100.455 129.781 101.202 131.104C101.949 132.405 102.322 133.899 102.322 135.584C102.322 137.269 101.949 138.773 101.202 140.096C100.455 141.397 99.4312 142.432 98.1299 143.2C96.8499 143.947 95.3992 144.32 93.7779 144.32ZM93.7779 141.312C94.7805 141.312 95.6765 141.067 96.4659 140.576C97.2552 140.064 97.8739 139.381 98.3219 138.528C98.7699 137.653 98.9832 136.672 98.9619 135.584C98.9832 134.475 98.7699 133.493 98.3219 132.64C97.8739 131.765 97.2552 131.083 96.4659 130.592C95.6765 130.101 94.7805 129.856 93.7779 129.856C92.7752 129.856 91.8685 130.112 91.0579 130.624C90.2685 131.115 89.6499 131.797 89.2019 132.672C88.7539 133.525 88.5405 134.496 88.5619 135.584C88.5405 136.672 88.7539 137.653 89.2019 138.528C89.6499 139.381 90.2685 140.064 91.0579 140.576C91.8685 141.067 92.7752 141.312 93.7779 141.312ZM105.913 144V127.2H109.209V130.656L108.633 131.04C108.847 130.293 109.263 129.611 109.881 128.992C110.5 128.352 111.236 127.84 112.089 127.456C112.943 127.051 113.817 126.848 114.713 126.848C115.993 126.848 117.06 127.104 117.913 127.616C118.767 128.107 119.407 128.864 119.833 129.888C120.26 130.912 120.473 132.203 120.473 133.76V144H117.177V133.984C117.177 133.024 117.049 132.235 116.793 131.616C116.537 130.976 116.143 130.517 115.609 130.24C115.076 129.941 114.415 129.813 113.625 129.856C112.985 129.856 112.399 129.963 111.865 130.176C111.332 130.368 110.863 130.645 110.457 131.008C110.073 131.371 109.764 131.797 109.529 132.288C109.316 132.757 109.209 133.269 109.209 133.824V144H107.577C107.3 144 107.023 144 106.745 144C106.468 144 106.191 144 105.913 144Z" fill="white"/>
</svg>
