<svg width="170" height="161" viewBox="0 0 170 161" fill="none" xmlns="http://www.w3.org/2000/svg">
<rect width="170" height="32" rx="8" fill="#282B28"/>
<path d="M12.4 22L16.736 10.8H18.496L22.8 22H20.96L18.4 15.248C18.368 15.1733 18.304 14.992 18.208 14.704C18.1227 14.416 18.0213 14.096 17.904 13.744C17.7867 13.392 17.68 13.072 17.584 12.784C17.488 12.4853 17.424 12.2933 17.392 12.208L17.76 12.192C17.696 12.3733 17.616 12.6027 17.52 12.88C17.4347 13.1573 17.3387 13.4507 17.232 13.76C17.136 14.0693 17.04 14.3627 16.944 14.64C16.848 14.9067 16.768 15.1307 16.704 15.312L14.16 22H12.4ZM14.32 19.216L14.96 17.552H20.048L20.784 19.216H14.32ZM24.7711 22V10.8H31.8271V12.464H26.4991V20.336H31.8271V22H24.7711ZM25.5551 17.088V15.424H30.9471V17.088H25.5551ZM38.0553 22.16C37.4473 22.16 36.8819 22.08 36.3593 21.92C35.8473 21.76 35.3779 21.52 34.9513 21.2C34.5353 20.8693 34.1619 20.464 33.8313 19.984L35.0153 18.624C35.5379 19.3707 36.0393 19.888 36.5193 20.176C36.9993 20.464 37.5699 20.608 38.2313 20.608C38.6366 20.608 39.0046 20.544 39.3353 20.416C39.6659 20.288 39.9273 20.112 40.1193 19.888C40.3113 19.664 40.4073 19.408 40.4073 19.12C40.4073 18.928 40.3753 18.7467 40.3113 18.576C40.2473 18.4053 40.1459 18.2507 40.0073 18.112C39.8793 17.9733 39.7086 17.8453 39.4953 17.728C39.2926 17.6107 39.0526 17.5093 38.7753 17.424C38.4979 17.328 38.1779 17.248 37.8153 17.184C37.2393 17.0667 36.7379 16.912 36.3113 16.72C35.8846 16.528 35.5273 16.288 35.2393 16C34.9513 15.712 34.7379 15.3867 34.5993 15.024C34.4606 14.6507 34.3913 14.2347 34.3913 13.776C34.3913 13.328 34.4873 12.912 34.6793 12.528C34.8819 12.144 35.1539 11.8133 35.4953 11.536C35.8473 11.248 36.2579 11.0293 36.7273 10.88C37.1966 10.72 37.7033 10.64 38.2473 10.64C38.8233 10.64 39.3513 10.7147 39.8313 10.864C40.3113 11.0133 40.7379 11.2373 41.1112 11.536C41.4846 11.824 41.7939 12.1813 42.0393 12.608L40.8233 13.808C40.6099 13.456 40.3699 13.1627 40.1033 12.928C39.8366 12.6827 39.5433 12.5013 39.2233 12.384C38.9033 12.256 38.5619 12.192 38.1993 12.192C37.7833 12.192 37.4206 12.256 37.1113 12.384C36.8019 12.512 36.5566 12.6933 36.3753 12.928C36.2046 13.152 36.1193 13.4187 36.1193 13.728C36.1193 13.952 36.1619 14.16 36.2473 14.352C36.3326 14.5333 36.4606 14.6987 36.6313 14.848C36.8126 14.9867 37.0526 15.1147 37.3513 15.232C37.6499 15.3387 38.0073 15.4347 38.4233 15.52C39.0099 15.648 39.5326 15.8133 39.9913 16.016C40.4499 16.208 40.8393 16.4373 41.1593 16.704C41.4793 16.9707 41.7193 17.2693 41.8793 17.6C42.0499 17.9307 42.1353 18.288 42.1353 18.672C42.1353 19.3867 41.9699 20.0053 41.6393 20.528C41.3086 21.0507 40.8393 21.456 40.2313 21.744C39.6233 22.0213 38.8979 22.16 38.0553 22.16ZM43.8636 18.24V16.608H48.4716V18.24H43.8636ZM50.8005 22L50.2725 20.688L53.6965 16.832C53.8778 16.64 54.0645 16.4213 54.2565 16.176C54.4592 15.92 54.6512 15.6587 54.8325 15.392C55.0138 15.1253 55.1578 14.864 55.2645 14.608C55.3818 14.3413 55.4405 14.0907 55.4405 13.856C55.4405 13.5147 55.3712 13.2267 55.2325 12.992C55.1045 12.7467 54.9125 12.56 54.6565 12.432C54.4112 12.304 54.1125 12.24 53.7605 12.24C53.4512 12.24 53.1472 12.3307 52.8485 12.512C52.5498 12.6933 52.2778 12.9493 52.0325 13.28C51.7872 13.6107 51.5952 13.9947 51.4565 14.432L50.1285 13.6C50.3098 12.9813 50.5818 12.4533 50.9445 12.016C51.3178 11.568 51.7605 11.2267 52.2725 10.992C52.7952 10.7573 53.3605 10.64 53.9685 10.64C54.5978 10.64 55.1578 10.7733 55.6485 11.04C56.1392 11.296 56.5232 11.6587 56.8005 12.128C57.0778 12.5867 57.2165 13.12 57.2165 13.728C57.2165 13.9733 57.1898 14.224 57.1365 14.48C57.0832 14.736 56.9978 15.0027 56.8805 15.28C56.7632 15.5467 56.6138 15.8293 56.4325 16.128C56.2512 16.416 56.0325 16.72 55.7765 17.04C55.5312 17.36 55.2485 17.696 54.9285 18.048L52.3845 20.816L52.0645 20.336H57.5685V22H50.8005ZM62.1901 22.112C61.4541 22.112 60.7875 21.9467 60.1901 21.616C59.5928 21.2747 59.0968 20.7893 58.7021 20.16L59.6621 19.088C60.1635 19.6427 60.6008 20.0213 60.9741 20.224C61.3475 20.4267 61.7528 20.528 62.1901 20.528C62.6275 20.528 63.0221 20.432 63.3741 20.24C63.7261 20.048 64.0035 19.7867 64.2061 19.456C64.4195 19.1253 64.5261 18.7573 64.5261 18.352C64.5261 17.9253 64.4248 17.5467 64.2221 17.216C64.0301 16.8747 63.7688 16.608 63.4381 16.416C63.1075 16.2133 62.7341 16.112 62.3181 16.112C62.1155 16.112 61.9235 16.128 61.7421 16.16C61.5608 16.1813 61.3421 16.24 61.0861 16.336C60.8301 16.432 60.4941 16.5813 60.0781 16.784L59.1661 15.552L59.8221 10.8H65.8701V12.4H60.9101L61.2461 12.096L60.7181 15.648L60.3181 15.184C60.4248 15.0773 60.6061 14.976 60.8621 14.88C61.1181 14.7733 61.4008 14.688 61.7101 14.624C62.0301 14.5493 62.3341 14.512 62.6221 14.512C63.3048 14.512 63.9128 14.672 64.4461 14.992C64.9901 15.3013 65.4168 15.7333 65.7261 16.288C66.0461 16.8427 66.2061 17.4773 66.2061 18.192C66.2061 18.928 66.0301 19.5947 65.6781 20.192C65.3261 20.7787 64.8461 21.248 64.2381 21.6C63.6301 21.9413 62.9475 22.112 62.1901 22.112ZM71.6999 22C71.1452 22 70.6279 21.904 70.1479 21.712C69.6785 21.5093 69.2679 21.232 68.9159 20.88C68.5745 20.528 68.3025 20.112 68.0999 19.632C67.9079 19.152 67.8119 18.624 67.8119 18.048C67.8119 17.76 67.8492 17.44 67.9239 17.088C68.0092 16.7253 68.1319 16.3307 68.2919 15.904C68.4625 15.4773 68.6652 15.0293 68.8999 14.56C69.1345 14.08 69.4065 13.584 69.7159 13.072L71.1719 10.608H72.8519L72.9159 10.768L71.1559 13.728C70.8359 14.272 70.5479 14.7893 70.2919 15.28C70.0465 15.7707 69.8385 16.2347 69.6679 16.672C69.4972 17.0987 69.3692 17.488 69.2839 17.84L68.8999 16.192C69.1025 15.8613 69.3212 15.5733 69.5559 15.328C69.7905 15.072 70.0412 14.8587 70.3079 14.688C70.5852 14.5173 70.8732 14.3893 71.1719 14.304C71.4705 14.2187 71.7799 14.176 72.0999 14.176C72.7185 14.176 73.2839 14.3467 73.7959 14.688C74.3185 15.0187 74.7345 15.4613 75.0439 16.016C75.3639 16.5707 75.5239 17.1787 75.5239 17.84C75.5239 18.64 75.3585 19.3547 75.0279 19.984C74.7079 20.6027 74.2599 21.0933 73.6839 21.456C73.1079 21.8187 72.4465 22 71.6999 22ZM71.6999 20.4C72.1159 20.4 72.4839 20.304 72.8039 20.112C73.1345 19.9093 73.3905 19.632 73.5719 19.28C73.7639 18.9173 73.8599 18.5067 73.8599 18.048C73.8599 17.6533 73.7639 17.2853 73.5719 16.944C73.3799 16.592 73.1239 16.3093 72.8039 16.096C72.4839 15.8827 72.1265 15.776 71.7319 15.776C71.2945 15.776 70.9052 15.8773 70.5639 16.08C70.2225 16.2827 69.9559 16.5547 69.7639 16.896C69.5719 17.2373 69.4759 17.616 69.4759 18.032C69.4759 18.48 69.5719 18.8853 69.7639 19.248C69.9559 19.6 70.2172 19.8827 70.5479 20.096C70.8785 20.2987 71.2625 20.4 71.6999 20.4ZM76.9261 18.24V16.608H81.5341V18.24H76.9261ZM88.951 22.16C88.1403 22.16 87.383 22.016 86.679 21.728C85.975 21.4293 85.3563 21.0187 84.823 20.496C84.2897 19.9733 83.8737 19.3653 83.575 18.672C83.287 17.968 83.143 17.2107 83.143 16.4C83.143 15.6 83.287 14.8533 83.575 14.16C83.8737 13.4667 84.2843 12.864 84.807 12.352C85.3403 11.8293 85.959 11.424 86.663 11.136C87.367 10.848 88.1243 10.704 88.935 10.704C89.5003 10.704 90.0497 10.784 90.583 10.944C91.127 11.104 91.6177 11.328 92.055 11.616C92.4923 11.904 92.8497 12.2347 93.127 12.608L92.007 13.776C91.687 13.4667 91.3563 13.2107 91.015 13.008C90.6843 12.8053 90.343 12.6507 89.991 12.544C89.639 12.4373 89.287 12.384 88.935 12.384C88.359 12.384 87.8257 12.4853 87.335 12.688C86.855 12.8907 86.4283 13.1733 86.055 13.536C85.6923 13.8987 85.4097 14.3253 85.207 14.816C85.0043 15.296 84.903 15.824 84.903 16.4C84.903 16.9547 85.0097 17.4827 85.223 17.984C85.4363 18.4747 85.7297 18.9067 86.103 19.28C86.487 19.6533 86.9243 19.9467 87.415 20.16C87.9163 20.3733 88.4443 20.48 88.999 20.48C89.415 20.48 89.8097 20.4213 90.183 20.304C90.5563 20.176 90.887 20 91.175 19.776C91.463 19.552 91.687 19.296 91.847 19.008C92.007 18.7093 92.087 18.3947 92.087 18.064V17.744L92.327 17.968H88.903V16.256H93.863C93.8843 16.3733 93.9003 16.4907 93.911 16.608C93.9217 16.7147 93.927 16.8213 93.927 16.928C93.9377 17.024 93.943 17.12 93.943 17.216C93.943 17.952 93.815 18.624 93.559 19.232C93.303 19.8293 92.9457 20.3467 92.487 20.784C92.039 21.2213 91.511 21.5627 90.903 21.808C90.3057 22.0427 89.655 22.16 88.951 22.16ZM100.737 22.16C99.9583 22.16 99.2437 22.0213 98.593 21.744C97.9423 21.4667 97.377 21.072 96.897 20.56C96.417 20.0373 96.0437 19.424 95.777 18.72C95.521 18.016 95.393 17.2427 95.393 16.4C95.393 15.6 95.5317 14.8587 95.809 14.176C96.097 13.4827 96.4917 12.8747 96.993 12.352C97.4943 11.8293 98.0757 11.424 98.737 11.136C99.3983 10.848 100.113 10.704 100.881 10.704C101.425 10.704 101.953 10.7893 102.465 10.96C102.988 11.12 103.457 11.3493 103.873 11.648C104.3 11.936 104.646 12.2667 104.913 12.64L103.761 13.84C103.452 13.5307 103.137 13.2747 102.817 13.072C102.508 12.8587 102.188 12.6987 101.857 12.592C101.537 12.4853 101.212 12.432 100.881 12.432C100.358 12.432 99.8677 12.5333 99.409 12.736C98.961 12.928 98.5663 13.2 98.225 13.552C97.8943 13.904 97.633 14.3253 97.441 14.816C97.249 15.296 97.153 15.824 97.153 16.4C97.153 17.008 97.2437 17.5627 97.425 18.064C97.617 18.5547 97.8837 18.976 98.225 19.328C98.5663 19.68 98.9717 19.952 99.441 20.144C99.921 20.3253 100.449 20.416 101.025 20.416C101.377 20.416 101.724 20.368 102.065 20.272C102.406 20.176 102.726 20.0373 103.025 19.856C103.324 19.6747 103.596 19.4613 103.841 19.216L104.705 20.624C104.46 20.912 104.124 21.1733 103.697 21.408C103.281 21.6427 102.812 21.8293 102.289 21.968C101.777 22.096 101.26 22.16 100.737 22.16ZM107.052 22V10.8H108.748L112.828 17.44L112.012 17.424L116.14 10.8H117.74V22H116.012V17.408C116.012 16.448 116.034 15.584 116.076 14.816C116.13 14.048 116.215 13.2853 116.332 12.528L116.556 13.12L112.892 18.784H111.836L108.284 13.184L108.46 12.528C108.578 13.2427 108.658 13.9787 108.7 14.736C108.754 15.4827 108.78 16.3733 108.78 17.408V22H107.052Z" fill="white"/>
<path fill-rule="evenodd" clip-rule="evenodd" d="M154.53 9.46983C154.389 9.32938 154.199 9.25049 154 9.25049C153.801 9.25049 153.611 9.32938 153.47 9.46983L150.22 12.7198C150.087 12.862 150.015 13.05 150.019 13.2444C150.022 13.4387 150.101 13.624 150.238 13.7615C150.376 13.8989 150.561 13.9776 150.755 13.981C150.95 13.9844 151.138 13.9123 151.28 13.7798L154 11.0598L156.72 13.7798C156.789 13.8535 156.871 13.9126 156.963 13.9536C157.055 13.9946 157.155 14.0166 157.255 14.0184C157.356 14.0202 157.456 14.0017 157.55 13.964C157.643 13.9262 157.728 13.8701 157.799 13.7989C157.87 13.7276 157.926 13.6428 157.964 13.5494C158.002 13.456 158.02 13.356 158.019 13.2553C158.017 13.1546 157.995 13.0553 157.954 12.9633C157.913 12.8713 157.854 12.7885 157.78 12.7198L154.53 9.46983ZM150.22 19.2798L153.47 22.5298C153.611 22.6703 153.801 22.7492 154 22.7492C154.199 22.7492 154.389 22.6703 154.53 22.5298L157.78 19.2798C157.854 19.2112 157.913 19.1284 157.954 19.0364C157.995 18.9444 158.017 18.8451 158.019 18.7444C158.02 18.6436 158.002 18.5436 157.964 18.4502C157.926 18.3568 157.87 18.272 157.799 18.2008C157.728 18.1296 157.643 18.0734 157.55 18.0357C157.456 17.998 157.356 17.9795 157.255 17.9812C157.155 17.983 157.055 18.0051 156.963 18.046C156.871 18.087 156.789 18.1461 156.72 18.2198L154 20.9398L151.28 18.2198C151.138 18.0873 150.95 18.0152 150.755 18.0187C150.561 18.0221 150.376 18.1008 150.238 18.2382C150.101 18.3756 150.022 18.561 150.019 18.7553C150.015 18.9496 150.087 19.1377 150.22 19.2798Z" fill="white"/>
<rect y="39" width="170" height="122" rx="8" fill="#282B28"/>
<path fill-rule="evenodd" clip-rule="evenodd" d="M25.5773 49.1543C25.7868 49.2892 25.9322 49.4988 25.9816 49.7372C26.0309 49.9756 25.9802 50.2232 25.8406 50.4254L19.5123 59.5923C19.4344 59.705 19.3315 59.7997 19.2111 59.8694C19.0907 59.9392 18.9558 59.9822 18.8162 59.9956C18.6765 60.0089 18.5354 59.9921 18.4033 59.9465C18.2711 59.9008 18.151 59.8275 18.0517 59.7316L14.2548 56.0649C14.0871 55.8911 13.9958 55.6613 14.0001 55.4238C14.0045 55.1863 14.1041 54.9597 14.278 54.7918C14.4519 54.6238 14.6866 54.5276 14.9325 54.5234C15.1784 54.5192 15.4164 54.6074 15.5964 54.7693L18.5745 57.6453L24.2611 49.4073C24.4009 49.2052 24.6181 49.0651 24.865 49.0176C25.1118 48.9702 25.368 49.0194 25.5773 49.1543Z" fill="#00FF70"/>
<path d="M30.4 61L34.736 49.8H36.496L40.8 61H38.96L36.4 54.248C36.368 54.1733 36.304 53.992 36.208 53.704C36.1227 53.416 36.0213 53.096 35.904 52.744C35.7867 52.392 35.68 52.072 35.584 51.784C35.488 51.4853 35.424 51.2933 35.392 51.208L35.76 51.192C35.696 51.3733 35.616 51.6027 35.52 51.88C35.4347 52.1573 35.3387 52.4507 35.232 52.76C35.136 53.0693 35.04 53.3627 34.944 53.64C34.848 53.9067 34.768 54.1307 34.704 54.312L32.16 61H30.4ZM32.32 58.216L32.96 56.552H38.048L38.784 58.216H32.32ZM42.7711 61V49.8H49.8271V51.464H44.4991V59.336H49.8271V61H42.7711ZM43.5551 56.088V54.424H48.9471V56.088H43.5551ZM56.0553 61.16C55.4473 61.16 54.8819 61.08 54.3593 60.92C53.8473 60.76 53.3779 60.52 52.9513 60.2C52.5353 59.8693 52.1619 59.464 51.8313 58.984L53.0153 57.624C53.5379 58.3707 54.0393 58.888 54.5193 59.176C54.9993 59.464 55.5699 59.608 56.2313 59.608C56.6366 59.608 57.0046 59.544 57.3353 59.416C57.6659 59.288 57.9273 59.112 58.1193 58.888C58.3113 58.664 58.4073 58.408 58.4073 58.12C58.4073 57.928 58.3753 57.7467 58.3113 57.576C58.2473 57.4053 58.1459 57.2507 58.0073 57.112C57.8793 56.9733 57.7086 56.8453 57.4953 56.728C57.2926 56.6107 57.0526 56.5093 56.7753 56.424C56.4979 56.328 56.1779 56.248 55.8153 56.184C55.2393 56.0667 54.7379 55.912 54.3113 55.72C53.8846 55.528 53.5273 55.288 53.2393 55C52.9513 54.712 52.7379 54.3867 52.5993 54.024C52.4606 53.6507 52.3913 53.2347 52.3913 52.776C52.3913 52.328 52.4873 51.912 52.6793 51.528C52.8819 51.144 53.1539 50.8133 53.4953 50.536C53.8473 50.248 54.2579 50.0293 54.7273 49.88C55.1966 49.72 55.7033 49.64 56.2473 49.64C56.8233 49.64 57.3513 49.7147 57.8313 49.864C58.3113 50.0133 58.7379 50.2373 59.1112 50.536C59.4846 50.824 59.7939 51.1813 60.0393 51.608L58.8233 52.808C58.6099 52.456 58.3699 52.1627 58.1033 51.928C57.8366 51.6827 57.5433 51.5013 57.2233 51.384C56.9033 51.256 56.5619 51.192 56.1993 51.192C55.7833 51.192 55.4206 51.256 55.1113 51.384C54.8019 51.512 54.5566 51.6933 54.3753 51.928C54.2046 52.152 54.1193 52.4187 54.1193 52.728C54.1193 52.952 54.1619 53.16 54.2473 53.352C54.3326 53.5333 54.4606 53.6987 54.6313 53.848C54.8126 53.9867 55.0526 54.1147 55.3513 54.232C55.6499 54.3387 56.0073 54.4347 56.4233 54.52C57.0099 54.648 57.5326 54.8133 57.9913 55.016C58.4499 55.208 58.8393 55.4373 59.1593 55.704C59.4793 55.9707 59.7193 56.2693 59.8793 56.6C60.0499 56.9307 60.1353 57.288 60.1353 57.672C60.1353 58.3867 59.9699 59.0053 59.6393 59.528C59.3086 60.0507 58.8393 60.456 58.2313 60.744C57.6233 61.0213 56.8979 61.16 56.0553 61.16ZM61.8636 57.24V55.608H66.4716V57.24H61.8636ZM68.8005 61L68.2725 59.688L71.6965 55.832C71.8778 55.64 72.0645 55.4213 72.2565 55.176C72.4592 54.92 72.6512 54.6587 72.8325 54.392C73.0138 54.1253 73.1578 53.864 73.2645 53.608C73.3818 53.3413 73.4405 53.0907 73.4405 52.856C73.4405 52.5147 73.3712 52.2267 73.2325 51.992C73.1045 51.7467 72.9125 51.56 72.6565 51.432C72.4112 51.304 72.1125 51.24 71.7605 51.24C71.4512 51.24 71.1472 51.3307 70.8485 51.512C70.5498 51.6933 70.2778 51.9493 70.0325 52.28C69.7872 52.6107 69.5952 52.9947 69.4565 53.432L68.1285 52.6C68.3098 51.9813 68.5818 51.4533 68.9445 51.016C69.3178 50.568 69.7605 50.2267 70.2725 49.992C70.7952 49.7573 71.3605 49.64 71.9685 49.64C72.5978 49.64 73.1578 49.7733 73.6485 50.04C74.1392 50.296 74.5232 50.6587 74.8005 51.128C75.0778 51.5867 75.2165 52.12 75.2165 52.728C75.2165 52.9733 75.1898 53.224 75.1365 53.48C75.0832 53.736 74.9978 54.0027 74.8805 54.28C74.7632 54.5467 74.6138 54.8293 74.4325 55.128C74.2512 55.416 74.0325 55.72 73.7765 56.04C73.5312 56.36 73.2485 56.696 72.9285 57.048L70.3845 59.816L70.0645 59.336H75.5685V61H68.8005ZM80.1901 61.112C79.4541 61.112 78.7875 60.9467 78.1901 60.616C77.5928 60.2747 77.0968 59.7893 76.7021 59.16L77.6621 58.088C78.1635 58.6427 78.6008 59.0213 78.9741 59.224C79.3475 59.4267 79.7528 59.528 80.1901 59.528C80.6275 59.528 81.0221 59.432 81.3741 59.24C81.7261 59.048 82.0035 58.7867 82.2061 58.456C82.4195 58.1253 82.5261 57.7573 82.5261 57.352C82.5261 56.9253 82.4248 56.5467 82.2221 56.216C82.0301 55.8747 81.7688 55.608 81.4381 55.416C81.1075 55.2133 80.7341 55.112 80.3181 55.112C80.1155 55.112 79.9235 55.128 79.7421 55.16C79.5608 55.1813 79.3421 55.24 79.0861 55.336C78.8301 55.432 78.4941 55.5813 78.0781 55.784L77.1661 54.552L77.8221 49.8H83.8701V51.4H78.9101L79.2461 51.096L78.7181 54.648L78.3181 54.184C78.4248 54.0773 78.6061 53.976 78.8621 53.88C79.1181 53.7733 79.4008 53.688 79.7101 53.624C80.0301 53.5493 80.3341 53.512 80.6221 53.512C81.3048 53.512 81.9128 53.672 82.4461 53.992C82.9901 54.3013 83.4168 54.7333 83.7261 55.288C84.0461 55.8427 84.2061 56.4773 84.2061 57.192C84.2061 57.928 84.0301 58.5947 83.6781 59.192C83.3261 59.7787 82.8461 60.248 82.2381 60.6C81.6301 60.9413 80.9475 61.112 80.1901 61.112ZM89.6999 61C89.1452 61 88.6279 60.904 88.1479 60.712C87.6785 60.5093 87.2679 60.232 86.9159 59.88C86.5745 59.528 86.3025 59.112 86.0999 58.632C85.9079 58.152 85.8119 57.624 85.8119 57.048C85.8119 56.76 85.8492 56.44 85.9239 56.088C86.0092 55.7253 86.1319 55.3307 86.2919 54.904C86.4625 54.4773 86.6652 54.0293 86.8999 53.56C87.1345 53.08 87.4065 52.584 87.7159 52.072L89.1719 49.608H90.8519L90.9159 49.768L89.1559 52.728C88.8359 53.272 88.5479 53.7893 88.2919 54.28C88.0465 54.7707 87.8385 55.2347 87.6679 55.672C87.4972 56.0987 87.3692 56.488 87.2839 56.84L86.8999 55.192C87.1025 54.8613 87.3212 54.5733 87.5559 54.328C87.7905 54.072 88.0412 53.8587 88.3079 53.688C88.5852 53.5173 88.8732 53.3893 89.1719 53.304C89.4705 53.2187 89.7799 53.176 90.0999 53.176C90.7185 53.176 91.2839 53.3467 91.7959 53.688C92.3185 54.0187 92.7345 54.4613 93.0439 55.016C93.3639 55.5707 93.5239 56.1787 93.5239 56.84C93.5239 57.64 93.3585 58.3547 93.0279 58.984C92.7079 59.6027 92.2599 60.0933 91.6839 60.456C91.1079 60.8187 90.4465 61 89.6999 61ZM89.6999 59.4C90.1159 59.4 90.4839 59.304 90.8039 59.112C91.1345 58.9093 91.3905 58.632 91.5719 58.28C91.7639 57.9173 91.8599 57.5067 91.8599 57.048C91.8599 56.6533 91.7639 56.2853 91.5719 55.944C91.3799 55.592 91.1239 55.3093 90.8039 55.096C90.4839 54.8827 90.1265 54.776 89.7319 54.776C89.2945 54.776 88.9052 54.8773 88.5639 55.08C88.2225 55.2827 87.9559 55.5547 87.7639 55.896C87.5719 56.2373 87.4759 56.616 87.4759 57.032C87.4759 57.48 87.5719 57.8853 87.7639 58.248C87.9559 58.6 88.2172 58.8827 88.5479 59.096C88.8785 59.2987 89.2625 59.4 89.6999 59.4ZM94.9261 57.24V55.608H99.5341V57.24H94.9261ZM106.951 61.16C106.14 61.16 105.383 61.016 104.679 60.728C103.975 60.4293 103.356 60.0187 102.823 59.496C102.29 58.9733 101.874 58.3653 101.575 57.672C101.287 56.968 101.143 56.2107 101.143 55.4C101.143 54.6 101.287 53.8533 101.575 53.16C101.874 52.4667 102.284 51.864 102.807 51.352C103.34 50.8293 103.959 50.424 104.663 50.136C105.367 49.848 106.124 49.704 106.935 49.704C107.5 49.704 108.05 49.784 108.583 49.944C109.127 50.104 109.618 50.328 110.055 50.616C110.492 50.904 110.85 51.2347 111.127 51.608L110.007 52.776C109.687 52.4667 109.356 52.2107 109.015 52.008C108.684 51.8053 108.343 51.6507 107.991 51.544C107.639 51.4373 107.287 51.384 106.935 51.384C106.359 51.384 105.826 51.4853 105.335 51.688C104.855 51.8907 104.428 52.1733 104.055 52.536C103.692 52.8987 103.41 53.3253 103.207 53.816C103.004 54.296 102.903 54.824 102.903 55.4C102.903 55.9547 103.01 56.4827 103.223 56.984C103.436 57.4747 103.73 57.9067 104.103 58.28C104.487 58.6533 104.924 58.9467 105.415 59.16C105.916 59.3733 106.444 59.48 106.999 59.48C107.415 59.48 107.81 59.4213 108.183 59.304C108.556 59.176 108.887 59 109.175 58.776C109.463 58.552 109.687 58.296 109.847 58.008C110.007 57.7093 110.087 57.3947 110.087 57.064V56.744L110.327 56.968H106.903V55.256H111.863C111.884 55.3733 111.9 55.4907 111.911 55.608C111.922 55.7147 111.927 55.8213 111.927 55.928C111.938 56.024 111.943 56.12 111.943 56.216C111.943 56.952 111.815 57.624 111.559 58.232C111.303 58.8293 110.946 59.3467 110.487 59.784C110.039 60.2213 109.511 60.5627 108.903 60.808C108.306 61.0427 107.655 61.16 106.951 61.16ZM118.737 61.16C117.958 61.16 117.244 61.0213 116.593 60.744C115.942 60.4667 115.377 60.072 114.897 59.56C114.417 59.0373 114.044 58.424 113.777 57.72C113.521 57.016 113.393 56.2427 113.393 55.4C113.393 54.6 113.532 53.8587 113.809 53.176C114.097 52.4827 114.492 51.8747 114.993 51.352C115.494 50.8293 116.076 50.424 116.737 50.136C117.398 49.848 118.113 49.704 118.881 49.704C119.425 49.704 119.953 49.7893 120.465 49.96C120.988 50.12 121.457 50.3493 121.873 50.648C122.3 50.936 122.646 51.2667 122.913 51.64L121.761 52.84C121.452 52.5307 121.137 52.2747 120.817 52.072C120.508 51.8587 120.188 51.6987 119.857 51.592C119.537 51.4853 119.212 51.432 118.881 51.432C118.358 51.432 117.868 51.5333 117.409 51.736C116.961 51.928 116.566 52.2 116.225 52.552C115.894 52.904 115.633 53.3253 115.441 53.816C115.249 54.296 115.153 54.824 115.153 55.4C115.153 56.008 115.244 56.5627 115.425 57.064C115.617 57.5547 115.884 57.976 116.225 58.328C116.566 58.68 116.972 58.952 117.441 59.144C117.921 59.3253 118.449 59.416 119.025 59.416C119.377 59.416 119.724 59.368 120.065 59.272C120.406 59.176 120.726 59.0373 121.025 58.856C121.324 58.6747 121.596 58.4613 121.841 58.216L122.705 59.624C122.46 59.912 122.124 60.1733 121.697 60.408C121.281 60.6427 120.812 60.8293 120.289 60.968C119.777 61.096 119.26 61.16 118.737 61.16ZM125.052 61V49.8H126.748L130.828 56.44L130.012 56.424L134.14 49.8H135.74V61H134.012V56.408C134.012 55.448 134.034 54.584 134.076 53.816C134.13 53.048 134.215 52.2853 134.332 51.528L134.556 52.12L130.892 57.784H129.836L126.284 52.184L126.46 51.528C126.578 52.2427 126.658 52.9787 126.7 53.736C126.754 54.4827 126.78 55.3733 126.78 56.408V61H125.052Z" fill="white"/>
<path d="M30.4 91L34.736 79.8H36.496L40.8 91H38.96L36.4 84.248C36.368 84.1733 36.304 83.992 36.208 83.704C36.1227 83.416 36.0213 83.096 35.904 82.744C35.7867 82.392 35.68 82.072 35.584 81.784C35.488 81.4853 35.424 81.2933 35.392 81.208L35.76 81.192C35.696 81.3733 35.616 81.6027 35.52 81.88C35.4347 82.1573 35.3387 82.4507 35.232 82.76C35.136 83.0693 35.04 83.3627 34.944 83.64C34.848 83.9067 34.768 84.1307 34.704 84.312L32.16 91H30.4ZM32.32 88.216L32.96 86.552H38.048L38.784 88.216H32.32ZM42.7711 91V79.8H49.8271V81.464H44.4991V89.336H49.8271V91H42.7711ZM43.5551 86.088V84.424H48.9471V86.088H43.5551ZM56.0553 91.16C55.4473 91.16 54.8819 91.08 54.3593 90.92C53.8473 90.76 53.3779 90.52 52.9513 90.2C52.5353 89.8693 52.1619 89.464 51.8313 88.984L53.0153 87.624C53.5379 88.3707 54.0393 88.888 54.5193 89.176C54.9993 89.464 55.5699 89.608 56.2313 89.608C56.6366 89.608 57.0046 89.544 57.3353 89.416C57.6659 89.288 57.9273 89.112 58.1193 88.888C58.3113 88.664 58.4073 88.408 58.4073 88.12C58.4073 87.928 58.3753 87.7467 58.3113 87.576C58.2473 87.4053 58.1459 87.2507 58.0073 87.112C57.8793 86.9733 57.7086 86.8453 57.4953 86.728C57.2926 86.6107 57.0526 86.5093 56.7753 86.424C56.4979 86.328 56.1779 86.248 55.8153 86.184C55.2393 86.0667 54.7379 85.912 54.3113 85.72C53.8846 85.528 53.5273 85.288 53.2393 85C52.9513 84.712 52.7379 84.3867 52.5993 84.024C52.4606 83.6507 52.3913 83.2347 52.3913 82.776C52.3913 82.328 52.4873 81.912 52.6793 81.528C52.8819 81.144 53.1539 80.8133 53.4953 80.536C53.8473 80.248 54.2579 80.0293 54.7273 79.88C55.1966 79.72 55.7033 79.64 56.2473 79.64C56.8233 79.64 57.3513 79.7147 57.8313 79.864C58.3113 80.0133 58.7379 80.2373 59.1112 80.536C59.4846 80.824 59.7939 81.1813 60.0393 81.608L58.8233 82.808C58.6099 82.456 58.3699 82.1627 58.1033 81.928C57.8366 81.6827 57.5433 81.5013 57.2233 81.384C56.9033 81.256 56.5619 81.192 56.1993 81.192C55.7833 81.192 55.4206 81.256 55.1113 81.384C54.8019 81.512 54.5566 81.6933 54.3753 81.928C54.2046 82.152 54.1193 82.4187 54.1193 82.728C54.1193 82.952 54.1619 83.16 54.2473 83.352C54.3326 83.5333 54.4606 83.6987 54.6313 83.848C54.8126 83.9867 55.0526 84.1147 55.3513 84.232C55.6499 84.3387 56.0073 84.4347 56.4233 84.52C57.0099 84.648 57.5326 84.8133 57.9913 85.016C58.4499 85.208 58.8393 85.4373 59.1593 85.704C59.4793 85.9707 59.7193 86.2693 59.8793 86.6C60.0499 86.9307 60.1353 87.288 60.1353 87.672C60.1353 88.3867 59.9699 89.0053 59.6393 89.528C59.3086 90.0507 58.8393 90.456 58.2313 90.744C57.6233 91.0213 56.8979 91.16 56.0553 91.16ZM61.8636 87.24V85.608H66.4716V87.24H61.8636ZM70.7845 90.216V81.128L71.3765 81.576L69.1685 82.744L68.7045 81.24L71.6965 79.64H72.5285V90.216H70.7845ZM69.0085 91V89.336H74.3525V91H69.0085ZM76.8005 91L76.2725 89.688L79.6965 85.832C79.8778 85.64 80.0645 85.4213 80.2565 85.176C80.4592 84.92 80.6512 84.6587 80.8325 84.392C81.0138 84.1253 81.1578 83.864 81.2645 83.608C81.3818 83.3413 81.4405 83.0907 81.4405 82.856C81.4405 82.5147 81.3712 82.2267 81.2325 81.992C81.1045 81.7467 80.9125 81.56 80.6565 81.432C80.4112 81.304 80.1125 81.24 79.7605 81.24C79.4512 81.24 79.1472 81.3307 78.8485 81.512C78.5498 81.6933 78.2778 81.9493 78.0325 82.28C77.7872 82.6107 77.5952 82.9947 77.4565 83.432L76.1285 82.6C76.3098 81.9813 76.5818 81.4533 76.9445 81.016C77.3178 80.568 77.7605 80.2267 78.2725 79.992C78.7952 79.7573 79.3605 79.64 79.9685 79.64C80.5978 79.64 81.1578 79.7733 81.6485 80.04C82.1392 80.296 82.5232 80.6587 82.8005 81.128C83.0778 81.5867 83.2165 82.12 83.2165 82.728C83.2165 82.9733 83.1898 83.224 83.1365 83.48C83.0832 83.736 82.9978 84.0027 82.8805 84.28C82.7632 84.5467 82.6138 84.8293 82.4325 85.128C82.2512 85.416 82.0325 85.72 81.7765 86.04C81.5312 86.36 81.2485 86.696 80.9285 87.048L78.3845 89.816L78.0645 89.336H83.5685V91H76.8005ZM88.7021 91.048C88.0088 91.048 87.3741 90.904 86.7981 90.616C86.2328 90.3173 85.7795 89.9227 85.4381 89.432C85.0968 88.9413 84.9261 88.3973 84.9261 87.8C84.9261 87.4693 84.9688 87.16 85.0541 86.872C85.1501 86.5733 85.2888 86.3013 85.4701 86.056C85.6621 85.8107 85.8915 85.5867 86.1581 85.384C86.4248 85.1813 86.7341 85 87.0861 84.84L86.9901 85.176C86.7128 85.0693 86.4621 84.9413 86.2381 84.792C86.0248 84.632 85.8381 84.4507 85.6781 84.248C85.5181 84.0453 85.3955 83.8267 85.3101 83.592C85.2355 83.3573 85.1981 83.112 85.1981 82.856C85.1981 82.2907 85.3528 81.7787 85.6621 81.32C85.9821 80.8613 86.4035 80.4933 86.9261 80.216C87.4595 79.9387 88.0515 79.8 88.7021 79.8C89.3528 79.8 89.9395 79.9387 90.4621 80.216C90.9955 80.4933 91.4168 80.8613 91.7261 81.32C92.0461 81.7787 92.2061 82.2907 92.2061 82.856C92.2061 83.112 92.1635 83.3573 92.0781 83.592C92.0035 83.8267 91.8915 84.04 91.7421 84.232C91.5928 84.424 91.4008 84.6 91.1661 84.76C90.9421 84.92 90.6861 85.0587 90.3981 85.176L90.3501 84.904C90.6701 85.032 90.9581 85.1973 91.2141 85.4C91.4808 85.6027 91.7101 85.832 91.9021 86.088C92.0941 86.344 92.2381 86.616 92.3341 86.904C92.4408 87.192 92.4941 87.4907 92.4941 87.8C92.4941 88.408 92.3235 88.9573 91.9821 89.448C91.6408 89.9387 91.1821 90.328 90.6061 90.616C90.0408 90.904 89.4061 91.048 88.7021 91.048ZM88.7021 89.448C89.0968 89.448 89.4488 89.3733 89.7581 89.224C90.0781 89.0747 90.3288 88.872 90.5101 88.616C90.6915 88.36 90.7821 88.0667 90.7821 87.736C90.7821 87.384 90.6915 87.0747 90.5101 86.808C90.3288 86.5307 90.0781 86.312 89.7581 86.152C89.4488 85.992 89.0968 85.912 88.7021 85.912C88.3075 85.912 87.9555 85.992 87.6461 86.152C87.3368 86.312 87.0915 86.5307 86.9101 86.808C86.7288 87.0747 86.6381 87.384 86.6381 87.736C86.6381 88.056 86.7288 88.344 86.9101 88.6C87.0915 88.856 87.3368 89.064 87.6461 89.224C87.9555 89.3733 88.3075 89.448 88.7021 89.448ZM88.7021 84.376C89.0435 84.376 89.3475 84.312 89.6141 84.184C89.8915 84.056 90.1048 83.8853 90.2541 83.672C90.4141 83.448 90.4941 83.192 90.4941 82.904C90.4941 82.616 90.4141 82.36 90.2541 82.136C90.1048 81.912 89.8915 81.736 89.6141 81.608C89.3475 81.4693 89.0435 81.4 88.7021 81.4C88.3608 81.4 88.0515 81.4693 87.7741 81.608C87.5075 81.736 87.2941 81.912 87.1341 82.136C86.9848 82.36 86.9101 82.616 86.9101 82.904C86.9101 83.192 86.9848 83.448 87.1341 83.672C87.2941 83.8853 87.5075 84.056 87.7741 84.184C88.0515 84.312 88.3608 84.376 88.7021 84.376ZM94.1918 87.24V85.608H98.7998V87.24H94.1918ZM106.217 91.16C105.406 91.16 104.649 91.016 103.945 90.728C103.241 90.4293 102.622 90.0187 102.089 89.496C101.555 88.9733 101.139 88.3653 100.841 87.672C100.553 86.968 100.409 86.2107 100.409 85.4C100.409 84.6 100.553 83.8533 100.841 83.16C101.139 82.4667 101.55 81.864 102.073 81.352C102.606 80.8293 103.225 80.424 103.929 80.136C104.633 79.848 105.39 79.704 106.201 79.704C106.766 79.704 107.315 79.784 107.849 79.944C108.393 80.104 108.883 80.328 109.321 80.616C109.758 80.904 110.115 81.2347 110.393 81.608L109.273 82.776C108.953 82.4667 108.622 82.2107 108.281 82.008C107.95 81.8053 107.609 81.6507 107.257 81.544C106.905 81.4373 106.553 81.384 106.201 81.384C105.625 81.384 105.091 81.4853 104.601 81.688C104.121 81.8907 103.694 82.1733 103.321 82.536C102.958 82.8987 102.675 83.3253 102.473 83.816C102.27 84.296 102.169 84.824 102.169 85.4C102.169 85.9547 102.275 86.4827 102.489 86.984C102.702 87.4747 102.995 87.9067 103.369 88.28C103.753 88.6533 104.19 88.9467 104.681 89.16C105.182 89.3733 105.71 89.48 106.265 89.48C106.681 89.48 107.075 89.4213 107.449 89.304C107.822 89.176 108.153 89 108.441 88.776C108.729 88.552 108.953 88.296 109.113 88.008C109.273 87.7093 109.353 87.3947 109.353 87.064V86.744L109.593 86.968H106.169V85.256H111.129C111.15 85.3733 111.166 85.4907 111.177 85.608C111.187 85.7147 111.193 85.8213 111.193 85.928C111.203 86.024 111.209 86.12 111.209 86.216C111.209 86.952 111.081 87.624 110.825 88.232C110.569 88.8293 110.211 89.3467 109.753 89.784C109.305 90.2213 108.777 90.5627 108.169 90.808C107.571 91.0427 106.921 91.16 106.217 91.16ZM118.003 91.16C117.224 91.16 116.509 91.0213 115.859 90.744C115.208 90.4667 114.643 90.072 114.163 89.56C113.683 89.0373 113.309 88.424 113.043 87.72C112.787 87.016 112.659 86.2427 112.659 85.4C112.659 84.6 112.797 83.8587 113.075 83.176C113.363 82.4827 113.757 81.8747 114.259 81.352C114.76 80.8293 115.341 80.424 116.003 80.136C116.664 79.848 117.379 79.704 118.147 79.704C118.691 79.704 119.219 79.7893 119.731 79.96C120.253 80.12 120.723 80.3493 121.139 80.648C121.565 80.936 121.912 81.2667 122.179 81.64L121.027 82.84C120.717 82.5307 120.403 82.2747 120.083 82.072C119.773 81.8587 119.453 81.6987 119.123 81.592C118.803 81.4853 118.477 81.432 118.147 81.432C117.624 81.432 117.133 81.5333 116.675 81.736C116.227 81.928 115.832 82.2 115.491 82.552C115.16 82.904 114.899 83.3253 114.707 83.816C114.515 84.296 114.419 84.824 114.419 85.4C114.419 86.008 114.509 86.5627 114.691 87.064C114.883 87.5547 115.149 87.976 115.491 88.328C115.832 88.68 116.237 88.952 116.707 89.144C117.187 89.3253 117.715 89.416 118.291 89.416C118.643 89.416 118.989 89.368 119.331 89.272C119.672 89.176 119.992 89.0373 120.291 88.856C120.589 88.6747 120.861 88.4613 121.107 88.216L121.971 89.624C121.725 89.912 121.389 90.1733 120.963 90.408C120.547 90.6427 120.077 90.8293 119.555 90.968C119.043 91.096 118.525 91.16 118.003 91.16ZM124.318 91V79.8H126.014L130.094 86.44L129.278 86.424L133.406 79.8H135.006V91H133.278V86.408C133.278 85.448 133.299 84.584 133.342 83.816C133.395 83.048 133.481 82.2853 133.598 81.528L133.822 82.12L130.158 87.784H129.102L125.55 82.184L125.726 81.528C125.843 82.2427 125.923 82.9787 125.966 83.736C126.019 84.4827 126.046 85.3733 126.046 86.408V91H124.318Z" fill="white"/>
<path d="M30.4 121L34.736 109.8H36.496L40.8 121H38.96L36.4 114.248C36.368 114.173 36.304 113.992 36.208 113.704C36.1227 113.416 36.0213 113.096 35.904 112.744C35.7867 112.392 35.68 112.072 35.584 111.784C35.488 111.485 35.424 111.293 35.392 111.208L35.76 111.192C35.696 111.373 35.616 111.603 35.52 111.88C35.4347 112.157 35.3387 112.451 35.232 112.76C35.136 113.069 35.04 113.363 34.944 113.64C34.848 113.907 34.768 114.131 34.704 114.312L32.16 121H30.4ZM32.32 118.216L32.96 116.552H38.048L38.784 118.216H32.32ZM42.7711 121V109.8H49.8271V111.464H44.4991V119.336H49.8271V121H42.7711ZM43.5551 116.088V114.424H48.9471V116.088H43.5551ZM56.0553 121.16C55.4473 121.16 54.8819 121.08 54.3593 120.92C53.8473 120.76 53.3779 120.52 52.9513 120.2C52.5353 119.869 52.1619 119.464 51.8313 118.984L53.0153 117.624C53.5379 118.371 54.0393 118.888 54.5193 119.176C54.9993 119.464 55.5699 119.608 56.2313 119.608C56.6366 119.608 57.0046 119.544 57.3353 119.416C57.6659 119.288 57.9273 119.112 58.1193 118.888C58.3113 118.664 58.4073 118.408 58.4073 118.12C58.4073 117.928 58.3753 117.747 58.3113 117.576C58.2473 117.405 58.1459 117.251 58.0073 117.112C57.8793 116.973 57.7086 116.845 57.4953 116.728C57.2926 116.611 57.0526 116.509 56.7753 116.424C56.4979 116.328 56.1779 116.248 55.8153 116.184C55.2393 116.067 54.7379 115.912 54.3113 115.72C53.8846 115.528 53.5273 115.288 53.2393 115C52.9513 114.712 52.7379 114.387 52.5993 114.024C52.4606 113.651 52.3913 113.235 52.3913 112.776C52.3913 112.328 52.4873 111.912 52.6793 111.528C52.8819 111.144 53.1539 110.813 53.4953 110.536C53.8473 110.248 54.2579 110.029 54.7273 109.88C55.1966 109.72 55.7033 109.64 56.2473 109.64C56.8233 109.64 57.3513 109.715 57.8313 109.864C58.3113 110.013 58.7379 110.237 59.1112 110.536C59.4846 110.824 59.7939 111.181 60.0393 111.608L58.8233 112.808C58.6099 112.456 58.3699 112.163 58.1033 111.928C57.8366 111.683 57.5433 111.501 57.2233 111.384C56.9033 111.256 56.5619 111.192 56.1993 111.192C55.7833 111.192 55.4206 111.256 55.1113 111.384C54.8019 111.512 54.5566 111.693 54.3753 111.928C54.2046 112.152 54.1193 112.419 54.1193 112.728C54.1193 112.952 54.1619 113.16 54.2473 113.352C54.3326 113.533 54.4606 113.699 54.6313 113.848C54.8126 113.987 55.0526 114.115 55.3513 114.232C55.6499 114.339 56.0073 114.435 56.4233 114.52C57.0099 114.648 57.5326 114.813 57.9913 115.016C58.4499 115.208 58.8393 115.437 59.1593 115.704C59.4793 115.971 59.7193 116.269 59.8793 116.6C60.0499 116.931 60.1353 117.288 60.1353 117.672C60.1353 118.387 59.9699 119.005 59.6393 119.528C59.3086 120.051 58.8393 120.456 58.2313 120.744C57.6233 121.021 56.8979 121.16 56.0553 121.16ZM61.8636 117.24V115.608H66.4716V117.24H61.8636ZM68.8005 121L68.2725 119.688L71.6965 115.832C71.8778 115.64 72.0645 115.421 72.2565 115.176C72.4592 114.92 72.6512 114.659 72.8325 114.392C73.0138 114.125 73.1578 113.864 73.2645 113.608C73.3818 113.341 73.4405 113.091 73.4405 112.856C73.4405 112.515 73.3712 112.227 73.2325 111.992C73.1045 111.747 72.9125 111.56 72.6565 111.432C72.4112 111.304 72.1125 111.24 71.7605 111.24C71.4512 111.24 71.1472 111.331 70.8485 111.512C70.5498 111.693 70.2778 111.949 70.0325 112.28C69.7872 112.611 69.5952 112.995 69.4565 113.432L68.1285 112.6C68.3098 111.981 68.5818 111.453 68.9445 111.016C69.3178 110.568 69.7605 110.227 70.2725 109.992C70.7952 109.757 71.3605 109.64 71.9685 109.64C72.5978 109.64 73.1578 109.773 73.6485 110.04C74.1392 110.296 74.5232 110.659 74.8005 111.128C75.0778 111.587 75.2165 112.12 75.2165 112.728C75.2165 112.973 75.1898 113.224 75.1365 113.48C75.0832 113.736 74.9978 114.003 74.8805 114.28C74.7632 114.547 74.6138 114.829 74.4325 115.128C74.2512 115.416 74.0325 115.72 73.7765 116.04C73.5312 116.36 73.2485 116.696 72.9285 117.048L70.3845 119.816L70.0645 119.336H75.5685V121H68.8005ZM80.1901 121.112C79.4541 121.112 78.7875 120.947 78.1901 120.616C77.5928 120.275 77.0968 119.789 76.7021 119.16L77.6621 118.088C78.1635 118.643 78.6008 119.021 78.9741 119.224C79.3475 119.427 79.7528 119.528 80.1901 119.528C80.6275 119.528 81.0221 119.432 81.3741 119.24C81.7261 119.048 82.0035 118.787 82.2061 118.456C82.4195 118.125 82.5261 117.757 82.5261 117.352C82.5261 116.925 82.4248 116.547 82.2221 116.216C82.0301 115.875 81.7688 115.608 81.4381 115.416C81.1075 115.213 80.7341 115.112 80.3181 115.112C80.1155 115.112 79.9235 115.128 79.7421 115.16C79.5608 115.181 79.3421 115.24 79.0861 115.336C78.8301 115.432 78.4941 115.581 78.0781 115.784L77.1661 114.552L77.8221 109.8H83.8701V111.4H78.9101L79.2461 111.096L78.7181 114.648L78.3181 114.184C78.4248 114.077 78.6061 113.976 78.8621 113.88C79.1181 113.773 79.4008 113.688 79.7101 113.624C80.0301 113.549 80.3341 113.512 80.6221 113.512C81.3048 113.512 81.9128 113.672 82.4461 113.992C82.9901 114.301 83.4168 114.733 83.7261 115.288C84.0461 115.843 84.2061 116.477 84.2061 117.192C84.2061 117.928 84.0301 118.595 83.6781 119.192C83.3261 119.779 82.8461 120.248 82.2381 120.6C81.6301 120.941 80.9475 121.112 80.1901 121.112ZM89.6999 121C89.1452 121 88.6279 120.904 88.1479 120.712C87.6785 120.509 87.2679 120.232 86.9159 119.88C86.5745 119.528 86.3025 119.112 86.0999 118.632C85.9079 118.152 85.8119 117.624 85.8119 117.048C85.8119 116.76 85.8492 116.44 85.9239 116.088C86.0092 115.725 86.1319 115.331 86.2919 114.904C86.4625 114.477 86.6652 114.029 86.8999 113.56C87.1345 113.08 87.4065 112.584 87.7159 112.072L89.1719 109.608H90.8519L90.9159 109.768L89.1559 112.728C88.8359 113.272 88.5479 113.789 88.2919 114.28C88.0465 114.771 87.8385 115.235 87.6679 115.672C87.4972 116.099 87.3692 116.488 87.2839 116.84L86.8999 115.192C87.1025 114.861 87.3212 114.573 87.5559 114.328C87.7905 114.072 88.0412 113.859 88.3079 113.688C88.5852 113.517 88.8732 113.389 89.1719 113.304C89.4705 113.219 89.7799 113.176 90.0999 113.176C90.7185 113.176 91.2839 113.347 91.7959 113.688C92.3185 114.019 92.7345 114.461 93.0439 115.016C93.3639 115.571 93.5239 116.179 93.5239 116.84C93.5239 117.64 93.3585 118.355 93.0279 118.984C92.7079 119.603 92.2599 120.093 91.6839 120.456C91.1079 120.819 90.4465 121 89.6999 121ZM89.6999 119.4C90.1159 119.4 90.4839 119.304 90.8039 119.112C91.1345 118.909 91.3905 118.632 91.5719 118.28C91.7639 117.917 91.8599 117.507 91.8599 117.048C91.8599 116.653 91.7639 116.285 91.5719 115.944C91.3799 115.592 91.1239 115.309 90.8039 115.096C90.4839 114.883 90.1265 114.776 89.7319 114.776C89.2945 114.776 88.9052 114.877 88.5639 115.08C88.2225 115.283 87.9559 115.555 87.7639 115.896C87.5719 116.237 87.4759 116.616 87.4759 117.032C87.4759 117.48 87.5719 117.885 87.7639 118.248C87.9559 118.6 88.2172 118.883 88.5479 119.096C88.8785 119.299 89.2625 119.4 89.6999 119.4ZM94.9261 117.24V115.608H99.5341V117.24H94.9261ZM106.951 121.16C106.14 121.16 105.383 121.016 104.679 120.728C103.975 120.429 103.356 120.019 102.823 119.496C102.29 118.973 101.874 118.365 101.575 117.672C101.287 116.968 101.143 116.211 101.143 115.4C101.143 114.6 101.287 113.853 101.575 113.16C101.874 112.467 102.284 111.864 102.807 111.352C103.34 110.829 103.959 110.424 104.663 110.136C105.367 109.848 106.124 109.704 106.935 109.704C107.5 109.704 108.05 109.784 108.583 109.944C109.127 110.104 109.618 110.328 110.055 110.616C110.492 110.904 110.85 111.235 111.127 111.608L110.007 112.776C109.687 112.467 109.356 112.211 109.015 112.008C108.684 111.805 108.343 111.651 107.991 111.544C107.639 111.437 107.287 111.384 106.935 111.384C106.359 111.384 105.826 111.485 105.335 111.688C104.855 111.891 104.428 112.173 104.055 112.536C103.692 112.899 103.41 113.325 103.207 113.816C103.004 114.296 102.903 114.824 102.903 115.4C102.903 115.955 103.01 116.483 103.223 116.984C103.436 117.475 103.73 117.907 104.103 118.28C104.487 118.653 104.924 118.947 105.415 119.16C105.916 119.373 106.444 119.48 106.999 119.48C107.415 119.48 107.81 119.421 108.183 119.304C108.556 119.176 108.887 119 109.175 118.776C109.463 118.552 109.687 118.296 109.847 118.008C110.007 117.709 110.087 117.395 110.087 117.064V116.744L110.327 116.968H106.903V115.256H111.863C111.884 115.373 111.9 115.491 111.911 115.608C111.922 115.715 111.927 115.821 111.927 115.928C111.938 116.024 111.943 116.12 111.943 116.216C111.943 116.952 111.815 117.624 111.559 118.232C111.303 118.829 110.946 119.347 110.487 119.784C110.039 120.221 109.511 120.563 108.903 120.808C108.306 121.043 107.655 121.16 106.951 121.16ZM114.193 121V109.8H118.865C119.58 109.8 120.182 109.907 120.673 110.12C121.164 110.333 121.532 110.653 121.777 111.08C122.033 111.496 122.161 112.008 122.161 112.616C122.161 113.224 121.99 113.741 121.649 114.168C121.318 114.595 120.854 114.888 120.257 115.048V114.728C120.758 114.835 121.196 115.027 121.569 115.304C121.942 115.571 122.23 115.907 122.433 116.312C122.646 116.717 122.753 117.181 122.753 117.704C122.753 118.237 122.668 118.712 122.497 119.128C122.337 119.533 122.092 119.875 121.761 120.152C121.441 120.429 121.052 120.643 120.593 120.792C120.134 120.931 119.612 121 119.025 121H114.193ZM115.921 119.336H118.929C119.366 119.336 119.734 119.272 120.033 119.144C120.342 119.016 120.577 118.829 120.737 118.584C120.908 118.328 120.993 118.024 120.993 117.672C120.993 117.341 120.902 117.059 120.721 116.824C120.55 116.589 120.305 116.413 119.985 116.296C119.665 116.168 119.286 116.104 118.849 116.104H115.921V119.336ZM115.921 114.44H118.769C119.089 114.44 119.372 114.376 119.617 114.248C119.873 114.12 120.07 113.944 120.209 113.72C120.358 113.496 120.433 113.24 120.433 112.952C120.433 112.472 120.273 112.104 119.953 111.848C119.633 111.592 119.174 111.464 118.577 111.464H115.921V114.44ZM129.628 121.16C128.849 121.16 128.134 121.021 127.484 120.744C126.833 120.467 126.268 120.072 125.788 119.56C125.308 119.037 124.934 118.424 124.668 117.72C124.412 117.016 124.284 116.243 124.284 115.4C124.284 114.6 124.422 113.859 124.7 113.176C124.988 112.483 125.382 111.875 125.884 111.352C126.385 110.829 126.966 110.424 127.628 110.136C128.289 109.848 129.004 109.704 129.772 109.704C130.316 109.704 130.844 109.789 131.356 109.96C131.878 110.12 132.348 110.349 132.764 110.648C133.19 110.936 133.537 111.267 133.804 111.64L132.652 112.84C132.342 112.531 132.028 112.275 131.708 112.072C131.398 111.859 131.078 111.699 130.748 111.592C130.428 111.485 130.102 111.432 129.772 111.432C129.249 111.432 128.758 111.533 128.3 111.736C127.852 111.928 127.457 112.2 127.116 112.552C126.785 112.904 126.524 113.325 126.332 113.816C126.14 114.296 126.044 114.824 126.044 115.4C126.044 116.008 126.134 116.563 126.316 117.064C126.508 117.555 126.774 117.976 127.116 118.328C127.457 118.68 127.862 118.952 128.332 119.144C128.812 119.325 129.34 119.416 129.916 119.416C130.268 119.416 130.614 119.368 130.956 119.272C131.297 119.176 131.617 119.037 131.916 118.856C132.214 118.675 132.486 118.461 132.732 118.216L133.596 119.624C133.35 119.912 133.014 120.173 132.588 120.408C132.172 120.643 131.702 120.829 131.18 120.968C130.668 121.096 130.15 121.16 129.628 121.16Z" fill="white"/>
<path d="M30.4 151L34.736 139.8H36.496L40.8 151H38.96L36.4 144.248C36.368 144.173 36.304 143.992 36.208 143.704C36.1227 143.416 36.0213 143.096 35.904 142.744C35.7867 142.392 35.68 142.072 35.584 141.784C35.488 141.485 35.424 141.293 35.392 141.208L35.76 141.192C35.696 141.373 35.616 141.603 35.52 141.88C35.4347 142.157 35.3387 142.451 35.232 142.76C35.136 143.069 35.04 143.363 34.944 143.64C34.848 143.907 34.768 144.131 34.704 144.312L32.16 151H30.4ZM32.32 148.216L32.96 146.552H38.048L38.784 148.216H32.32ZM42.7711 151V139.8H49.8271V141.464H44.4991V149.336H49.8271V151H42.7711ZM43.5551 146.088V144.424H48.9471V146.088H43.5551ZM56.0553 151.16C55.4473 151.16 54.8819 151.08 54.3593 150.92C53.8473 150.76 53.3779 150.52 52.9513 150.2C52.5353 149.869 52.1619 149.464 51.8313 148.984L53.0153 147.624C53.5379 148.371 54.0393 148.888 54.5193 149.176C54.9993 149.464 55.5699 149.608 56.2313 149.608C56.6366 149.608 57.0046 149.544 57.3353 149.416C57.6659 149.288 57.9273 149.112 58.1193 148.888C58.3113 148.664 58.4073 148.408 58.4073 148.12C58.4073 147.928 58.3753 147.747 58.3113 147.576C58.2473 147.405 58.1459 147.251 58.0073 147.112C57.8793 146.973 57.7086 146.845 57.4953 146.728C57.2926 146.611 57.0526 146.509 56.7753 146.424C56.4979 146.328 56.1779 146.248 55.8153 146.184C55.2393 146.067 54.7379 145.912 54.3113 145.72C53.8846 145.528 53.5273 145.288 53.2393 145C52.9513 144.712 52.7379 144.387 52.5993 144.024C52.4606 143.651 52.3913 143.235 52.3913 142.776C52.3913 142.328 52.4873 141.912 52.6793 141.528C52.8819 141.144 53.1539 140.813 53.4953 140.536C53.8473 140.248 54.2579 140.029 54.7273 139.88C55.1966 139.72 55.7033 139.64 56.2473 139.64C56.8233 139.64 57.3513 139.715 57.8313 139.864C58.3113 140.013 58.7379 140.237 59.1112 140.536C59.4846 140.824 59.7939 141.181 60.0393 141.608L58.8233 142.808C58.6099 142.456 58.3699 142.163 58.1033 141.928C57.8366 141.683 57.5433 141.501 57.2233 141.384C56.9033 141.256 56.5619 141.192 56.1993 141.192C55.7833 141.192 55.4206 141.256 55.1113 141.384C54.8019 141.512 54.5566 141.693 54.3753 141.928C54.2046 142.152 54.1193 142.419 54.1193 142.728C54.1193 142.952 54.1619 143.16 54.2473 143.352C54.3326 143.533 54.4606 143.699 54.6313 143.848C54.8126 143.987 55.0526 144.115 55.3513 144.232C55.6499 144.339 56.0073 144.435 56.4233 144.52C57.0099 144.648 57.5326 144.813 57.9913 145.016C58.4499 145.208 58.8393 145.437 59.1593 145.704C59.4793 145.971 59.7193 146.269 59.8793 146.6C60.0499 146.931 60.1353 147.288 60.1353 147.672C60.1353 148.387 59.9699 149.005 59.6393 149.528C59.3086 150.051 58.8393 150.456 58.2313 150.744C57.6233 151.021 56.8979 151.16 56.0553 151.16ZM61.8636 147.24V145.608H66.4716V147.24H61.8636ZM70.7845 150.216V141.128L71.3765 141.576L69.1685 142.744L68.7045 141.24L71.6965 139.64H72.5285V150.216H70.7845ZM69.0085 151V149.336H74.3525V151H69.0085ZM78.9605 151L78.8965 150.84L82.2245 143.768L82.2725 145.096C82.0805 145.416 81.8672 145.699 81.6325 145.944C81.4085 146.189 81.1578 146.403 80.8805 146.584C80.6138 146.755 80.3365 146.888 80.0485 146.984C79.7605 147.069 79.4672 147.112 79.1685 147.112C78.5605 147.112 78.0005 146.952 77.4885 146.632C76.9765 146.312 76.5658 145.885 76.2565 145.352C75.9472 144.819 75.7925 144.237 75.7925 143.608C75.7925 142.851 75.9632 142.173 76.3045 141.576C76.6458 140.968 77.1098 140.488 77.6965 140.136C78.2938 139.784 78.9605 139.608 79.6965 139.608C80.2298 139.608 80.7312 139.704 81.2005 139.896C81.6698 140.088 82.0805 140.36 82.4325 140.712C82.7845 141.053 83.0618 141.453 83.2645 141.912C83.4672 142.36 83.5685 142.84 83.5685 143.352C83.5685 143.619 83.5418 143.907 83.4885 144.216C83.4352 144.515 83.3445 144.856 83.2165 145.24C83.0992 145.613 82.9392 146.045 82.7365 146.536C82.5338 147.016 82.2832 147.576 81.9845 148.216L80.6565 151H78.9605ZM79.5365 145.512C79.9525 145.512 80.3258 145.421 80.6565 145.24C80.9872 145.048 81.2432 144.797 81.4245 144.488C81.6165 144.168 81.7125 143.811 81.7125 143.416C81.7125 143 81.6218 142.627 81.4405 142.296C81.2592 141.955 81.0032 141.688 80.6725 141.496C80.3525 141.304 79.9845 141.208 79.5685 141.208C79.1845 141.208 78.8432 141.304 78.5445 141.496C78.2458 141.677 78.0058 141.933 77.8245 142.264C77.6538 142.584 77.5685 142.963 77.5685 143.4C77.5685 143.773 77.6538 144.12 77.8245 144.44C78.0058 144.76 78.2458 145.021 78.5445 145.224C78.8432 145.416 79.1738 145.512 79.5365 145.512ZM85.613 151L85.085 149.688L88.509 145.832C88.6903 145.64 88.877 145.421 89.069 145.176C89.2717 144.92 89.4637 144.659 89.645 144.392C89.8263 144.125 89.9703 143.864 90.077 143.608C90.1943 143.341 90.253 143.091 90.253 142.856C90.253 142.515 90.1837 142.227 90.045 141.992C89.917 141.747 89.725 141.56 89.469 141.432C89.2237 141.304 88.925 141.24 88.573 141.24C88.2637 141.24 87.9597 141.331 87.661 141.512C87.3623 141.693 87.0903 141.949 86.845 142.28C86.5997 142.611 86.4077 142.995 86.269 143.432L84.941 142.6C85.1223 141.981 85.3943 141.453 85.757 141.016C86.1303 140.568 86.573 140.227 87.085 139.992C87.6077 139.757 88.173 139.64 88.781 139.64C89.4103 139.64 89.9703 139.773 90.461 140.04C90.9517 140.296 91.3357 140.659 91.613 141.128C91.8903 141.587 92.029 142.12 92.029 142.728C92.029 142.973 92.0023 143.224 91.949 143.48C91.8957 143.736 91.8103 144.003 91.693 144.28C91.5757 144.547 91.4263 144.829 91.245 145.128C91.0637 145.416 90.845 145.72 90.589 146.04C90.3437 146.36 90.061 146.696 89.741 147.048L87.197 149.816L86.877 149.336H92.381V151H85.613ZM93.7386 147.24V145.608H98.3466V147.24H93.7386ZM105.3 151.16C104.521 151.16 103.806 151.021 103.156 150.744C102.505 150.467 101.94 150.072 101.46 149.56C100.98 149.037 100.606 148.424 100.34 147.72C100.084 147.016 99.9555 146.243 99.9555 145.4C99.9555 144.6 100.094 143.859 100.372 143.176C100.66 142.483 101.054 141.875 101.556 141.352C102.057 140.829 102.638 140.424 103.299 140.136C103.961 139.848 104.676 139.704 105.444 139.704C105.988 139.704 106.516 139.789 107.028 139.96C107.55 140.12 108.02 140.349 108.436 140.648C108.862 140.936 109.209 141.267 109.476 141.64L108.324 142.84C108.014 142.531 107.7 142.275 107.38 142.072C107.07 141.859 106.75 141.699 106.42 141.592C106.1 141.485 105.774 141.432 105.444 141.432C104.921 141.432 104.43 141.533 103.972 141.736C103.524 141.928 103.129 142.2 102.788 142.552C102.457 142.904 102.196 143.325 102.004 143.816C101.812 144.296 101.716 144.824 101.716 145.4C101.716 146.008 101.806 146.563 101.988 147.064C102.18 147.555 102.446 147.976 102.788 148.328C103.129 148.68 103.534 148.952 104.004 149.144C104.484 149.325 105.012 149.416 105.588 149.416C105.94 149.416 106.286 149.368 106.628 149.272C106.969 149.176 107.289 149.037 107.588 148.856C107.886 148.675 108.158 148.461 108.404 148.216L109.268 149.624C109.022 149.912 108.686 150.173 108.26 150.408C107.844 150.643 107.374 150.829 106.852 150.968C106.34 151.096 105.822 151.16 105.3 151.16ZM111.615 151V139.8H116.287C117.002 139.8 117.604 139.907 118.095 140.12C118.586 140.333 118.954 140.653 119.199 141.08C119.455 141.496 119.583 142.008 119.583 142.616C119.583 143.224 119.412 143.741 119.071 144.168C118.74 144.595 118.276 144.888 117.679 145.048V144.728C118.18 144.835 118.618 145.027 118.991 145.304C119.364 145.571 119.652 145.907 119.855 146.312C120.068 146.717 120.175 147.181 120.175 147.704C120.175 148.237 120.09 148.712 119.919 149.128C119.759 149.533 119.514 149.875 119.183 150.152C118.863 150.429 118.474 150.643 118.015 150.792C117.556 150.931 117.034 151 116.447 151H111.615ZM113.343 149.336H116.351C116.788 149.336 117.156 149.272 117.455 149.144C117.764 149.016 117.999 148.829 118.159 148.584C118.33 148.328 118.415 148.024 118.415 147.672C118.415 147.341 118.324 147.059 118.143 146.824C117.972 146.589 117.727 146.413 117.407 146.296C117.087 146.168 116.708 146.104 116.271 146.104H113.343V149.336ZM113.343 144.44H116.191C116.511 144.44 116.794 144.376 117.039 144.248C117.295 144.12 117.492 143.944 117.631 143.72C117.78 143.496 117.855 143.24 117.855 142.952C117.855 142.472 117.695 142.104 117.375 141.848C117.055 141.592 116.596 141.464 115.999 141.464H113.343V144.44ZM127.05 151.16C126.271 151.16 125.556 151.021 124.906 150.744C124.255 150.467 123.69 150.072 123.21 149.56C122.73 149.037 122.356 148.424 122.09 147.72C121.834 147.016 121.706 146.243 121.706 145.4C121.706 144.6 121.844 143.859 122.122 143.176C122.41 142.483 122.804 141.875 123.306 141.352C123.807 140.829 124.388 140.424 125.049 140.136C125.711 139.848 126.426 139.704 127.194 139.704C127.738 139.704 128.266 139.789 128.778 139.96C129.3 140.12 129.77 140.349 130.186 140.648C130.612 140.936 130.959 141.267 131.226 141.64L130.074 142.84C129.764 142.531 129.45 142.275 129.13 142.072C128.82 141.859 128.5 141.699 128.17 141.592C127.85 141.485 127.524 141.432 127.194 141.432C126.671 141.432 126.18 141.533 125.722 141.736C125.274 141.928 124.879 142.2 124.538 142.552C124.207 142.904 123.946 143.325 123.754 143.816C123.562 144.296 123.466 144.824 123.466 145.4C123.466 146.008 123.556 146.563 123.738 147.064C123.93 147.555 124.196 147.976 124.538 148.328C124.879 148.68 125.284 148.952 125.754 149.144C126.234 149.325 126.762 149.416 127.338 149.416C127.69 149.416 128.036 149.368 128.378 149.272C128.719 149.176 129.039 149.037 129.338 148.856C129.636 148.675 129.908 148.461 130.154 148.216L131.018 149.624C130.772 149.912 130.436 150.173 130.01 150.408C129.594 150.643 129.124 150.829 128.602 150.968C128.09 151.096 127.572 151.16 127.05 151.16Z" fill="white"/>
<g style="mix-blend-mode:screen">
<path d="M0 47C0 42.5817 3.58172 39 8 39H162C166.418 39 170 42.5817 170 47V69H0V47Z" fill="#00FF70" fill-opacity="0.1"/>
</g>
</svg>
