<svg width="220" height="141" viewBox="0 0 220 141" fill="none" xmlns="http://www.w3.org/2000/svg">
<rect x="1" y="1" width="218" height="37" rx="9" fill="#161817"/>
<rect x="1" y="1" width="218" height="37" rx="9" stroke="#7F7F7F" stroke-width="2"/>
<path d="M18.66 26.108C17.688 26.108 16.818 25.898 16.05 25.478C15.282 25.046 14.676 24.458 14.232 23.714C13.8 22.958 13.584 22.106 13.584 21.158V13.382H15.528V20.996C15.528 21.608 15.672 22.16 15.96 22.652C16.248 23.132 16.626 23.516 17.094 23.804C17.574 24.092 18.096 24.236 18.66 24.236C19.26 24.236 19.8 24.092 20.28 23.804C20.772 23.516 21.162 23.132 21.45 22.652C21.738 22.16 21.882 21.608 21.882 20.996V13.382H23.736V21.158C23.736 22.106 23.514 22.958 23.07 23.714C22.638 24.458 22.038 25.046 21.27 25.478C20.502 25.898 19.632 26.108 18.66 26.108ZM29.7702 26.18C28.9782 26.18 28.2642 26.042 27.6282 25.766C26.9922 25.49 26.4642 25.082 26.0442 24.542L27.3042 23.462C27.6642 23.882 28.0542 24.188 28.4742 24.38C28.9062 24.56 29.3922 24.65 29.9322 24.65C30.1482 24.65 30.3462 24.626 30.5262 24.578C30.7182 24.518 30.8802 24.434 31.0122 24.326C31.1562 24.218 31.2642 24.092 31.3362 23.948C31.4082 23.792 31.4442 23.624 31.4442 23.444C31.4442 23.132 31.3302 22.88 31.1022 22.688C30.9822 22.604 30.7902 22.514 30.5262 22.418C30.2742 22.31 29.9442 22.202 29.5362 22.094C28.8402 21.914 28.2702 21.71 27.8262 21.482C27.3822 21.254 27.0402 20.996 26.8002 20.708C26.6202 20.48 26.4882 20.234 26.4042 19.97C26.3202 19.694 26.2782 19.394 26.2782 19.07C26.2782 18.674 26.3622 18.314 26.5302 17.99C26.7102 17.654 26.9502 17.366 27.2502 17.126C27.5622 16.874 27.9222 16.682 28.3302 16.55C28.7502 16.418 29.1942 16.352 29.6622 16.352C30.1062 16.352 30.5442 16.412 30.9762 16.532C31.4202 16.652 31.8282 16.826 32.2002 17.054C32.5722 17.282 32.8842 17.552 33.1362 17.864L32.0742 19.034C31.8462 18.806 31.5942 18.608 31.3182 18.44C31.0542 18.26 30.7842 18.122 30.5082 18.026C30.2322 17.93 29.9802 17.882 29.7522 17.882C29.5002 17.882 29.2722 17.906 29.0682 17.954C28.8642 18.002 28.6902 18.074 28.5462 18.17C28.4142 18.266 28.3122 18.386 28.2402 18.53C28.1682 18.674 28.1322 18.836 28.1322 19.016C28.1442 19.172 28.1802 19.322 28.2402 19.466C28.3122 19.598 28.4082 19.712 28.5282 19.808C28.6602 19.904 28.8582 20.006 29.1222 20.114C29.3862 20.222 29.7222 20.324 30.1302 20.42C30.7302 20.576 31.2222 20.75 31.6062 20.942C32.0022 21.122 32.3142 21.332 32.5422 21.572C32.7822 21.8 32.9502 22.064 33.0462 22.364C33.1422 22.664 33.1902 23 33.1902 23.372C33.1902 23.912 33.0342 24.398 32.7222 24.83C32.4222 25.25 32.0142 25.58 31.4982 25.82C30.9822 26.06 30.4062 26.18 29.7702 26.18ZM39.6435 26.18C38.6715 26.18 37.8075 25.976 37.0515 25.568C36.3075 25.148 35.7195 24.578 35.2875 23.858C34.8675 23.138 34.6575 22.31 34.6575 21.374C34.6575 20.63 34.7775 19.952 35.0175 19.34C35.2575 18.728 35.5875 18.2 36.0075 17.756C36.4395 17.3 36.9495 16.952 37.5375 16.712C38.1375 16.46 38.7855 16.334 39.4815 16.334C40.0935 16.334 40.6635 16.454 41.1915 16.694C41.7195 16.922 42.1755 17.24 42.5595 17.648C42.9555 18.056 43.2555 18.542 43.4595 19.106C43.6755 19.658 43.7775 20.264 43.7655 20.924L43.7475 21.716H36.0255L35.6115 20.24H42.1455L41.8755 20.546V20.114C41.8395 19.718 41.7075 19.364 41.4795 19.052C41.2515 18.74 40.9635 18.494 40.6155 18.314C40.2675 18.134 39.8895 18.044 39.4815 18.044C38.8335 18.044 38.2875 18.17 37.8435 18.422C37.3995 18.662 37.0635 19.022 36.8355 19.502C36.6075 19.97 36.4935 20.552 36.4935 21.248C36.4935 21.908 36.6315 22.484 36.9075 22.976C37.1835 23.456 37.5735 23.828 38.0775 24.092C38.5815 24.356 39.1635 24.488 39.8235 24.488C40.2915 24.488 40.7235 24.41 41.1195 24.254C41.5275 24.098 41.9655 23.816 42.4335 23.408L43.3695 24.722C43.0815 25.01 42.7275 25.262 42.3075 25.478C41.8995 25.694 41.4615 25.868 40.9935 26C40.5375 26.12 40.0875 26.18 39.6435 26.18ZM45.7804 26V16.55H47.6524V19.52L47.4724 18.8C47.6044 18.344 47.8264 17.93 48.1384 17.558C48.4624 17.186 48.8284 16.892 49.2364 16.676C49.6564 16.46 50.0884 16.352 50.5324 16.352C50.7364 16.352 50.9284 16.37 51.1084 16.406C51.3004 16.442 51.4504 16.484 51.5584 16.532L51.0724 18.548C50.9284 18.488 50.7664 18.44 50.5864 18.404C50.4184 18.356 50.2504 18.332 50.0824 18.332C49.7584 18.332 49.4464 18.398 49.1464 18.53C48.8584 18.65 48.6004 18.824 48.3724 19.052C48.1564 19.268 47.9824 19.526 47.8504 19.826C47.7184 20.114 47.6524 20.432 47.6524 20.78V26H45.7804ZM53.0401 26V16.55H54.8941V18.494L54.5701 18.71C54.6901 18.29 54.9241 17.906 55.2721 17.558C55.6201 17.198 56.0341 16.91 56.5141 16.694C56.9941 16.466 57.4861 16.352 57.9901 16.352C58.7101 16.352 59.3101 16.496 59.7901 16.784C60.2701 17.06 60.6301 17.486 60.8701 18.062C61.1101 18.638 61.2301 19.364 61.2301 20.24V26H59.3761V20.366C59.3761 19.826 59.3041 19.382 59.1601 19.034C59.0161 18.674 58.7941 18.416 58.4941 18.26C58.1941 18.092 57.8221 18.02 57.3781 18.044C57.0181 18.044 56.6881 18.104 56.3881 18.224C56.0881 18.332 55.8241 18.488 55.5961 18.692C55.3801 18.896 55.2061 19.136 55.0741 19.412C54.9541 19.676 54.8941 19.964 54.8941 20.276V26H53.9761C53.8201 26 53.6641 26 53.5081 26C53.3521 26 53.1961 26 53.0401 26ZM67.3812 26.18C66.6012 26.18 65.8872 25.964 65.2392 25.532C64.6032 25.1 64.0932 24.512 63.7092 23.768C63.3252 23.024 63.1332 22.184 63.1332 21.248C63.1332 20.3 63.3252 19.46 63.7092 18.728C64.1052 17.984 64.6332 17.402 65.2932 16.982C65.9652 16.562 66.7152 16.352 67.5432 16.352C68.0352 16.352 68.4852 16.424 68.8932 16.568C69.3012 16.712 69.6552 16.916 69.9552 17.18C70.2672 17.432 70.5192 17.726 70.7112 18.062C70.9152 18.398 71.0412 18.758 71.0892 19.142L70.6752 18.998V16.55H72.5472V26H70.6752V23.75L71.1072 23.624C71.0352 23.948 70.8852 24.266 70.6572 24.578C70.4412 24.878 70.1592 25.148 69.8112 25.388C69.4752 25.628 69.0972 25.82 68.6772 25.964C68.2692 26.108 67.8372 26.18 67.3812 26.18ZM67.8672 24.47C68.4312 24.47 68.9292 24.332 69.3612 24.056C69.7932 23.78 70.1292 23.402 70.3692 22.922C70.6212 22.43 70.7472 21.872 70.7472 21.248C70.7472 20.636 70.6212 20.09 70.3692 19.61C70.1292 19.13 69.7932 18.752 69.3612 18.476C68.9292 18.2 68.4312 18.062 67.8672 18.062C67.3152 18.062 66.8232 18.2 66.3912 18.476C65.9712 18.752 65.6352 19.13 65.3832 19.61C65.1432 20.09 65.0232 20.636 65.0232 21.248C65.0232 21.872 65.1432 22.43 65.3832 22.922C65.6352 23.402 65.9712 23.78 66.3912 24.056C66.8232 24.332 67.3152 24.47 67.8672 24.47ZM75.0998 26V16.55H76.9718V18.566L76.6298 18.782C76.7258 18.47 76.8758 18.17 77.0798 17.882C77.2958 17.594 77.5538 17.342 77.8538 17.126C78.1658 16.898 78.4958 16.718 78.8438 16.586C79.2038 16.454 79.5698 16.388 79.9418 16.388C80.4818 16.388 80.9558 16.478 81.3638 16.658C81.7718 16.838 82.1078 17.108 82.3718 17.468C82.6358 17.828 82.8278 18.278 82.9478 18.818L82.6598 18.746L82.7858 18.44C82.9178 18.164 83.0978 17.906 83.3258 17.666C83.5658 17.414 83.8358 17.192 84.1358 17C84.4358 16.808 84.7538 16.658 85.0898 16.55C85.4258 16.442 85.7558 16.388 86.0798 16.388C86.7878 16.388 87.3698 16.532 87.8258 16.82C88.2938 17.108 88.6418 17.546 88.8698 18.134C89.1098 18.722 89.2298 19.454 89.2298 20.33V26H87.3578V20.438C87.3578 19.898 87.2858 19.46 87.1418 19.124C87.0098 18.776 86.8058 18.518 86.5298 18.35C86.2538 18.182 85.8998 18.098 85.4678 18.098C85.1318 18.098 84.8138 18.158 84.5138 18.278C84.2258 18.386 83.9738 18.542 83.7578 18.746C83.5418 18.95 83.3738 19.19 83.2538 19.466C83.1338 19.73 83.0738 20.024 83.0738 20.348V26H81.2018V20.402C81.2018 19.91 81.1298 19.496 80.9858 19.16C80.8418 18.812 80.6318 18.548 80.3558 18.368C80.0798 18.188 79.7438 18.098 79.3478 18.098C79.0118 18.098 78.6998 18.158 78.4118 18.278C78.1238 18.386 77.8718 18.542 77.6558 18.746C77.4398 18.938 77.2718 19.172 77.1518 19.448C77.0318 19.712 76.9718 20 76.9718 20.312V26H75.0998ZM96.122 26.18C95.15 26.18 94.286 25.976 93.53 25.568C92.786 25.148 92.198 24.578 91.766 23.858C91.346 23.138 91.136 22.31 91.136 21.374C91.136 20.63 91.256 19.952 91.496 19.34C91.736 18.728 92.066 18.2 92.486 17.756C92.918 17.3 93.428 16.952 94.016 16.712C94.616 16.46 95.264 16.334 95.96 16.334C96.572 16.334 97.142 16.454 97.67 16.694C98.198 16.922 98.654 17.24 99.038 17.648C99.434 18.056 99.734 18.542 99.938 19.106C100.154 19.658 100.256 20.264 100.244 20.924L100.226 21.716H92.504L92.09 20.24H98.624L98.354 20.546V20.114C98.318 19.718 98.186 19.364 97.958 19.052C97.73 18.74 97.442 18.494 97.094 18.314C96.746 18.134 96.368 18.044 95.96 18.044C95.312 18.044 94.766 18.17 94.322 18.422C93.878 18.662 93.542 19.022 93.314 19.502C93.086 19.97 92.972 20.552 92.972 21.248C92.972 21.908 93.11 22.484 93.386 22.976C93.662 23.456 94.052 23.828 94.556 24.092C95.06 24.356 95.642 24.488 96.302 24.488C96.77 24.488 97.202 24.41 97.598 24.254C98.006 24.098 98.444 23.816 98.912 23.408L99.848 24.722C99.56 25.01 99.206 25.262 98.786 25.478C98.378 25.694 97.94 25.868 97.472 26C97.016 26.12 96.566 26.18 96.122 26.18Z" fill="#BBBBBB"/>
<path d="M10 51H210C214.971 51 219 55.0294 219 60V80C219 84.9706 214.971 89 210 89H10C5.02944 89 1 84.9706 1 80V60C1 55.0294 5.02944 51 10 51Z" fill="#161817"/>
<path d="M10 51H210C214.971 51 219 55.0294 219 60V80C219 84.9706 214.971 89 210 89H10C5.02944 89 1 84.9706 1 80V60C1 55.0294 5.02944 51 10 51Z" stroke="#7F7F7F" stroke-width="2"/>
<line x1="14.5" y1="70.5" x2="98.5" y2="70.5" stroke="#CCCCCC" stroke-width="5" stroke-linecap="round" stroke-dasharray="0.1 12"/>
<rect x="181" y="51" width="38" height="38" rx="9" stroke="#7F7F7F" stroke-width="2"/>
<path d="M190.036 70.322C189.967 70.1146 189.967 69.8904 190.036 69.683C191.423 65.51 195.36 62.5 200 62.5C204.638 62.5 208.573 65.507 209.963 69.678C210.033 69.885 210.033 70.109 209.963 70.317C208.577 74.49 204.64 77.5 200 77.5C195.362 77.5 191.426 74.493 190.036 70.322Z" stroke="#7F7F7F" stroke-width="1.5" stroke-linecap="round" stroke-linejoin="round"/>
<path d="M203 70C203 70.7956 202.684 71.5587 202.122 72.1213C201.559 72.6839 200.796 73 200 73C199.205 73 198.442 72.6839 197.879 72.1213C197.316 71.5587 197 70.7956 197 70C197 69.2044 197.316 68.4413 197.879 67.8787C198.442 67.3161 199.205 67 200 67C200.796 67 201.559 67.3161 202.122 67.8787C202.684 68.4413 203 69.2044 203 70Z" stroke="#7F7F7F" stroke-width="1.5" stroke-linecap="round" stroke-linejoin="round"/>
<path d="M10 102H210C214.971 102 219 106.029 219 111V131C219 135.971 214.971 140 210 140H10C5.02944 140 1 135.971 1 131V111C1 106.029 5.02944 102 10 102Z" fill="#161817"/>
<path d="M10 102H210C214.971 102 219 106.029 219 111V131C219 135.971 214.971 140 210 140H10C5.02944 140 1 135.971 1 131V111C1 106.029 5.02944 102 10 102Z" stroke="#CCCCCC" stroke-width="2"/>
<path d="M13.568 127V115.8H18.128C18.736 115.8 19.2853 115.955 19.776 116.264C20.2773 116.563 20.6773 116.973 20.976 117.496C21.2747 118.019 21.424 118.6 21.424 119.24C21.424 119.88 21.2747 120.461 20.976 120.984C20.6773 121.507 20.2773 121.928 19.776 122.248C19.2853 122.557 18.736 122.712 18.128 122.712H15.296V127H13.568ZM15.296 121.048H18.096C18.384 121.048 18.6453 120.968 18.88 120.808C19.1147 120.637 19.3013 120.419 19.44 120.152C19.5893 119.875 19.664 119.571 19.664 119.24C19.664 118.909 19.5893 118.611 19.44 118.344C19.3013 118.077 19.1147 117.864 18.88 117.704C18.6453 117.544 18.384 117.464 18.096 117.464H15.296V121.048ZM26.3684 127.16C25.675 127.16 25.0404 126.968 24.4644 126.584C23.899 126.2 23.4457 125.677 23.1044 125.016C22.763 124.355 22.5924 123.608 22.5924 122.776C22.5924 121.933 22.763 121.187 23.1044 120.536C23.4564 119.875 23.9257 119.357 24.5124 118.984C25.1097 118.611 25.7764 118.424 26.5124 118.424C26.9497 118.424 27.3497 118.488 27.7124 118.616C28.075 118.744 28.3897 118.925 28.6564 119.16C28.9337 119.384 29.1577 119.645 29.3284 119.944C29.5097 120.243 29.6217 120.563 29.6644 120.904L29.2964 120.776V118.6H30.9604V127H29.2964V125L29.6804 124.888C29.6164 125.176 29.483 125.459 29.2804 125.736C29.0884 126.003 28.8377 126.243 28.5284 126.456C28.2297 126.669 27.8937 126.84 27.5204 126.968C27.1577 127.096 26.7737 127.16 26.3684 127.16ZM26.8004 125.64C27.3017 125.64 27.7444 125.517 28.1284 125.272C28.5124 125.027 28.811 124.691 29.0244 124.264C29.2484 123.827 29.3604 123.331 29.3604 122.776C29.3604 122.232 29.2484 121.747 29.0244 121.32C28.811 120.893 28.5124 120.557 28.1284 120.312C27.7444 120.067 27.3017 119.944 26.8004 119.944C26.3097 119.944 25.8724 120.067 25.4884 120.312C25.115 120.557 24.8164 120.893 24.5924 121.32C24.379 121.747 24.2724 122.232 24.2724 122.776C24.2724 123.331 24.379 123.827 24.5924 124.264C24.8164 124.691 25.115 125.027 25.4884 125.272C25.8724 125.517 26.3097 125.64 26.8004 125.64ZM36.0614 127.16C35.3574 127.16 34.7227 127.037 34.1574 126.792C33.592 126.547 33.1227 126.184 32.7494 125.704L33.8694 124.744C34.1894 125.117 34.536 125.389 34.9094 125.56C35.2934 125.72 35.7254 125.8 36.2054 125.8C36.3974 125.8 36.5734 125.779 36.7334 125.736C36.904 125.683 37.048 125.608 37.1654 125.512C37.2934 125.416 37.3894 125.304 37.4534 125.176C37.5174 125.037 37.5494 124.888 37.5494 124.728C37.5494 124.451 37.448 124.227 37.2454 124.056C37.1387 123.981 36.968 123.901 36.7334 123.816C36.5094 123.72 36.216 123.624 35.8534 123.528C35.2347 123.368 34.728 123.187 34.3334 122.984C33.9387 122.781 33.6347 122.552 33.4214 122.296C33.2614 122.093 33.144 121.875 33.0694 121.64C32.9947 121.395 32.9574 121.128 32.9574 120.84C32.9574 120.488 33.032 120.168 33.1814 119.88C33.3414 119.581 33.5547 119.325 33.8214 119.112C34.0987 118.888 34.4187 118.717 34.7814 118.6C35.1547 118.483 35.5494 118.424 35.9654 118.424C36.36 118.424 36.7494 118.477 37.1334 118.584C37.528 118.691 37.8907 118.845 38.2214 119.048C38.552 119.251 38.8294 119.491 39.0534 119.768L38.1094 120.808C37.9067 120.605 37.6827 120.429 37.4374 120.28C37.2027 120.12 36.9627 119.997 36.7174 119.912C36.472 119.827 36.248 119.784 36.0454 119.784C35.8214 119.784 35.6187 119.805 35.4374 119.848C35.256 119.891 35.1014 119.955 34.9734 120.04C34.856 120.125 34.7654 120.232 34.7014 120.36C34.6374 120.488 34.6054 120.632 34.6054 120.792C34.616 120.931 34.648 121.064 34.7014 121.192C34.7654 121.309 34.8507 121.411 34.9574 121.496C35.0747 121.581 35.2507 121.672 35.4854 121.768C35.72 121.864 36.0187 121.955 36.3814 122.04C36.9147 122.179 37.352 122.333 37.6934 122.504C38.0454 122.664 38.3227 122.851 38.5254 123.064C38.7387 123.267 38.888 123.501 38.9734 123.768C39.0587 124.035 39.1014 124.333 39.1014 124.664C39.1014 125.144 38.9627 125.576 38.6854 125.96C38.4187 126.333 38.056 126.627 37.5974 126.84C37.1387 127.053 36.6267 127.16 36.0614 127.16ZM43.7176 127.16C43.0136 127.16 42.379 127.037 41.8136 126.792C41.2483 126.547 40.779 126.184 40.4056 125.704L41.5256 124.744C41.8456 125.117 42.1923 125.389 42.5656 125.56C42.9496 125.72 43.3816 125.8 43.8616 125.8C44.0536 125.8 44.2296 125.779 44.3896 125.736C44.5603 125.683 44.7043 125.608 44.8216 125.512C44.9496 125.416 45.0456 125.304 45.1096 125.176C45.1736 125.037 45.2056 124.888 45.2056 124.728C45.2056 124.451 45.1043 124.227 44.9016 124.056C44.795 123.981 44.6243 123.901 44.3896 123.816C44.1656 123.72 43.8723 123.624 43.5096 123.528C42.891 123.368 42.3843 123.187 41.9896 122.984C41.595 122.781 41.291 122.552 41.0776 122.296C40.9176 122.093 40.8003 121.875 40.7256 121.64C40.651 121.395 40.6136 121.128 40.6136 120.84C40.6136 120.488 40.6883 120.168 40.8376 119.88C40.9976 119.581 41.211 119.325 41.4776 119.112C41.755 118.888 42.075 118.717 42.4376 118.6C42.811 118.483 43.2056 118.424 43.6216 118.424C44.0163 118.424 44.4056 118.477 44.7896 118.584C45.1843 118.691 45.547 118.845 45.8776 119.048C46.2083 119.251 46.4856 119.491 46.7096 119.768L45.7656 120.808C45.563 120.605 45.339 120.429 45.0936 120.28C44.859 120.12 44.619 119.997 44.3736 119.912C44.1283 119.827 43.9043 119.784 43.7016 119.784C43.4776 119.784 43.275 119.805 43.0936 119.848C42.9123 119.891 42.7576 119.955 42.6296 120.04C42.5123 120.125 42.4216 120.232 42.3576 120.36C42.2936 120.488 42.2616 120.632 42.2616 120.792C42.2723 120.931 42.3043 121.064 42.3576 121.192C42.4216 121.309 42.507 121.411 42.6136 121.496C42.731 121.581 42.907 121.672 43.1416 121.768C43.3763 121.864 43.675 121.955 44.0376 122.04C44.571 122.179 45.0083 122.333 45.3496 122.504C45.7016 122.664 45.979 122.851 46.1816 123.064C46.395 123.267 46.5443 123.501 46.6296 123.768C46.715 124.035 46.7576 124.333 46.7576 124.664C46.7576 125.144 46.619 125.576 46.3416 125.96C46.075 126.333 45.7123 126.627 45.2536 126.84C44.795 127.053 44.283 127.16 43.7176 127.16ZM50.6379 127L47.7739 118.6L49.4379 118.584L51.4859 124.872L51.1179 124.84L53.3419 119.928H54.3339L56.5739 124.856L56.1419 124.888L58.2059 118.6H59.8699L57.0379 127H55.9019L53.5659 121.656L53.9339 121.704L51.7579 127H50.6379ZM64.9124 127.16C64.091 127.16 63.355 126.973 62.7044 126.6C62.0644 126.216 61.5577 125.699 61.1844 125.048C60.811 124.387 60.6244 123.635 60.6244 122.792C60.6244 121.949 60.811 121.203 61.1844 120.552C61.5577 119.891 62.0644 119.373 62.7044 119C63.355 118.616 64.091 118.424 64.9124 118.424C65.723 118.424 66.4484 118.616 67.0884 119C67.739 119.373 68.251 119.891 68.6244 120.552C68.9977 121.203 69.1844 121.949 69.1844 122.792C69.1844 123.635 68.9977 124.387 68.6244 125.048C68.251 125.699 67.739 126.216 67.0884 126.6C66.4484 126.973 65.723 127.16 64.9124 127.16ZM64.9124 125.656C65.4137 125.656 65.8617 125.533 66.2564 125.288C66.651 125.032 66.9604 124.691 67.1844 124.264C67.4084 123.827 67.515 123.336 67.5044 122.792C67.515 122.237 67.4084 121.747 67.1844 121.32C66.9604 120.883 66.651 120.541 66.2564 120.296C65.8617 120.051 65.4137 119.928 64.9124 119.928C64.411 119.928 63.9577 120.056 63.5524 120.312C63.1577 120.557 62.8484 120.899 62.6244 121.336C62.4004 121.763 62.2937 122.248 62.3044 122.792C62.2937 123.336 62.4004 123.827 62.6244 124.264C62.8484 124.691 63.1577 125.032 63.5524 125.288C63.9577 125.533 64.411 125.656 64.9124 125.656ZM70.9801 127V118.6H72.6441V121.24L72.4841 120.6C72.6015 120.195 72.7988 119.827 73.0761 119.496C73.3641 119.165 73.6895 118.904 74.0521 118.712C74.4255 118.52 74.8095 118.424 75.2041 118.424C75.3855 118.424 75.5561 118.44 75.7161 118.472C75.8868 118.504 76.0201 118.541 76.1161 118.584L75.6841 120.376C75.5561 120.323 75.4121 120.28 75.2521 120.248C75.1028 120.205 74.9535 120.184 74.8041 120.184C74.5161 120.184 74.2388 120.243 73.9721 120.36C73.7161 120.467 73.4868 120.621 73.2841 120.824C73.0921 121.016 72.9375 121.245 72.8201 121.512C72.7028 121.768 72.6441 122.051 72.6441 122.36V127H70.9801ZM80.5779 127.16C79.8099 127.16 79.1219 126.973 78.5139 126.6C77.9165 126.216 77.4419 125.699 77.0899 125.048C76.7379 124.387 76.5619 123.635 76.5619 122.792C76.5619 121.949 76.7325 121.203 77.0739 120.552C77.4259 119.891 77.9005 119.373 78.4979 119C79.0952 118.616 79.7725 118.424 80.5299 118.424C80.9459 118.424 81.3459 118.493 81.7299 118.632C82.1245 118.76 82.4765 118.941 82.7859 119.176C83.0952 119.4 83.3352 119.651 83.5059 119.928C83.6872 120.195 83.7779 120.467 83.7779 120.744L83.2979 120.776V115.16H84.9459V127H83.2979V125H83.6179C83.6179 125.256 83.5325 125.512 83.3619 125.768C83.1912 126.013 82.9619 126.243 82.6739 126.456C82.3965 126.669 82.0712 126.84 81.6979 126.968C81.3352 127.096 80.9619 127.16 80.5779 127.16ZM80.8019 125.736C81.3032 125.736 81.7459 125.608 82.1299 125.352C82.5139 125.096 82.8125 124.749 83.0259 124.312C83.2499 123.864 83.3619 123.357 83.3619 122.792C83.3619 122.227 83.2499 121.725 83.0259 121.288C82.8125 120.84 82.5139 120.488 82.1299 120.232C81.7459 119.976 81.3032 119.848 80.8019 119.848C80.3005 119.848 79.8579 119.976 79.4739 120.232C79.0899 120.488 78.7859 120.84 78.5619 121.288C78.3485 121.725 78.2419 122.227 78.2419 122.792C78.2419 123.357 78.3485 123.864 78.5619 124.312C78.7859 124.749 79.0899 125.096 79.4739 125.352C79.8579 125.608 80.3005 125.736 80.8019 125.736Z" fill="#CCCCCC"/>
<rect x="181" y="102" width="38" height="38" rx="9" stroke="#CCCCCC" stroke-width="2"/>
<path d="M191.981 117.223C191.045 118.327 190.348 119.613 189.935 121C191.227 125.339 195.245 128.5 200.001 128.5C200.994 128.5 201.954 128.362 202.864 128.105M194.229 115.228C195.941 114.098 197.949 113.497 200.001 113.5C204.757 113.5 208.774 116.662 210.066 120.999C209.357 123.368 207.837 125.412 205.773 126.772M194.229 115.228L191.001 112M194.229 115.228L197.879 118.878M205.773 126.772L209.001 130M205.773 126.772L202.123 123.122C202.401 122.843 202.622 122.513 202.773 122.149C202.924 121.785 203.001 121.394 203.001 121C203.001 120.607 202.924 120.216 202.773 119.852C202.622 119.488 202.401 119.158 202.123 118.879C201.844 118.6 201.513 118.379 201.149 118.229C200.785 118.078 200.395 118 200.001 118C199.607 118 199.217 118.078 198.853 118.229C198.489 118.379 198.158 118.6 197.88 118.879M202.122 123.121L197.881 118.88" stroke="#CCCCCC" stroke-width="1.5" stroke-linecap="round" stroke-linejoin="round"/>
</svg>
