<svg width="228" height="104" viewBox="0 0 228 104" fill="none" xmlns="http://www.w3.org/2000/svg">
<path d="M3 15C3 9.47715 7.47715 5 13 5H213C218.523 5 223 9.47715 223 15V35C223 40.5228 218.523 45 213 45H13C7.47716 45 3 40.5228 3 35V15Z" fill="#272C28"/>
<path d="M20.024 31.16C19.416 31.16 18.8507 31.08 18.328 30.92C17.816 30.76 17.3467 30.52 16.92 30.2C16.504 29.8693 16.1307 29.464 15.8 28.984L16.984 27.624C17.5067 28.3707 18.008 28.888 18.488 29.176C18.968 29.464 19.5387 29.608 20.2 29.608C20.6053 29.608 20.9733 29.544 21.304 29.416C21.6347 29.288 21.896 29.112 22.088 28.888C22.28 28.664 22.376 28.408 22.376 28.12C22.376 27.928 22.344 27.7467 22.28 27.576C22.216 27.4053 22.1147 27.2507 21.976 27.112C21.848 26.9733 21.6773 26.8453 21.464 26.728C21.2613 26.6107 21.0213 26.5093 20.744 26.424C20.4667 26.328 20.1467 26.248 19.784 26.184C19.208 26.0667 18.7067 25.912 18.28 25.72C17.8533 25.528 17.496 25.288 17.208 25C16.92 24.712 16.7067 24.3867 16.568 24.024C16.4293 23.6507 16.36 23.2347 16.36 22.776C16.36 22.328 16.456 21.912 16.648 21.528C16.8507 21.144 17.1227 20.8133 17.464 20.536C17.816 20.248 18.2267 20.0293 18.696 19.88C19.1653 19.72 19.672 19.64 20.216 19.64C20.792 19.64 21.32 19.7147 21.8 19.864C22.28 20.0133 22.7067 20.2373 23.08 20.536C23.4533 20.824 23.7627 21.1813 24.008 21.608L22.792 22.808C22.5787 22.456 22.3387 22.1627 22.072 21.928C21.8053 21.6827 21.512 21.5013 21.192 21.384C20.872 21.256 20.5307 21.192 20.168 21.192C19.752 21.192 19.3893 21.256 19.08 21.384C18.7707 21.512 18.5253 21.6933 18.344 21.928C18.1733 22.152 18.088 22.4187 18.088 22.728C18.088 22.952 18.1307 23.16 18.216 23.352C18.3013 23.5333 18.4293 23.6987 18.6 23.848C18.7813 23.9867 19.0213 24.1147 19.32 24.232C19.6187 24.3387 19.976 24.4347 20.392 24.52C20.9787 24.648 21.5013 24.8133 21.96 25.016C22.4187 25.208 22.808 25.4373 23.128 25.704C23.448 25.9707 23.688 26.2693 23.848 26.6C24.0187 26.9307 24.104 27.288 24.104 27.672C24.104 28.3867 23.9387 29.0053 23.608 29.528C23.2773 30.0507 22.808 30.456 22.2 30.744C21.592 31.0213 20.8667 31.16 20.024 31.16ZM30.0564 31.16C29.1924 31.16 28.4244 30.9787 27.7524 30.616C27.091 30.2427 26.5684 29.736 26.1844 29.096C25.811 28.456 25.6244 27.72 25.6244 26.888C25.6244 26.2267 25.731 25.624 25.9444 25.08C26.1577 24.536 26.451 24.0667 26.8244 23.672C27.2084 23.2667 27.6617 22.9573 28.1844 22.744C28.7177 22.52 29.2937 22.408 29.9124 22.408C30.4564 22.408 30.963 22.5147 31.4324 22.728C31.9017 22.9307 32.307 23.2133 32.6484 23.576C33.0004 23.9387 33.267 24.3707 33.4484 24.872C33.6404 25.3627 33.731 25.9013 33.7204 26.488L33.7044 27.192H26.8404L26.4724 25.88H32.2804L32.0404 26.152V25.768C32.0084 25.416 31.891 25.1013 31.6884 24.824C31.4857 24.5467 31.2297 24.328 30.9204 24.168C30.611 24.008 30.275 23.928 29.9124 23.928C29.3364 23.928 28.851 24.04 28.4564 24.264C28.0617 24.4773 27.763 24.7973 27.5604 25.224C27.3577 25.64 27.2564 26.1573 27.2564 26.776C27.2564 27.3627 27.379 27.8747 27.6244 28.312C27.8697 28.7387 28.2164 29.0693 28.6644 29.304C29.1124 29.5387 29.6297 29.656 30.2164 29.656C30.6324 29.656 31.0164 29.5867 31.3684 29.448C31.731 29.3093 32.1204 29.0587 32.5364 28.696L33.3684 29.864C33.1124 30.12 32.7977 30.344 32.4244 30.536C32.0617 30.728 31.6724 30.8827 31.2564 31C30.851 31.1067 30.451 31.16 30.0564 31.16ZM38.7434 31.16C38.05 31.16 37.4154 30.968 36.8394 30.584C36.274 30.2 35.8207 29.6773 35.4794 29.016C35.138 28.3547 34.9674 27.608 34.9674 26.776C34.9674 25.9333 35.138 25.1867 35.4794 24.536C35.8314 23.8747 36.3007 23.3573 36.8874 22.984C37.4847 22.6107 38.1514 22.424 38.8874 22.424C39.3247 22.424 39.7247 22.488 40.0874 22.616C40.45 22.744 40.7647 22.9253 41.0314 23.16C41.3087 23.384 41.5327 23.6453 41.7034 23.944C41.8847 24.2427 41.9967 24.5627 42.0394 24.904L41.6714 24.776V22.6H43.3354V31H41.6714V29L42.0554 28.888C41.9914 29.176 41.858 29.4587 41.6554 29.736C41.4634 30.0027 41.2127 30.2427 40.9034 30.456C40.6047 30.6693 40.2687 30.84 39.8954 30.968C39.5327 31.096 39.1487 31.16 38.7434 31.16ZM39.1754 29.64C39.6767 29.64 40.1194 29.5173 40.5034 29.272C40.8874 29.0267 41.186 28.6907 41.3994 28.264C41.6234 27.8267 41.7354 27.3307 41.7354 26.776C41.7354 26.232 41.6234 25.7467 41.3994 25.32C41.186 24.8933 40.8874 24.5573 40.5034 24.312C40.1194 24.0667 39.6767 23.944 39.1754 23.944C38.6847 23.944 38.2474 24.0667 37.8634 24.312C37.49 24.5573 37.1914 24.8933 36.9674 25.32C36.754 25.7467 36.6474 26.232 36.6474 26.776C36.6474 27.3307 36.754 27.8267 36.9674 28.264C37.1914 28.6907 37.49 29.0267 37.8634 29.272C38.2474 29.5173 38.6847 29.64 39.1754 29.64ZM45.6364 31V22.6H47.3004V25.24L47.1404 24.6C47.2577 24.1947 47.455 23.8267 47.7324 23.496C48.0204 23.1653 48.3457 22.904 48.7084 22.712C49.0817 22.52 49.4657 22.424 49.8604 22.424C50.0417 22.424 50.2124 22.44 50.3724 22.472C50.543 22.504 50.6764 22.5413 50.7724 22.584L50.3404 24.376C50.2124 24.3227 50.0684 24.28 49.9084 24.248C49.759 24.2053 49.6097 24.184 49.4604 24.184C49.1724 24.184 48.895 24.2427 48.6284 24.36C48.3724 24.4667 48.143 24.6213 47.9404 24.824C47.7484 25.016 47.5937 25.2453 47.4764 25.512C47.359 25.768 47.3004 26.0507 47.3004 26.36V31H45.6364ZM55.2981 31.16C54.5195 31.16 53.8208 30.968 53.2021 30.584C52.5941 30.2 52.1088 29.6773 51.7461 29.016C51.3941 28.3547 51.2181 27.6133 51.2181 26.792C51.2181 25.9707 51.3941 25.2293 51.7461 24.568C52.1088 23.9067 52.5941 23.384 53.2021 23C53.8208 22.616 54.5195 22.424 55.2981 22.424C56.0448 22.424 56.7221 22.5787 57.3301 22.888C57.9488 23.1867 58.4181 23.5973 58.7381 24.12L57.8261 25.24C57.6555 24.9947 57.4368 24.7707 57.1701 24.568C56.9035 24.3653 56.6208 24.2053 56.3221 24.088C56.0235 23.9707 55.7355 23.912 55.4581 23.912C54.9461 23.912 54.4875 24.04 54.0821 24.296C53.6875 24.5413 53.3728 24.8827 53.1381 25.32C52.9035 25.7573 52.7861 26.248 52.7861 26.792C52.7861 27.336 52.9088 27.8267 53.1541 28.264C53.3995 28.6907 53.7248 29.032 54.1301 29.288C54.5355 29.544 54.9835 29.672 55.4741 29.672C55.7621 29.672 56.0395 29.624 56.3061 29.528C56.5835 29.432 56.8501 29.288 57.1061 29.096C57.3621 28.904 57.6021 28.6693 57.8261 28.392L58.7381 29.512C58.3968 29.992 57.9061 30.3867 57.2661 30.696C56.6368 31.0053 55.9808 31.16 55.2981 31.16ZM60.2926 31V19.16H61.9406V24.328L61.6526 24.52C61.7593 24.1467 61.9673 23.8053 62.2766 23.496C62.586 23.176 62.954 22.92 63.3806 22.728C63.8073 22.5253 64.2446 22.424 64.6926 22.424C65.3326 22.424 65.866 22.552 66.2926 22.808C66.7193 23.0533 67.0393 23.432 67.2526 23.944C67.466 24.456 67.5726 25.1013 67.5726 25.88V31H65.9246V25.992C65.9246 25.512 65.8606 25.1173 65.7326 24.808C65.6046 24.488 65.4073 24.2587 65.1406 24.12C64.874 23.9707 64.5433 23.9067 64.1486 23.928C63.8286 23.928 63.5353 23.9813 63.2686 24.088C63.002 24.184 62.7673 24.3227 62.5646 24.504C62.3726 24.6853 62.218 24.8987 62.1006 25.144C61.994 25.3787 61.9406 25.6347 61.9406 25.912V31H61.1246C60.986 31 60.8473 31 60.7086 31C60.57 31 60.4313 31 60.2926 31Z" fill="#C1C1C1"/>
<g filter="url(#filter0_d_419_109)">
<rect x="183" y="5" width="40" height="40" rx="10" fill="#00FF70"/>
<path fill-rule="evenodd" clip-rule="evenodd" d="M205.604 29.0158C204.252 30.0115 202.574 30.4598 200.906 30.2707C199.238 30.0816 197.703 29.2692 196.609 27.9963C195.515 26.7233 194.942 25.0838 195.005 23.4062C195.068 21.7286 195.762 20.1367 196.949 18.9497C198.136 17.7626 199.728 17.0679 201.406 17.0047C203.083 16.9416 204.723 17.5147 205.995 18.6092C207.268 19.7037 208.081 21.2388 208.27 22.9069C208.459 24.575 208.01 26.253 207.015 27.6046L210.682 31.271C210.78 31.3624 210.859 31.4727 210.914 31.5951C210.968 31.7176 210.997 31.8498 211 31.9839C211.002 32.118 210.978 32.2511 210.927 32.3755C210.877 32.4998 210.802 32.6127 210.708 32.7076C210.613 32.8024 210.5 32.8771 210.376 32.9273C210.251 32.9775 210.118 33.0022 209.984 32.9998C209.85 32.9975 209.718 32.9681 209.595 32.9136C209.473 32.859 209.363 32.7803 209.271 32.6822L205.604 29.0158ZM206.316 23.656C206.316 24.8918 205.825 26.0769 204.951 26.9508C204.078 27.8246 202.892 28.3155 201.657 28.3155C200.421 28.3155 199.236 27.8246 198.362 26.9508C197.488 26.0769 196.998 24.8918 196.998 23.656C196.998 22.4202 197.488 21.235 198.362 20.3612C199.236 19.4873 200.421 18.9964 201.657 18.9964C202.892 18.9964 204.078 19.4873 204.951 20.3612C205.825 21.235 206.316 22.4202 206.316 23.656Z" fill="black"/>
</g>
<path d="M213 57.5H13C6.64873 57.5 1.5 62.6487 1.5 69V89C1.5 95.3513 6.64873 100.5 13 100.5H213C219.351 100.5 224.5 95.3513 224.5 89V69C224.5 62.6487 219.351 57.5 213 57.5Z" fill="#272C28"/>
<path d="M213 57.5H13C6.64873 57.5 1.5 62.6487 1.5 69V89C1.5 95.3513 6.64873 100.5 13 100.5H213C219.351 100.5 224.5 95.3513 224.5 89V69C224.5 62.6487 219.351 57.5 213 57.5Z" stroke="#00FF70" stroke-width="3"/>
<path d="M20.024 85.16C19.416 85.16 18.8507 85.08 18.328 84.92C17.816 84.76 17.3467 84.52 16.92 84.2C16.504 83.8693 16.1307 83.464 15.8 82.984L16.984 81.624C17.5067 82.3707 18.008 82.888 18.488 83.176C18.968 83.464 19.5387 83.608 20.2 83.608C20.6053 83.608 20.9733 83.544 21.304 83.416C21.6347 83.288 21.896 83.112 22.088 82.888C22.28 82.664 22.376 82.408 22.376 82.12C22.376 81.928 22.344 81.7467 22.28 81.576C22.216 81.4053 22.1147 81.2507 21.976 81.112C21.848 80.9733 21.6773 80.8453 21.464 80.728C21.2613 80.6107 21.0213 80.5093 20.744 80.424C20.4667 80.328 20.1467 80.248 19.784 80.184C19.208 80.0667 18.7067 79.912 18.28 79.72C17.8533 79.528 17.496 79.288 17.208 79C16.92 78.712 16.7067 78.3867 16.568 78.024C16.4293 77.6507 16.36 77.2347 16.36 76.776C16.36 76.328 16.456 75.912 16.648 75.528C16.8507 75.144 17.1227 74.8133 17.464 74.536C17.816 74.248 18.2267 74.0293 18.696 73.88C19.1653 73.72 19.672 73.64 20.216 73.64C20.792 73.64 21.32 73.7147 21.8 73.864C22.28 74.0133 22.7067 74.2373 23.08 74.536C23.4533 74.824 23.7627 75.1813 24.008 75.608L22.792 76.808C22.5787 76.456 22.3387 76.1627 22.072 75.928C21.8053 75.6827 21.512 75.5013 21.192 75.384C20.872 75.256 20.5307 75.192 20.168 75.192C19.752 75.192 19.3893 75.256 19.08 75.384C18.7707 75.512 18.5253 75.6933 18.344 75.928C18.1733 76.152 18.088 76.4187 18.088 76.728C18.088 76.952 18.1307 77.16 18.216 77.352C18.3013 77.5333 18.4293 77.6987 18.6 77.848C18.7813 77.9867 19.0213 78.1147 19.32 78.232C19.6187 78.3387 19.976 78.4347 20.392 78.52C20.9787 78.648 21.5013 78.8133 21.96 79.016C22.4187 79.208 22.808 79.4373 23.128 79.704C23.448 79.9707 23.688 80.2693 23.848 80.6C24.0187 80.9307 24.104 81.288 24.104 81.672C24.104 82.3867 23.9387 83.0053 23.608 83.528C23.2773 84.0507 22.808 84.456 22.2 84.744C21.592 85.0213 20.8667 85.16 20.024 85.16ZM30.0564 85.16C29.1924 85.16 28.4244 84.9787 27.7524 84.616C27.091 84.2427 26.5684 83.736 26.1844 83.096C25.811 82.456 25.6244 81.72 25.6244 80.888C25.6244 80.2267 25.731 79.624 25.9444 79.08C26.1577 78.536 26.451 78.0667 26.8244 77.672C27.2084 77.2667 27.6617 76.9573 28.1844 76.744C28.7177 76.52 29.2937 76.408 29.9124 76.408C30.4564 76.408 30.963 76.5147 31.4324 76.728C31.9017 76.9307 32.307 77.2133 32.6484 77.576C33.0004 77.9387 33.267 78.3707 33.4484 78.872C33.6404 79.3627 33.731 79.9013 33.7204 80.488L33.7044 81.192H26.8404L26.4724 79.88H32.2804L32.0404 80.152V79.768C32.0084 79.416 31.891 79.1013 31.6884 78.824C31.4857 78.5467 31.2297 78.328 30.9204 78.168C30.611 78.008 30.275 77.928 29.9124 77.928C29.3364 77.928 28.851 78.04 28.4564 78.264C28.0617 78.4773 27.763 78.7973 27.5604 79.224C27.3577 79.64 27.2564 80.1573 27.2564 80.776C27.2564 81.3627 27.379 81.8747 27.6244 82.312C27.8697 82.7387 28.2164 83.0693 28.6644 83.304C29.1124 83.5387 29.6297 83.656 30.2164 83.656C30.6324 83.656 31.0164 83.5867 31.3684 83.448C31.731 83.3093 32.1204 83.0587 32.5364 82.696L33.3684 83.864C33.1124 84.12 32.7977 84.344 32.4244 84.536C32.0617 84.728 31.6724 84.8827 31.2564 85C30.851 85.1067 30.451 85.16 30.0564 85.16ZM38.7434 85.16C38.05 85.16 37.4154 84.968 36.8394 84.584C36.274 84.2 35.8207 83.6773 35.4794 83.016C35.138 82.3547 34.9674 81.608 34.9674 80.776C34.9674 79.9333 35.138 79.1867 35.4794 78.536C35.8314 77.8747 36.3007 77.3573 36.8874 76.984C37.4847 76.6107 38.1514 76.424 38.8874 76.424C39.3247 76.424 39.7247 76.488 40.0874 76.616C40.45 76.744 40.7647 76.9253 41.0314 77.16C41.3087 77.384 41.5327 77.6453 41.7034 77.944C41.8847 78.2427 41.9967 78.5627 42.0394 78.904L41.6714 78.776V76.6H43.3354V85H41.6714V83L42.0554 82.888C41.9914 83.176 41.858 83.4587 41.6554 83.736C41.4634 84.0027 41.2127 84.2427 40.9034 84.456C40.6047 84.6693 40.2687 84.84 39.8954 84.968C39.5327 85.096 39.1487 85.16 38.7434 85.16ZM39.1754 83.64C39.6767 83.64 40.1194 83.5173 40.5034 83.272C40.8874 83.0267 41.186 82.6907 41.3994 82.264C41.6234 81.8267 41.7354 81.3307 41.7354 80.776C41.7354 80.232 41.6234 79.7467 41.3994 79.32C41.186 78.8933 40.8874 78.5573 40.5034 78.312C40.1194 78.0667 39.6767 77.944 39.1754 77.944C38.6847 77.944 38.2474 78.0667 37.8634 78.312C37.49 78.5573 37.1914 78.8933 36.9674 79.32C36.754 79.7467 36.6474 80.232 36.6474 80.776C36.6474 81.3307 36.754 81.8267 36.9674 82.264C37.1914 82.6907 37.49 83.0267 37.8634 83.272C38.2474 83.5173 38.6847 83.64 39.1754 83.64ZM45.6364 85V76.6H47.3004V79.24L47.1404 78.6C47.2577 78.1947 47.455 77.8267 47.7324 77.496C48.0204 77.1653 48.3457 76.904 48.7084 76.712C49.0817 76.52 49.4657 76.424 49.8604 76.424C50.0417 76.424 50.2124 76.44 50.3724 76.472C50.543 76.504 50.6764 76.5413 50.7724 76.584L50.3404 78.376C50.2124 78.3227 50.0684 78.28 49.9084 78.248C49.759 78.2053 49.6097 78.184 49.4604 78.184C49.1724 78.184 48.895 78.2427 48.6284 78.36C48.3724 78.4667 48.143 78.6213 47.9404 78.824C47.7484 79.016 47.5937 79.2453 47.4764 79.512C47.359 79.768 47.3004 80.0507 47.3004 80.36V85H45.6364ZM55.2981 85.16C54.5195 85.16 53.8208 84.968 53.2021 84.584C52.5941 84.2 52.1088 83.6773 51.7461 83.016C51.3941 82.3547 51.2181 81.6133 51.2181 80.792C51.2181 79.9707 51.3941 79.2293 51.7461 78.568C52.1088 77.9067 52.5941 77.384 53.2021 77C53.8208 76.616 54.5195 76.424 55.2981 76.424C56.0448 76.424 56.7221 76.5787 57.3301 76.888C57.9488 77.1867 58.4181 77.5973 58.7381 78.12L57.8261 79.24C57.6555 78.9947 57.4368 78.7707 57.1701 78.568C56.9035 78.3653 56.6208 78.2053 56.3221 78.088C56.0235 77.9707 55.7355 77.912 55.4581 77.912C54.9461 77.912 54.4875 78.04 54.0821 78.296C53.6875 78.5413 53.3728 78.8827 53.1381 79.32C52.9035 79.7573 52.7861 80.248 52.7861 80.792C52.7861 81.336 52.9088 81.8267 53.1541 82.264C53.3995 82.6907 53.7248 83.032 54.1301 83.288C54.5355 83.544 54.9835 83.672 55.4741 83.672C55.7621 83.672 56.0395 83.624 56.3061 83.528C56.5835 83.432 56.8501 83.288 57.1061 83.096C57.3621 82.904 57.6021 82.6693 57.8261 82.392L58.7381 83.512C58.3968 83.992 57.9061 84.3867 57.2661 84.696C56.6368 85.0053 55.9808 85.16 55.2981 85.16ZM60.2926 85V73.16H61.9406V78.328L61.6526 78.52C61.7593 78.1467 61.9673 77.8053 62.2766 77.496C62.586 77.176 62.954 76.92 63.3806 76.728C63.8073 76.5253 64.2446 76.424 64.6926 76.424C65.3326 76.424 65.866 76.552 66.2926 76.808C66.7193 77.0533 67.0393 77.432 67.2526 77.944C67.466 78.456 67.5726 79.1013 67.5726 79.88V85H65.9246V79.992C65.9246 79.512 65.8606 79.1173 65.7326 78.808C65.6046 78.488 65.4073 78.2587 65.1406 78.12C64.874 77.9707 64.5433 77.9067 64.1486 77.928C63.8286 77.928 63.5353 77.9813 63.2686 78.088C63.002 78.184 62.7673 78.3227 62.5646 78.504C62.3726 78.6853 62.218 78.8987 62.1006 79.144C61.994 79.3787 61.9406 79.6347 61.9406 79.912V85H61.1246C60.986 85 60.8473 85 60.7086 85C60.57 85 60.4313 85 60.2926 85Z" fill="#8C8C8C"/>
<g filter="url(#filter1_d_419_109)">
<rect x="183" y="59" width="40" height="40" rx="10" fill="#00FF70"/>
<path fill-rule="evenodd" clip-rule="evenodd" d="M205.604 83.0158C204.252 84.0115 202.574 84.4598 200.906 84.2707C199.238 84.0816 197.703 83.2692 196.609 81.9963C195.515 80.7233 194.942 79.0838 195.005 77.4062C195.068 75.7286 195.762 74.1367 196.949 72.9497C198.136 71.7626 199.728 71.0679 201.406 71.0047C203.083 70.9416 204.723 71.5147 205.995 72.6092C207.268 73.7037 208.081 75.2388 208.27 76.9069C208.459 78.575 208.01 80.253 207.015 81.6046L210.682 85.271C210.78 85.3624 210.859 85.4727 210.914 85.5951C210.968 85.7176 210.997 85.8498 211 85.9839C211.002 86.118 210.978 86.2511 210.927 86.3755C210.877 86.4998 210.802 86.6127 210.708 86.7076C210.613 86.8024 210.5 86.8771 210.376 86.9273C210.251 86.9775 210.118 87.0022 209.984 86.9998C209.85 86.9975 209.718 86.9681 209.595 86.9136C209.473 86.859 209.363 86.7803 209.271 86.6822L205.604 83.0158ZM206.316 77.656C206.316 78.8918 205.825 80.0769 204.951 80.9508C204.078 81.8246 202.892 82.3155 201.657 82.3155C200.421 82.3155 199.236 81.8246 198.362 80.9508C197.488 80.0769 196.998 78.8918 196.998 77.656C196.998 76.4202 197.488 75.235 198.362 74.3612C199.236 73.4873 200.421 72.9964 201.657 72.9964C202.892 72.9964 204.078 73.4873 204.951 74.3612C205.825 75.235 206.316 76.4202 206.316 77.656Z" fill="black"/>
</g>
<defs>
<filter id="filter0_d_419_109" x="178" y="0" width="50" height="50" filterUnits="userSpaceOnUse" color-interpolation-filters="sRGB">
<feFlood flood-opacity="0" result="BackgroundImageFix"/>
<feColorMatrix in="SourceAlpha" type="matrix" values="0 0 0 0 0 0 0 0 0 0 0 0 0 0 0 0 0 0 127 0" result="hardAlpha"/>
<feMorphology radius="1" operator="dilate" in="SourceAlpha" result="effect1_dropShadow_419_109"/>
<feOffset/>
<feGaussianBlur stdDeviation="2"/>
<feComposite in2="hardAlpha" operator="out"/>
<feColorMatrix type="matrix" values="0 0 0 0 0 0 0 0 0 1 0 0 0 0 0.439216 0 0 0 0.4 0"/>
<feBlend mode="normal" in2="BackgroundImageFix" result="effect1_dropShadow_419_109"/>
<feBlend mode="normal" in="SourceGraphic" in2="effect1_dropShadow_419_109" result="shape"/>
</filter>
<filter id="filter1_d_419_109" x="178" y="54" width="50" height="50" filterUnits="userSpaceOnUse" color-interpolation-filters="sRGB">
<feFlood flood-opacity="0" result="BackgroundImageFix"/>
<feColorMatrix in="SourceAlpha" type="matrix" values="0 0 0 0 0 0 0 0 0 0 0 0 0 0 0 0 0 0 127 0" result="hardAlpha"/>
<feMorphology radius="1" operator="dilate" in="SourceAlpha" result="effect1_dropShadow_419_109"/>
<feOffset/>
<feGaussianBlur stdDeviation="2"/>
<feComposite in2="hardAlpha" operator="out"/>
<feColorMatrix type="matrix" values="0 0 0 0 0 0 0 0 0 1 0 0 0 0 0.439216 0 0 0 0.4 0"/>
<feBlend mode="normal" in2="BackgroundImageFix" result="effect1_dropShadow_419_109"/>
<feBlend mode="normal" in="SourceGraphic" in2="effect1_dropShadow_419_109" result="shape"/>
</filter>
</defs>
</svg>
