<?xml version="1.0" encoding="UTF-8"?><svg id="b" xmlns="http://www.w3.org/2000/svg" viewBox="0 0 397.89 286.03"><g id="c"><path d="M0,286.03V.03h72v286H0ZM60,54.03L60.22.03l146.78-.03v54.03H60ZM15,164.03v-52h141v52H15Z" fill="#49b692" stroke-width="0"/><path d="M96,286.03v-54h194.37c10.74,0,19.47-3.2,26.19-9.6,6.71-6.4,10.07-14.53,10.07-24.4,0-6.93-1.55-12.86-4.63-17.8-3.09-4.93-7.32-8.86-12.69-11.8-5.38-2.93-11.96-4.4-19.74-4.4h-112.57v-52h107.35c9.6,0,17.4-2.4,23.4-7.2,6-4.8,9-12,9-21.6s-3-17.2-9-22c-6-4.8-13.67-7.2-23-7.2h-54.75V.03h72.54c17.97,0,33.39,3.37,46.26,10.08,12.87,6.73,22.79,15.73,29.77,27.03,6.97,11.29,10.46,24.07,10.46,38.32,0,18.83-6.51,34.56-19.51,47.2-13.01,12.64-31.85,20.57-56.52,23.8v-24.61c27.09,3.23,48.01,12.04,62.76,26.42,14.75,14.39,22.13,32.47,22.13,54.25,0,15.87-4.02,30.19-12.07,42.96-8.05,12.78-19.38,22.73-33.99,29.85-14.62,7.13-31.85,10.69-51.7,10.69H96Z" fill="#f2b413" stroke-width="0"/></g></svg>