<?xml version="1.0" encoding="UTF-8"?><svg id="d" xmlns="http://www.w3.org/2000/svg" xmlns:xlink="http://www.w3.org/1999/xlink" viewBox="0 0 2782 301"><defs><filter id="e" filterUnits="userSpaceOnUse"><feOffset dx="5" dy="5"/><feGaussianBlur result="f" stdDeviation="4"/><feFlood flood-color="#000" flood-opacity=".5"/><feComposite in2="f" operator="in"/><feComposite in="SourceGraphic"/></filter><filter id="g" filterUnits="userSpaceOnUse"><feOffset dx="5" dy="5"/><feGaussianBlur result="h" stdDeviation="4"/><feFlood flood-color="#000" flood-opacity=".5"/><feComposite in2="h" operator="in"/><feComposite in="SourceGraphic"/></filter></defs><rect y="-1" width="2782" height="302" fill="#00ff70" stroke-width="0"/><g filter="url(#e)"><path d="M2264.26,313.73s1.5-34.67,29.72-67.07c28.22-32.4-12.42-100.15-.82-153.53,0,0-5.81-15.74-76.49-25.57,0,0-5.06,113.52-7.12,132.15,0,0,.3-53.71-3.02-74.83-3.32-21.12-5.82-58.17-4.57-60.86s-21.56-9.97-28.19-9.77c-6.63.2,5.4,44.92,10.17,69.98,4.77,25.05,8.93,72.66,2.5,79.49-6.42,6.82-26.32,7.41-26.32,7.41,0,0-1.25-39.74-8.72-66.04-7.47-26.3-21.37-88.21-29.66-98.57-8.29-10.36-90.58-9.24-132.04-18.62,0,0,52.25,99.22,46.66,132.54,0,0-15.96-.85-21.14,3.28s-16.17-7.48-17.83-18.03c-1.66-10.56-8.52-101.85-28.83-114.5-20.32-12.66-33.16.99-41.25-2.75,0,0,40.43,61.12,33.39,90.5,0,0-9.33-1.05-15.96-.85,0,0-3.32-21.12-10.16-27.54-6.84-6.43-10.78-4.98-10.78-4.98,0,0-1.25-39.74-18.87-51.15-17.62-11.41-45.19-1.31-54.52-2.36,0,0,12.23,8.92,15.13,16.79,2.9,7.87-10.36,8.26-15.75,5.77,0,0,9.54,7.67,9.95,20.92,0,0-12.44-15.54-26.95-12.46,0,0-4.56-18.43-12.65-22.17-8.08-3.74-89.96,10.63-109.86,11.22,0,0,27.16,19.08,26.12,28.4,0,0-10.36,8.26-22.39,5.97-12.02-2.29-7.26-19.67-20.52-19.28-13.27.39-42.9,29.12-45.39,34.5,0,0,8.08,3.74,8.29,10.36.21,6.62-2.49,5.38.42,13.25,2.9,7.87,26.33,35.02,32.96,34.82s146.13,2.29,152.77,2.09c6.63-.2,137.64,27.73,149.66,30.03,12.02,2.29,124.58,34.75,153.19,57.77,28.61,23.02,105.31,55.21,110.91,64.33s7.95-.61,7.95-.61Z" fill="#17872c" stroke="#094215" stroke-miterlimit="10"/><path d="M2313.26,354.47s15.49-37.64,29.58-53.97c14.09-16.33,34.08-52.5,31.65-68.45-2.44-15.95-7.42-47.63-48.26-79.57,0,0,11.82,38.1-27.76,88.34-39.58,50.24-34.21,72.91-34.21,72.91l49,40.74Z" fill="#17872c" stroke="#094215" stroke-miterlimit="10"/><path d="M2285.43,332.7s19.89-43.02,40.41-66.18c20.52-23.15,32.19-80.25,32.19-80.25" fill="#17872c" stroke="#094215" stroke-miterlimit="10"/><path d="M2444.76,522.22c6.13-10.14,12.85-13.64-3.74-34.36-16.59-20.72-101.8-112.34-120.87-127.68-19.07-15.34-61.22-54.57-106.14-81.71-34.52-20.85-134.23-66.95-168.33-74.56-20.49-4.57-118.67-36.91-185.94-43.53-30.84-3.03-172.87-8.12-234.64,12.28,0,0,5.91-2.16,60.21-6.43,54.31-4.27,145.72-10.96,215.37,8.18,69.65,19.15,137.64,27.73,198.38,59.08,60.74,31.34,120.03,58.75,155.48,88.2,35.45,29.44,136.41,115.28,161.92,166.24,25.51,50.96,21.36,45.78,28.3,34.3Z" fill="#094215" stroke="#094215" stroke-miterlimit="10"/><path d="M2261.31,311.42s1.62-39.71-.04-50.27c-1.66-10.56-6.85-48.86-28.41-58.83-21.56-9.97-43.32,15.87-60.31,24.34-17,8.46-85.39,29.06-117.73,14.11,0,0,50.16-9.45,58.86-28.27,0,0,33.37,5.64,45.19,1.31,11.81-4.33,55.13-20.2,74-11.48" fill="#17872c" stroke="#094215" stroke-miterlimit="10"/><path d="M2260.44,255.94s16.78-36.37,7.44-79.85c-9.34-43.48-2.43-98.33-2.43-98.33" fill="#17872c" stroke="#094215" stroke-miterlimit="10"/><path d="M2238.03,205.46c7.47-23.4-.02-106.45,2.88-133.85" fill="#267d39" stroke="#094215" stroke-miterlimit="10"/><path d="M2230.81,289.23c1.65-15.28-6.65-68.08-26.97-80.73" fill="#17872c" stroke="#094215" stroke-miterlimit="10"/><path d="M2193.67,265.72c-2.87-7.78-1.48-31.19-12.13-40.4" fill="#267d39" stroke="#094215" stroke-miterlimit="10"/><path d="M2158.86,213.81s-72.24,34.92-101.52,28.03" fill="#267d39" stroke="#094215" stroke-miterlimit="10"/><path d="M2137.76,215.21c1-7.43-9.37-126.86-36.13-174.93" fill="#17872c" stroke="#094215" stroke-miterlimit="10"/><path d="M2079.84,37.83c30.05,40.9,33.83,174.67,33.83,174.67,0,0-3.63-9.84-10.47-16.26-6.84-6.43-8.71-23.61-35.86-.26-27.15,23.35-25.28,40.53-55.54,49.39,0,0,74-11.48,91.4-49.13" fill="#17872c" stroke="#094215" stroke-miterlimit="10"/><path d="M2090.36,184.21s-12.85-127.42-35.72-148.46" fill="#17872c" stroke="#094215" stroke-miterlimit="10"/><path d="M2024.47,33.08s52.82,141.39,44.12,160.21c0,0-.42-13.25-19.28-21.97-18.86-8.72-23.62,51.09-75.02,63.23,0,0,20.31-29.78,33.98-59.35,13.67-29.58,35.65-6.36,41.04-3.87" fill="#17872c" stroke="#094215" stroke-miterlimit="10"/><path d="M1997.38,145.68s-27.57-32.33-64.47-23.28c0,0,43.12,19.93,48.52,64.86" fill="#17872c" stroke="#094215" stroke-miterlimit="10"/><path d="M1936.93,174.45s-17.4-76.19-40.2-83.46c0,0,22.39-5.97,31.71-4.92" fill="#17872c" stroke="#094215" stroke-miterlimit="10"/><path d="M1882.6,163.38s-22.24-67.99-22.66-81.24c-.42-13.25-16.59-20.72-41.67-16,0,0,23.39,7.39,21.34,35.9-2.05,28.5,17.44,57.1,17.44,57.1" fill="#17872c" stroke="#094215" stroke-miterlimit="10"/><path d="M1852.83,157.18s-23.36-30.38-29.37-52.74c-6.02-22.36-10.58-40.79-42.08-29.25-31.5,11.54-74,11.48-92.23,22.63-18.24,11.15-31.87,9.91-32.83,16.73" fill="#17872c" stroke="#094215" stroke-miterlimit="10"/><path d="M1815.35,158.05s-18.39-28.11-20.73-40.73c-2.35-12.61-15.36-34.76-19.14-39.96" fill="#267d39" stroke="#094215" stroke-miterlimit="10"/><path d="M1777,157.51s-13.86-28.74-15.52-39.29c-1.66-10.56-17.2-32.97-20.42-33.37" fill="#267d39" stroke="#094215" stroke-miterlimit="10"/><path d="M1758.99,157.65c-6-13.98-17.69-58.31-30.19-70.74" fill="#267d39" stroke="#094215" stroke-miterlimit="10"/><path d="M1726.88,157.7c-10.99-11.61-18.87-51.15-29.86-62.76" fill="#267d39" stroke="#094215" stroke-miterlimit="10"/><path d="M1693.72,158.69c-10.99-11.61-18.66-44.53-25.51-50.96" fill="#267d39" stroke="#094215" stroke-miterlimit="10"/><path d="M1625.11,172.66c-6.63.2-11.61-31.48,10.56-44.07,0,0,22.7,25.18,52.14,32.26" fill="#267d39" stroke="#094215" stroke-miterlimit="10"/><path d="M1647.49,166.69s-25.77-14.19-24.7-23.98" fill="#267d39" stroke="#094215" stroke-miterlimit="10"/></g><path d="M1824.62,88.78c33.2-16.65,44.37-38.67,44.37-38.67-10.17-3.55-33.17-23.68-33.17-23.68,2.02,3.18-3.68,12.55-9.35,18.56-5.67,6.01-29.32,10.74-17.71-4.72,11.61-15.46,12.43-21.78,12.43-21.78,0,0-13.11-2.05-24.34-8.01-11.23-5.96-19.63-23.61-19.63-23.61-2.53,2.61-3.16,6.76-15.65,9.1s-11.64,1.47-10.77,14.59-3.68,12.55-11.75-.17c-8.07-12.72-2.26-20.45-5.23-24.41s-22.22,5.34-27.5,7.28.68,23.83,9.41,46.4c8.72,22.57-5.15,17.57-18.21-2.29-13.06-19.86-11.87-37.66-11.87-37.66-3.12-1.1-22.1,15.66-26.95,24.16-4.85,8.5,13.06,47.02,27.81,65.14s4.72,30.2-20.2,8.53c-24.92-21.67-27.62-48.69-27.62-48.69,0,0-31.13,20.65-23.69,37.53,13.06,29.6,55.12,68.57,73.14,81.56,18.02,13-10.66,16.23-48.06-3.1-37.4-19.33-40.86-57.83-40.86-57.83,0,0-25.95,17.07-22.21,32.51,6.02,24.89,38.38,61.26,48.88,69.73,10.49,8.47,12.43,24.01-11.72,13.82-24.15-10.19-40.62-40.56-40.62-40.56,0,0-6.76,6.96.6,36.19,7.36,29.23,39.55,38.15,56.29,45.45,16.74,7.31,77.82,16.28,79.43,26.89,1.61,10.61-31.84,9.99-61.79,7.53s-63.68-34.34-63.68-34.34c0,0-4.33,2.71,17.53,32.78,21.86,30.07,70.85,19.95,74.99,27.96,4.14,8-39.77,12.9-39.77,12.9,70,20.82,111.4-21.8,113.7-22.74,0,0,3.51-6.79,8.07-1.15,4.56,5.64,38.23,13.39,67.13,13.44,28.89.05,64.52-20.85,82.37-37.48,17.85-16.63,17.61-33.9,17.61-33.9-14.04,19.71-46.94,27.29-60.16,32.14-13.22,4.85-42.22,3.16-41.92-5.91.3-9.07,28.02-13.07,47.59-17.45,19.57-4.37,66.4-33.31,67.65-41.61,1.25-8.3-3.79-43.42-3.79-43.42-27.67,31.99-76.76,40.46-83.84,42.5-7.09,2.04-61.47,12.45-60.88,1.33.59-11.12,11.02-4.34,21.6-8.21,10.58-3.88,62.42-11.68,79.02-20.01,16.6-8.33,42.39-27.86,40.89-36.83-1.5-8.97-13.41-38.77-13.41-38.77-19.52,32.36-67.65,41.61-80.98,44.81-13.33,3.21-49.2,6.84-34.95-9.59s120.92-28.09,114.73-53.26c-6.19-25.18-33.85-39.75-33.85-39.75-.95,7-22.47,34.63-53.24,47.04-30.77,12.4-39.06-3.6-5.86-20.25ZM1692.69,235.91c8.67,8.67-6.13,16.9-13.33,17.3s-16.52-4.03-18.75-10.49c-2.24-6.46,23.41-15.49,32.08-6.81ZM1814.6,291.01c.22,3.28-5.81,7.73-8.56,7.06-3.89-.95-8.37-3.65-4.99-7.13s13.33-3.21,13.55.07ZM1797.17,151.21c2.13,4.82-3.6,10.16-9.19,11.21-6.24,1.17-7.63-6.16-3.52-12.15,4.12-5.99,10.58-3.88,12.7.94ZM1766.8,47.53c1.58-3.38,8.95-6.74,9.82-4.49.87,2.25.02,3.12-2.51,5.73-3.48,3.59-8.89,2.14-7.31-1.24Z" fill="#297235" stroke="#042b0a" stroke-linecap="round" stroke-linejoin="round"/><path d="M1837.12,466.74s-56.14-55.94-69.79-99.04c-14.86-46.92-64.67-157.76,9.25-376.69,0,0-62.58,172.21-12.44,342.3,0,0,1.45,35.32,72.98,133.43Z" fill="#042b0a" stroke="#042b0a" stroke-linecap="round" stroke-linejoin="round" stroke-width="2"/><path d="M1751.47,300.63c.29.5.43.84.4,1.27.04.3-.23.38-.41.52-.48.34-1.92,1.34-2.44,1.68-27.08,17.75-64.5,37.15-97.45,36.64-5.23-.12-10.46-.82-15.46-2.36-.26-.08-.41-.36-.33-.62.08-.26.34-.4.6-.34,34.6,8.05,82.02-17.77,110.49-36.5,0,0,1.57-1.09,1.57-1.09l.77-.54c.14-.07.22-.22.4-.23.14,0,.28.13.39.25.11.09.43.4.75.62.27.18.56.41.72.7h0Z" fill="#042b0a" stroke-width="0"/><path d="M1749.68,295.84c-38.17,13.4-89.02,22.76-127.54,7.1-5.72-2.42-11.18-5.44-16.23-9.05-.22-.16-.28-.47-.12-.7.16-.22.47-.28.7-.12,5.06,3.45,10.5,6.29,16.17,8.55,28.88,10.89,60.9,7.58,90.4.91,11.85-2.8,23.7-6.31,35-10.73,2.66-1.06,4.38,2.9,1.61,4.04h0Z" fill="#042b0a" stroke-width="0"/><path d="M1746.54,272.22c-.79,1.94-1.73,2.15-2.64,2.11-6.36.2-12.74.05-19.09-.31-37.02-2.17-73.94-11.84-106.28-30.21-11.72-6.8-22.83-14.69-32.91-23.74-.21-.18-.23-.5-.05-.71.18-.2.49-.23.7-.06,41.97,33.66,96.18,49.35,149.47,50.17,2.66.02,5.32,0,7.97-.1.88-.11,1.75.02,2.75,1.85.18.31.2.69.07,1h0Z" fill="#042b0a" stroke-width="0"/><path d="M1737.33,222.81c-1.05,1.78-1.54,1.78-3,1.49,0,0-2.7-.46-2.7-.46-49.51-8.96-114.32-30.04-139.13-77.43,0,0-2.3-4.97-2.3-4.97-.12-.25,0-.55.24-.66.26-.12.55,0,.67.25,1.5,2.95,3.59,6.66,5.36,9.35,27.76,41.44,88.94,60.27,135.97,68.68,0,0,2.66.44,2.66.44,0,0,.67.1.67.1.22.04.45.04.65.18.41.27.79.78,1.05,2.05.07.35.01.7-.15.99h0Z" fill="#042b0a" stroke-width="0"/><path d="M1744.98,169.78c-1.94,1.02-3.62.54-5.26.08-4.96-1.27-9.84-2.87-14.63-4.67-31.58-12.21-61.01-31.95-81.34-59.32-7.96-11.01-14.28-23.32-17.73-36.45-.07-.27.09-.54.36-.61.26-.07.53.08.61.34,1.99,6.41,4.59,12.61,7.71,18.53,20.19,37.48,61.09,64.88,101.08,77.46,1.6.45,3.2.93,4.81,1.31,1.61.42,3.24.6,4.59,2.36.26.31.17.8-.2.98h0Z" fill="#042b0a" stroke-width="0"/><path d="M1745.58,109.86c-.54.39-.95.62-1.42.42,0,0-.75-.53-.75-.53l-1.49-1.07c-25.14-18.62-52.35-44.55-64.87-73.64-1.85-4.55-3.27-9.31-3.93-14.19-.04-.27.15-.53.43-.56.27-.04.52.15.56.41.89,4.73,2.48,9.31,4.43,13.7,13.44,28.18,40.46,53.19,65.33,71.59,0,0,1.48,1.05,1.48,1.05l.74.53c.5.53.12,1.84-.5,2.3h0Z" fill="#042b0a" stroke-width="0"/><path d="M1757.08,64.8c-1.32.32-1.97-.26-2.6-.82-.66-.54-1.3-1.1-1.94-1.65-3.84-3.35-7.45-6.95-10.86-10.73-13.27-15-24.58-34.27-23-54.96.07-.56.95-.67,1,.05-.24,23.67,14.75,44.28,31.12,60.07,1.81,1.7,3.67,3.35,5.58,4.93.65.52,1.33.97,1.31,2.34,0,.38-.26.7-.62.79h0Z" fill="#042b0a" stroke-width="0"/><path d="M1763.31,35.63c13.76-.61,34.94-8.87,42.02-21.26.26-.59,1.2-.17.9.43-5.62,10.68-19.3,17.45-30.35,21.1-4.01,1.25-8.16,2.18-12.42,2.49-.76.06-1.43-.52-1.49-1.28-.06-.78.55-1.46,1.33-1.49h0Z" fill="#042b0a" stroke-width="0"/><path d="M1753.99,79.53c26.12-3.33,52.63-8.62,76.48-20.12,7.77-3.97,15.41-8.84,20.75-15.86.17-.22.48-.27.7-.1.22.16.26.47.11.69-2.61,3.69-5.9,6.83-9.44,9.57-10.7,8.17-23.35,13.32-35.99,17.66-16.98,5.61-34.41,9.56-52.12,12.15-2.65.31-3.21-3.62-.5-3.99h0Z" fill="#042b0a" stroke-width="0"/><path d="M1746.16,142.93c52-6.19,114.83-13.64,153.13-52.88.19-.2.5-.22.71-.03.2.19.21.5.03.7-37.93,40.28-101.03,48.98-153.34,56.16-2.59.33-3.23-3.55-.54-3.96h0Z" fill="#042b0a" stroke-width="0"/><path d="M1745.65,176.12c46.78,16.31,105.01,20.25,148.94-5.9,6.27-3.82,12.19-8.21,17.7-13.08.21-.18.52-.16.71.04.18.2.16.51-.04.7-5.45,5.03-11.34,9.59-17.6,13.59-31.8,20.03-71.17,23.57-107.77,18.94-14.82-1.93-29.41-4.94-43.6-9.83-2.93-1.12-1.4-5.54,1.66-4.46h0Z" fill="#042b0a" stroke-width="0"/><path d="M1747.18,242.44c.88-1.72,1.18-.92,1.68-.95.82.18,3.3.74,4.17.92,49.49,10.6,104.17,11.37,149.72-13.34,6.66-3.63,13.06-7.75,19.15-12.31.22-.17.53-.12.7.1.16.21.12.52-.08.69-47.94,39.27-115.02,40.72-173.04,27.76,0,0-1.4-.31-1.4-.31-.44-.24-1.06.35-1.11-1.58,0-.35.08-.69.22-.97h0Z" fill="#042b0a" stroke-width="0"/><path d="M1754.65,290.16c43.5,20.54,96.53,22.56,139.21-1.18,6.05-3.33,11.87-7.05,17.49-11.07.22-.17.54-.12.7.11.16.22.11.53-.11.69-5.6,4.12-11.42,7.94-17.47,11.37-39.76,22.78-89.24,23.31-131.43,6.92-3.26-1.26-6.49-2.59-9.68-4.03-.78-.35-1.13-1.27-.77-2.05.35-.79,1.29-1.13,2.07-.76h0Z" fill="#042b0a" stroke-width="0"/><path d="M1310.9,161.92c10.82,22.4,7.74,49.46,4.36,54.13,0,0,24.16,4.67,41.85-7.47,17.7-12.13-37.37-70.93-36.38-87.73s19.67,2.8,25.57,11.2c5.9,8.4,28.52,37.33,21.63,66.26,0,0,23.6-12.13,29.5-16.8,5.9-4.67,1.97-28.93-2.95-42-4.92-13.07-30.48-42.93-34.42-50.4-3.93-7.47-13.77-8.45-7.87-15.42,5.9-6.97,31.47,25.69,34.42,30.36,2.95,4.67,26.55,33.6,24.58,66.26,0,0,22.62-18.67,26.55-24.26,3.93-5.6-6.88-45.73-15.73-57.86-8.85-12.13-22.62-28-17.7-33.6,4.92-5.6,22.62,7.47,27.53,16.8,4.92,9.33,19.67,29.86,16.72,48.53,0,0,9.83-10.27,8.85-28.93s-9.83-48.53-26.55-62.53-40.51-25.68-46.31-24.51-4.02-4.61-4.02-4.61c-.8-1.68-.8-47.41-52.92-68.88,0,0,22.62,24.26,15.73,27.06s-29.5-27.06-59-19.6c-29.5,7.47-28.52,11.2-28.52,11.2,0,0,37.37-2.8,56.05,10.27s38.35,28.93,31.47,34.53-47.2-18.67-60.97-22.4c-13.77-3.73-37.37-14-58.02,0-20.65,14-20.65,21.47-20.65,21.47,0,0,26.55-10.27,46.22-4.67,19.67,5.6,9.83,14-.98,14-10.82,0-49.92,6.16-67.36,18.2-10.82,7.47-5.41,30.33-5.41,30.33,0,0,23.6-21.47,56.05-14.93,32.45,6.53,47.2,22.4,29.5,21.47-17.7-.93-63.86,2.07-88.01,13.53-13.77,6.53-7.37,34.06-7.37,34.06,0,0,16.72-14.93,43.27-15.87,26.55-.93,25.57,11.2,6.88,14.93-18.68,3.73-50.64,18.2-52.61,25.66-1.97,7.47-.41,26.76,2.01,27.61,0,0,9.3-11.28,27.98-16.88,18.68-5.6,29.5-1.87,11.8,7.47-17.7,9.33-33.43,19.6-31.47,23.33s7.87,18.67,11.8,17.73,4.92-8.4,16.72-12.13c11.8-3.73,14.75-1.87,6.88,5.6-7.87,7.47-7.87,6.53-1.97,14s3.93,10.27,3.93,13.07c0,0,14.75-6.53,24.58-4.67,9.83,1.87,18.55,7,18.55,7,0,0,3.08-4.2,5.04-19.13,1.97-14.93,12.98-.61,12.88,5.76-.1,6.37-2.06,14.77-5.01,15.7,0,0,24.58-.93,32.45,1.87,0,0,5.9-18.67-3.93-44.8-9.83-26.13,3.93-31.73,14.75-9.33ZM1287.79-.94c4.92-2.8,12.66-1.05,16.72,2.8s7.87,15.87-2.01,16.87c-9.88,1.01-19.62-16.87-14.71-19.67ZM1395.95,38.26c0-3.73,4.1-3.19,6.88-1.87,1.97.93,2.95,6.53.98,8.4s-7.87-2.8-7.87-6.53ZM1307.46,114.79c.98-5.6,5.9-9.33,8.85-5.6,2.64,3.34,2.95,9.33-.98,11.2s-8.85,0-7.87-5.6ZM1244.52,170.78c0,2.8,0,3.73-1.76,4.67s-4.14-4.67-3.15-7.47,4.92-1.05,4.92,2.8Z" fill="#0a4412" stroke="#042b0a" stroke-linecap="round" stroke-linejoin="round"/><path d="M1515.43-49.93s-63.81,6.38-95.87,25.66c-34.91,21-125.86,63.46-206,230.98,0,0,60.47-133.92,184.86-211.85,0,0,20.65-20.53,117.01-44.8Z" fill="#042b0a" stroke="#042b0a" stroke-linecap="round" stroke-linejoin="round" stroke-width="2"/><path d="M1371.86,8.39c-.38-.04-.82-.03-.96-.02l-.29.04c-.05-.02-.13-.03-.16-.06-.11-.1-.07-.22-.11-.32,0,0-.14-.69-.14-.69l-.29-1.4c-5.96-25.08-18.59-63.3-42.99-75.49-.25-.12-.36-.42-.24-.67.12-.23.39-.34.63-.24,3.68,1.45,7.11,3.52,10.22,5.96,19.13,15.39,29.48,43.54,35.45,66.74.2.87.82,3.46.99,4.33,0,0,.15.74.15.74,0,.13.09.25.03.39-.47.59-1.5.84-2.3.68h0Z" fill="#042b0a" stroke-width="0"/><path d="M1365.49,12.15c-14.13-27.42-36.7-57.04-67.05-66.93-4.43-1.33-8.99-2.2-13.62-2.59-.28-.02-.49-.26-.47-.54.02-.27.26-.47.53-.46,4.71.26,9.39,1,13.96,2.23,13.7,3.87,25.88,11.92,36.26,21.49,10.43,9.61,19.33,20.76,27.05,32.63,2.57,3.98,5,7.98,7.25,12.26.56,1.06.15,2.38-.92,2.94-1.1.58-2.48.11-2.99-1.02h0Z" fill="#042b0a" stroke-width="0"/><path d="M1353.32,23.68c-1.8.89-2.39.57-2.84.05-1.5-1.35-3.09-2.75-4.65-4.02-23.47-19.06-51.46-32.8-81.1-38.97-10.81-2.26-21.87-3.37-32.98-3.58-.28,0-.5-.23-.5-.51,0-.26.21-.47.47-.49,11.16-.67,22.43-.08,33.53,1.67,27.82,4.53,54.3,16.24,76.99,32.89,3.98,2.92,7.88,6.04,11.56,9.34.58.42,1.01,1.05.21,2.9-.14.33-.4.57-.7.71h0Z" fill="#042b0a" stroke-width="0"/><path d="M1320.44,49.05c-1.15.97-1.6,1.33-2.36.86-.24-.15-2-1.16-2.29-1.33-28.14-15.59-59.54-28.14-92.1-28.33-11.25.04-22.55,1.97-33.04,6.33-.25.11-.55-.01-.66-.27-.1-.24,0-.52.23-.64,10.28-5.23,21.84-7.76,33.38-8.34,29.01-1.14,57.37,8.34,83.11,20.95,4.51,2.23,8.98,4.63,13.34,7.14,0,0,.47.27.47.27.15.1.32.16.43.34.35.26.22,2.38-.53,3.01h0Z" fill="#042b0a" stroke-width="0"/><path d="M1295.14,84.67c-1.85.64-2.93-.06-4.14-.62-3.61-1.67-7.34-3.09-11.13-4.33-25.37-8.05-53.04-10.34-79.11-4.4-10.43,2.4-20.49,6.38-29.72,11.89-.24.14-.54.07-.69-.17-.14-.23-.07-.53.15-.67,9.02-6.08,19.19-10.39,29.71-13.25,26.48-6.69,54.8-4.95,80.74,3.29,4.52,1.55,9.18,3.07,13.35,5.4.62.45,2.07,2.31.83,2.85h0Z" fill="#042b0a" stroke-width="0"/><path d="M1262.23,121.08c-.22.59-.36,1.01-.81,1.12,0,0-.73-.04-.73-.04l-1.47-.08c-26.28-1.22-66.4,1.49-88.12,17.12-.22.18-.55.14-.72-.09-.16-.22-.12-.52.09-.68,4.59-3.8,9.96-6.84,15.46-9.11,20.33-8.31,42.68-10.71,64.49-10.8,1.89.03,7.12.12,8.97.26,0,0,1.49.07,1.49.07l.75.04c.64.21.84,1.55.61,2.19h0Z" fill="#042b0a" stroke-width="0"/><path d="M1243.64,153.76c-.7,1.08-1.36,1.02-2.04,1-.67-.01-1.35.02-2.02.05-4.06.12-8.11.53-12.13,1.11-15.9,2.39-32.27,7.82-43.5,19.85-.39.45-1.18-.14-.76-.64,12.51-15.35,33.06-21.36,52.12-23.04,2.08-.17,4.18-.28,6.27-.31.7-.02,1.41-.09,2.08.99.2.32.18.71-.02,1h0Z" fill="#042b0a" stroke-width="0"/><path d="M1232.7,171.64c7.91,8.05,14.86,24.03,11.42,35.24-.22.61-1.15.3-.95-.33,2.16-8.86-1.96-18.51-6.59-25.96-1.67-2.55-3.59-4.94-5.8-6.94-1.35-1.27.55-3.31,1.91-2.01h0Z" fill="#042b0a" stroke-width="0"/><path d="M1252.91,140.09c14.25,16.86,37.5,48.49,34.11,71.36-.12.61-1.07.51-.99-.15,1.87-18.3-12.71-39.22-23.28-53.35-4.06-5.25-8.33-10.36-12.83-15.18-1.78-1.99,1.15-4.7,2.99-2.69h0Z" fill="#042b0a" stroke-width="0"/><path d="M1283.97,98.21c26.43,30.06,57.76,66.13,56.93,108.51-.01.28-.25.49-.52.48-.27-.01-.48-.24-.48-.51.1-31.56-18.78-59.2-38.12-82.67-6.64-7.95-13.72-15.47-20.79-23.17-1.74-1.98,1.17-4.66,2.99-2.64h0Z" fill="#042b0a" stroke-width="0"/><path d="M1301.06,76.39c35.87,13.79,72.32,40.8,82.49,79.53,1.36,5.48,2.17,11.07,2.49,16.69.02.28-.2.51-.47.53-.28.02-.51-.2-.53-.47-.47-5.54-1.42-11.03-2.91-16.37-7.67-26.97-29.09-47.57-52.65-61.5-9.46-5.57-19.55-10.46-29.93-13.9-2.99-1-1.57-5.52,1.51-4.51h0Z" fill="#042b0a" stroke-width="0"/><path d="M1338.06,40.47c.22-.27.58-.75.89-.89.23-.12.44.15.65.21.57.28,2.31,1.18,2.91,1.48,39.46,19.89,77.3,53.95,82.51,100.1.03.27-.16.52-.44.56-.27.03-.51-.15-.55-.41-.98-5.65-2.38-11.22-4.2-16.63-12.53-37.14-45.12-63.11-78.96-80.42-.81-.41-2.54-1.28-3.35-1.69-.16-.2-.08-.53-.05-.81.13-.47.23-1.13.58-1.49h0Z" fill="#042b0a" stroke-width="0"/><path d="M1369.51,13.53c35.97,9.08,68.9,34.18,80.02,70.52,1.58,5.05,2.8,10.2,3.71,15.39.05.27-.13.53-.41.58-.27.05-.53-.13-.58-.41-1-5.14-2.28-10.21-3.93-15.17-11.53-35.53-44.09-59.56-79.57-67.91-1.95-.48-1.31-3.49.75-3.01h0Z" fill="#042b0a" stroke-width="0"/><path d="M2500.13,168.75c24.11-14.09,31.29-32.29,31.29-32.29-7.87-2.79-26.37-19.01-26.37-19.01,1.7,2.58-2.07,10.34-6.01,15.35-3.94,5.01-21.52,9.18-13.63-3.65s8.15-18.03,8.15-18.03c0,0-10.01-1.51-18.82-6.26s-16.14-19.12-16.14-19.12c-1.77,2.17-2,5.59-11.29,7.66-9.29,2.08-8.7,1.35-7.3,12.11,1.4,10.75-2.07,10.34-8.87,0-6.81-10.34-2.86-16.75-5.33-19.96-2.46-3.2-16.46,4.67-20.34,6.33-3.88,1.66,1.86,19.55,9.72,37.95s-2.89,14.48-13.87-1.64c-10.97-16.12-11.08-30.74-11.08-30.74-2.41-.86-15.79,13.13-18.97,20.17-3.18,7.04,12.51,38.41,24.66,53.09,12.15,14.68,5.26,24.71-14.76,7.25-20.02-17.46-23.58-39.59-23.58-39.59,0,0-22.32,17.34-15.75,31.09,11.52,24.12,45.46,55.55,59.78,65.99,14.33,10.43-7.12,13.45-36.43-1.93-29.31-15.39-34.09-46.93-34.09-46.93,0,0-18.61,14.34-14.92,26.95,5.95,20.34,32.42,49.77,40.81,56.59,8.4,6.82,10.73,19.54-8.06,11.49-18.8-8.05-32.93-32.76-32.93-32.76,0,0-4.71,5.8,2.5,29.68s32,30.79,45.03,36.57c13.04,5.78,59.63,12.36,61.44,21.05,1.81,8.69-23.45,8.6-46.19,6.97-22.74-1.64-49.98-27.37-49.98-27.37,0,0-3.12,2.28,15.08,26.67,18.19,24.39,54.58,15.47,58.15,21.98,3.58,6.51-29.27,11.09-29.27,11.09,53.99,16.19,82.82-19.31,84.5-20.11,0,0,2.26-5.61,6.02-1.04,3.76,4.57,29.6,10.5,51.4,10.17s47.5-17.93,60.03-31.8c12.53-13.87,11.37-28.04,11.37-28.04-9.48,16.35-33.87,22.99-43.57,27.13-9.7,4.14-31.68,3.13-31.96-4.32s20.4-11.08,34.92-14.92c14.52-3.84,48.21-28.17,48.69-35,.48-6.83-5.31-35.57-5.31-35.57-19.07,26.6-55.62,34.18-60.86,35.94s-45.67,11-45.85,1.87,8.07-3.7,15.83-7.01c7.76-3.32,46.43-10.38,58.49-17.42s30.4-23.4,28.77-30.74c-1.64-7.34-12.31-31.64-12.31-31.64-12.9,26.8-48.69,35-58.57,37.8-9.87,2.8-36.73,6.24-26.91-7.42,9.83-13.66,89.64-24.59,83.55-45.16-6.09-20.58-27.78-32.18-27.78-32.18-.32,5.75-14.99,28.7-37.51,39.27-22.52,10.57-29.67-2.46-5.57-16.54ZM2408.91,291.14c7.03,7.01-3.67,13.94-9.08,14.36-5.57.43-12.69-3.09-14.74-8.36-2.05-5.27,16.79-13,23.82-6ZM2503.99,334.79c.35,2.69-3.94,6.42-6.06,5.9-2.99-.73-6.52-2.89-4.17-5.79,2.35-2.9,9.87-2.8,10.22-.11ZM2482.95,220.32c1.88,3.93-2.14,8.38-6.3,9.31-4.64,1.04-6.11-4.96-3.34-9.93s7.76-3.32,9.64.61ZM2454.18,135.64c1-2.79,6.37-5.64,7.15-3.81.78,1.84.19,2.56-1.57,4.73-2.43,2.99-6.58,1.87-5.58-.93Z" fill="#0a4412" stroke="#042b0a" stroke-linecap="round" stroke-linejoin="round"/><path d="M2530.91,478.68s-45.51-45.18-58.24-80.36c-13.86-38.31-57.69-128.61-14.3-309.17,0,0-37.48,142.08,9.95,280.99,0,0,3.09,28.96,62.59,108.54Z" fill="#042b0a" stroke="#042b0a" stroke-linecap="round" stroke-linejoin="round" stroke-width="2"/><path d="M2451.58,320.33c-.55,1.94-1.28,2.16-1.99,2.12l-2.14.09c-32.36.75-65.08-7.04-93.22-23.13-9.73-5.63-18.85-12.28-27.09-19.84-.2-.19-.22-.5-.03-.71.18-.2.48-.22.68-.05,8.76,6.83,18.04,12.95,27.86,18.01,19.57,10.15,41.02,16.54,62.87,19.31,10.2,1.3,20.52,1.92,30.8,1.38.68-.11,1.34.01,2.17,1.83.16.32.19.68.1,1h0Z" fill="#042b0a" stroke-width="0"/><path d="M2441.8,279.91c-.9,1.76-1.15,1.85-2.42,1.59,0,0-2.14-.35-2.14-.35-41.38-7.43-92.19-25.45-111.11-66.16-.11-.25,0-.55.25-.66.24-.11.52,0,.64.22,5.39,10,12.95,18.62,21.66,25.75,17.54,14.31,38.84,23.2,60.43,29.5,10.18,2.93,20.55,5.28,31.02,6.9,0,0,.52.08.52.08.17.03.35.03.51.15.4.13,1.08,2.11.63,2.99h0Z" fill="#042b0a" stroke-width="0"/><path d="M2444.57,236.3c-1.47,1.03-2.81.74-4.29.31-3.99-1.03-7.91-2.34-11.74-3.82-25.33-9.96-48.41-26.46-64.75-48.35-6.36-8.85-11.54-18.61-14.71-29.01-.08-.26.07-.54.33-.62.26-.08.53.06.62.31,13.79,37.54,50.21,64.84,87.29,77.02,1.27.36,2.54.75,3.83,1.06,1.29.33,2.57.47,3.6,2.13.21.33.12.76-.19.98h0Z" fill="#042b0a" stroke-width="0"/><path d="M2441.6,187.12c-.5.39-.84.66-1.28.51,0,0-.6-.44-.6-.44-.72-.54-2.86-2.09-3.62-2.66-11.03-8.44-21.51-17.94-30.64-28.39-7.19-8.24-13.84-17.15-18.71-26.99-2.13-4.49-3.91-9.28-4.87-14.17-.06-.27.11-.54.38-.59.27-.06.54.12.59.39,7,25.82,36.43,53.22,57.61,68.85,0,0,1.19.87,1.19.87l.59.43c.41.52-.13,1.77-.66,2.2h0Z" fill="#042b0a" stroke-width="0"/><path d="M2447.73,150c-1.2.41-1.71-.09-2.24-.55-3.74-3.13-7.22-6.57-10.5-10.17-10.92-12.33-20.19-27.83-20.11-44.76.03-.6.94-.68,1-.02,1.13,16.42,10.41,30.96,21.25,42.83,2.76,2.98,5.64,5.86,8.72,8.51.51.44,1.01.9,1.54,1.31.54.41,1.09.78.95,2.06-.03.37-.29.67-.62.79h0Z" fill="#042b0a" stroke-width="0"/><path d="M2450.91,125.68c10.63-.7,25.69-7.69,30.35-17.73.22-.6,1.17-.28.94.34-3.63,8.83-13.14,14.47-21.66,17.86-3.01,1.12-6.15,1.96-9.42,2.29-.76.08-1.44-.48-1.52-1.24-.08-.79.52-1.49,1.31-1.53h0Z" fill="#042b0a" stroke-width="0"/><path d="M2446.32,161.7c20.84-3.19,48.28-9.48,64.74-23.06,2.49-2.14,4.74-4.58,6.47-7.37.14-.24.45-.31.69-.17.23.14.3.44.17.67-1.68,2.97-3.93,5.58-6.41,7.89-7.51,6.87-16.84,11.37-26.17,15.15-12.58,4.91-25.59,8.44-38.88,10.85-2.66.4-3.31-3.54-.61-3.98h0Z" fill="#042b0a" stroke-width="0"/><path d="M2443.99,213.83c39.14-5.65,85.96-12.65,112.45-45.01.17-.22.48-.26.7-.09.21.17.26.48.09.69-26.02,33.4-73.17,41.7-112.6,48.35-2.61.42-3.33-3.46-.65-3.94h0Z" fill="#042b0a" stroke-width="0"/><path d="M2445.82,241.02c30.58,10.88,66.65,14.54,97.15,1.59,10.2-4.37,19.4-10.9,27.07-18.94.19-.2.51-.2.71-.01.2.19.2.5.02.7-3.79,4.16-7.94,8-12.45,11.39-22.99,17.1-53.23,20.5-81.01,17.14-11.29-1.39-22.36-3.67-33.17-7.41-2.95-1.14-1.36-5.56,1.68-4.45h0Z" fill="#042b0a" stroke-width="0"/><path d="M2450.44,295.71c.14-.34.4-.86.66-1.08.2-.16.46.03.68.04.61.14,2.5.55,3.14.69,37.18,7.89,78.86,8.28,111.99-12.65,4.83-3.05,9.42-6.49,13.75-10.26.21-.18.52-.16.71.04.18.2.16.51-.03.69-33.74,33.09-85.53,35.17-129.29,25.23,0,0-1.06-.23-1.06-.23-.21-.08-.52-.02-.64-.25-.22-.58-.2-1.66.09-2.23h0Z" fill="#042b0a" stroke-width="0"/><path d="M977.63,136.98c-26.2-3.22-49.25-21.1-51.71-26.64,0,0-17.14,18.29-15.51,40.44,1.63,22.14,84.64,7.51,99.44,17.8,14.8,10.29-13.04,15.45-23.85,15.84-10.81.39-49.27,3.71-71.99-18.51,0,0-1.52,27.25-.41,34.98,1.11,7.73,25.35,17.96,39.89,21.05,14.54,3.09,55.42-2.27,64.33-1.48,8.91.79,15.05-7.17,18.27,1.86s-40.22,12.81-46.05,12.74c-5.83-.07-44.81,4.11-73.56-15.95,0,0,4.97,30.07,7.98,36.62,3.01,6.55,45.39,19.74,61.18,18.9s37.61-3.85,40.09,3.56c2.49,7.4-18.87,15.39-30.01,14.4-11.14-.99-37.74.24-53.19-12.8,0,0,4.12,14.28,21.67,23.92,17.55,9.64,49.52,18.76,71.21,12.15,21.69-6.61,45.04-20.65,47.06-26.33s6.35-.89,6.35-.89c1.96.25,43.68,25.95,91.06-7.11,0,0-34.2,5.95-33.08-1.59,1.12-7.53,40.43-10.33,49.35-40.07,8.92-29.74,4.99-30.98,4.99-30.98,0,0-17.38,33.93-39.26,42.76s-46.85,16.95-48.29,7.84,42.2-30.38,52.95-40.2,32.7-24.49,30.94-50.23c-1.76-25.75-8.57-29.94-8.57-29.94,0,0-4.8,28.76-20.39,42.64-15.6,13.88-18.02.65-12.25-8.72s21-46.68,19.32-68.55c-1.04-13.56-24.79-21.73-24.79-21.73,0,0,7,32.5-16.27,56.92-23.27,24.43-45.61,28.28-35.32,13.48,10.29-14.8,32.17-56.46,34.6-83.81,1.38-15.59-27.14-25.53-27.14-25.53,0,0,4.71,22.87-8.6,46.38-13.31,23.51-23.85,15.84-17.29-2.43,6.56-18.27,10.41-54.08,4.65-59.97-5.76-5.9-24.19-15.4-26.26-13.78,0,0,5.33,14.39.47,33.72s-14.03,26.59-13.11,6.02c.93-20.57-.05-39.96-4.5-40.36s-21.22-3.68-22.47.25,5.04,8.98,2.15,21.29c-2.89,12.31-6.16,13.82-8.78,2.81-2.62-11.01-1.76-10.48-11.72-9.57s-11.46-2.36-14.02-3.94c0,0-1.91,16.44-8.86,23.91-6.95,7.47-16.28,12.13-16.28,12.13,0,0,2.19,5.03,14.76,15.12,12.57,10.09-6.37,11.58-12.13,7.91-5.76-3.66-12.37-10.09-11.65-13.17,0,0-12.26,21.81-19.01,27.05,0,0,13.88,15.6,42.97,21.77,29.08,6.17,26.85,21.24.65,18.02ZM1138.53,208.49c-.07,5.83-5.8,11.55-11.47,12.9s-18.67-2.1-14.32-11.22c4.35-9.12,25.86-7.51,25.79-1.68ZM1045.08,280.12c3.41,2.1.72,5.34-1.97,7.01-1.9,1.18-7.53-1.12-8.19-3.87s6.75-5.24,10.16-3.14ZM1022.46,160.48c4.58,4,5.37,10.35.39,10.81-4.45.41-10.09-2.69-9.69-7.15s4.72-7.66,9.3-3.66ZM1004.94,74.52c-2.55-1.57-3.41-2.1-3.32-4.15s6.46-.96,8.49,1.47-1.67,4.85-5.18,2.68Z" fill="#186d28" stroke="#042b0a" stroke-linecap="round" stroke-linejoin="round"/><path d="M1061.81,433.13s28.22-58.84,27.72-97.44c-.54-42.03,9.24-144.65-100.85-308.18,0,0,89.92,127.63,94.67,279.12,0,0,7.72,29.42-21.55,126.49Z" fill="#042b0a" stroke="#042b0a" stroke-linecap="round" stroke-linejoin="round" stroke-width="2"/><path d="M1085.17,276.04c.24-.3.47-.68.54-.8.08-.15.13-.32.27-.36.15-.04.23.07.35.09l.69.27,1.42.53c25.35,8.7,67.52,19.66,91.84,5.18.24-.15.55-.07.69.16.14.22.07.51-.14.66-3.39,2.44-7.22,4.26-11.19,5.57-24.49,7.78-55.66.79-79.56-6.95-.89-.31-3.55-1.22-4.43-1.56,0,0-.75-.28-.75-.28-.12-.07-.27-.06-.37-.19-.27-.7.07-1.73.62-2.32h0Z" fill="#042b0a" stroke-width="0"/><path d="M1085.23,268.48c31.42,3.1,71.27.5,96.55-20.3,3.66-3.13,6.97-6.66,9.85-10.54.16-.22.48-.27.7-.1.22.16.27.47.11.69-2.81,4.03-6.09,7.73-9.73,11.03-11.1,9.83-25.13,15.72-39.39,19.25-14.32,3.55-29.09,4.91-43.81,4.91-4.93-.02-9.79-.16-14.79-.62-1.2-.11-2.08-1.17-1.97-2.36.11-1.24,1.25-2.14,2.48-1.96h0Z" fill="#042b0a" stroke-width="0"/><path d="M1081.14,251.41c.26-1.99.87-2.32,1.56-2.42,4.76-1.24,9.44-2.76,14.06-4.46,26.44-9.81,51.07-25.09,70.68-45.46,7.89-8.13,14.83-17.18,20.99-26.77.15-.24.46-.31.69-.16.22.14.29.43.17.66-5.42,10.11-12.05,19.62-19.68,28.27-19.18,21.65-44.14,37.89-71.16,48.02-4.75,1.78-9.59,3.38-14.5,4.69-.69.26-1.46.28-2.6-1.4-.2-.3-.27-.64-.21-.98h0Z" fill="#042b0a" stroke-width="0"/><path d="M1075.55,208.68c-.25-1.96-.12-2.18,1.08-2.7,0,0,1.93-.98,1.93-.98,37.14-19.83,80.2-51.62,86.71-96.05.04-.27.29-.47.56-.43.26.03.45.27.43.53-.73,11.77-4.6,23.26-10.29,33.62-16.11,28.45-43.18,48.87-71.27,64.56-1.88,1.03-3.95,2.12-5.87,3.1,0,0-.49.25-.49.25-.17.08-.32.19-.53.18-.41.15-2.14-1.09-2.26-2.07h0Z" fill="#042b0a" stroke-width="0"/><path d="M1056.54,166.76c.49-1.92,1.69-2.46,2.84-3.19,3.43-2.17,6.7-4.6,9.85-7.18,20.86-17.39,37.82-40.24,46.25-66.21,3.35-10.39,5.04-21.32,4.92-32.3,0-.28.21-.5.49-.51.27,0,.49.21.51.47.71,11.08-.74,22.27-3.75,32.99-8.01,26.73-24.86,50.45-46.21,68.25-3.82,3.04-7.7,6.2-12.01,8.49-.69.22-1.45.32-2.4.05-.38-.11-.59-.5-.49-.87h0Z" fill="#042b0a" stroke-width="0"/><path d="M1040.87,117.8c-.38-.5-.67-.85-.52-1.29.25-.36,1.02-1.47,1.28-1.85,15.27-22.26,34.04-58.55,31.3-85.99-.03-.27.17-.52.44-.55.27-.03.51.16.55.43,0,0,.39,3.04.39,3.04.57,3.98.32,8.23.06,12.24-1.15,11.16-4.4,22.03-8.46,32.44-5.16,13.2-12.02,25.93-19.82,37.76-.5.7-2.1,3.07-2.6,3.78,0,0-.43.63-.43.63-.51.44-1.77-.09-2.19-.63h0Z" fill="#042b0a" stroke-width="0"/><path d="M1020.98,83.34c-.54-1.17-.14-1.72.24-2.3,2.51-4.16,4.64-8.54,6.53-13.02,6.37-15.23,9.91-32.59,4.98-48.74-.09-.26.06-.55.33-.63.25-.08.52.06.61.29,7.22,19,1.95,40.38-6.8,57.98-.97,1.91-1.99,3.81-3.09,5.65-.36.62-.68,1.28-1.96,1.31-.38,0-.7-.21-.84-.54h0Z" fill="#042b0a" stroke-width="0"/><path d="M1010.38,63.76c-11.72,2.37-29.86-.71-38.13-9.87-.41-.5.33-1.15.76-.65,6.87,6.81,17.82,8.72,27.17,8.93,3.25,0,6.49-.32,9.56-1.12,1.8-.43,2.46,2.28.63,2.7h0Z" fill="#042b0a" stroke-width="0"/><path d="M1028.35,98.97c-22.79,2.8-52.64,4.2-74.02-4.86-3.27-1.47-6.41-3.3-9.15-5.65-.21-.18-.23-.5-.05-.71.18-.2.49-.23.7-.06,2.72,2.17,5.82,3.83,9.05,5.15,16.47,6.26,34.62,5.86,51.96,4.74,7.01-.55,14.02-1.39,20.9-2.58,2.64-.4,3.31,3.53.62,3.98h0Z" fill="#042b0a" stroke-width="0"/><path d="M1049.99,149.4c-42.36,6.16-91.24,12.72-129.24-11.64-.23-.15-.29-.47-.14-.69.15-.23.46-.29.69-.14,28.31,17.62,63.49,17.12,95.55,13.53,10.89-1.27,21.65-3.19,32.55-5,2.61-.38,3.27,3.52.58,3.95h0Z" fill="#042b0a" stroke-width="0"/><path d="M1060.74,176.45c-32.6,24.05-76.85,39.62-116.8,26.67-5.59-1.89-10.98-4.29-16.15-7.1-.24-.13-.33-.44-.2-.68.13-.24.44-.33.68-.2,5.19,2.64,10.57,4.87,16.12,6.58,28.05,8.48,58.37,2.1,84.13-10.62,10.29-5.08,20.34-11.14,29.24-18.35,2.44-1.98,5.5,1.64,2.99,3.7h0Z" fill="#042b0a" stroke-width="0"/><path d="M1073.91,228.74c.11.34.31.91.25,1.24-.04.26-.39.3-.56.45,0,0-.98.58-.98.58-30.61,18-66.28,30.37-102.18,26.28-12.1-1.46-23.95-4.82-34.94-9.95-.25-.12-.36-.41-.24-.66.11-.24.4-.35.65-.25,11.13,4.55,22.84,7.59,34.77,8.6,35.31,3.2,70.06-9.45,100.12-27.12,0,0,.97-.57.97-.57.22-.09.4-.35.66-.27.57.26,1.31,1.06,1.49,1.67h0Z" fill="#042b0a" stroke-width="0"/><path d="M1081.64,271.07c-28.58,26.98-68.79,40.28-107.3,29.59-5.33-1.44-10.54-3.27-15.65-5.33-.26-.1-.38-.4-.28-.65.1-.26.4-.38.65-.28,5.1,1.97,10.29,3.7,15.59,5.04,32.09,8.41,66.34-.13,92.45-20.07,4.36-3.25,8.5-6.77,12.4-10.54,1.44-1.39,3.64.8,2.14,2.25h0Z" fill="#042b0a" stroke-width="0"/><path d="M316.48,159.13c29.89-12.62,65.39-7.7,71.4-3.3,0,0,7.05-29.99-8.25-52.58-15.3-22.59-94.75,43.86-116.83,41.96-22.07-1.9,4.43-24.45,15.7-31.49,11.28-7.04,50.2-34.14,88.02-24.39,0,0-15.08-29.96-21-37.51-5.92-7.55-38-3.61-55.38,2.02-17.38,5.62-57.65,36.37-67.62,40.99-9.97,4.62-11.64,16.86-20.6,9.21-8.96-7.65,35-38.28,41.25-41.78s45.22-31.83,88.13-28.08c0,0-23.71-28.99-30.93-34.13-7.22-5.14-60.44,6.78-76.74,17.35-16.3,10.57-37.7,27.14-44.88,20.77s10.68-27.95,23.15-33.72c12.47-5.77,40.04-23.38,64.5-18.95,0,0-13.14-12.69-37.74-12.2s-64.24,10.36-83.29,30.68c-19.05,20.32-35.33,49.59-34,56.88s-6.22,4.83-6.22,4.83c-2.24.93-62.43-.88-92.64,63.36,0,0,32.79-27.29,36.21-18.58,3.43,8.71-36.73,35.77-28.02,72.92,8.71,37.14,13.66,36.06,13.66,36.06,0,0-2.28-46.78,15.62-69.6,17.9-22.82,39.52-46.75,46.63-37.93,7.11,8.82-26.34,58.21-31.77,75.26-5.43,17.05-19.83,46.12-2.19,72.47,17.65,26.35,27.47,26.65,27.47,26.65,0,0-12.51-33.57-4.4-57.91,8.11-24.34,18.79-11.73,18.39,1.78-.41,13.51,6.23,62.59,21.41,84.86,9.42,13.81,39.71,7.96,39.71,7.96,0,0-27.36-30.33-17.54-70.6,9.82-40.27,31.26-58.07,29.36-36-1.9,22.07.32,79.84,14.49,110.46,8.08,17.45,44.55,10.56,44.55,10.56,0,0-19.02-21.47-19.25-54.67-.23-33.2,15.7-31.49,19.91-8,4.21,23.48,22.04,63.98,31.79,66.73,9.75,2.75,35.2,1.58,36.42-1.41,0,0-14.5-12.07-21.16-35.62-6.67-23.56-1.35-36.92,10.27-14.44,11.62,22.48,24.53,42.54,29.52,40.23,4.99-2.31,24.86-9.08,23.78-14.03s-10.87-6.47-15.34-21.36c-4.47-14.89-1.9-18.5,7.63-8.38,9.53,10.12,8.3,10.09,18.35,3.01,10.05-7.07,13.66-4.51,17.34-4.39,0,0-8.04-18.68-5.21-30.89,2.83-12.21,9.91-22.9,9.91-22.9,0,0-5.41-4.01-24.99-7.06-19.58-3.05-.31-16.23,8.07-15.86,8.38.37,19.36,3.16,20.48,6.89,0,0-.3-30.74,3.68-40.46,0,0-24.34-8.11-59.1,3.13-34.76,11.25-41.61-6.17-11.73-18.79ZM101.29,181.53c-3.5-6.25-.9-15.86,4.31-20.77,5.06-4.76,21.18-9.2,22.13,3.18.95,12.38-22.94,23.84-26.44,17.59ZM156.95,47.98c-4.91-.15-4.04-5.25-2.2-8.67,1.3-2.42,8.71-3.43,11.09-.89s-3.98,9.71-8.89,9.57ZM254.33,161.56c-7.33-1.45-12.06-7.74-7.04-11.28,4.49-3.16,12.39-3.31,14.7,1.67s-.33,11.05-7.67,9.6ZM325.65,242.39c3.68.11,4.91.15,6.07,2.39,1.16,2.24-6.3,4.98-9.94,3.64s-1.19-6.18,3.87-6.03Z" fill="#186d28" stroke="#042b0a" stroke-linecap="round" stroke-linejoin="round"/><path d="M45.38-104.76s5.99,79.96,30.16,120.77c26.32,44.44,78.78,159.73,296.23,266.49,0,0-173.97-80.85-271.85-239.32,0,0-26.24-26.61-54.55-147.94Z" fill="#042b0a" stroke="#042b0a" stroke-linecap="round" stroke-linejoin="round" stroke-width="2"/><path d="M116.74,76.77c-.07.38-.1.82-.11.97v.3c-.03.07-.06.12-.1.16-.14.11-.29.07-.44.11,0,0-.91.14-.91.14l-1.84.31c-32.21,6.18-84.35,20.73-101.02,51.13-.13.25-.44.34-.68.21-.23-.13-.32-.41-.22-.65,2.14-4.65,5.12-8.9,8.55-12.7,21.49-23.53,62.03-35.86,92.7-41.77,0,0,1.9-.33,1.9-.33,0,0,.96-.15.96-.15.17,0,.32-.09.5-.03.63.43.92,1.52.71,2.31h0Z" fill="#042b0a" stroke-width="0"/><path d="M121.11,84.52c-35.28,15.97-76.37,43.56-90.37,81.18-1.97,5.59-3.32,11.4-4,17.31-.03.27-.28.47-.55.44-.27-.03-.47-.27-.44-.54.54-6,1.78-11.93,3.65-17.67,10-28.82,33.85-50.22,58.5-66.9,10.09-6.69,20.47-12.7,31.49-17.82,2.66-1.13,4.44,2.8,1.71,4h0Z" fill="#042b0a" stroke-width="0"/><path d="M136.04,100.57c.65,1.97.17,2.66-.5,3.22-1.85,1.81-3.64,3.68-5.41,5.59-35.12,38.5-58.31,88.82-59.94,141.29-.01.28-.24.49-.52.48-.27-.01-.48-.23-.48-.5,0,0-.02-5.28-.02-5.28-.13-2.95.21-7.55.33-10.57,2.8-44.32,21.88-86.67,50.01-120.71,3.96-4.79,8.12-9.44,12.54-13.83.58-.68,1.36-1.2,3.3-.42.34.14.57.41.67.74h0Z" fill="#042b0a" stroke-width="0"/><path d="M168.16,142.67c1.17,1.7,1.01,2.1.14,3.3,0,0-1.45,2.23-1.45,2.23-25.73,41-50.28,96.88-36.66,145.7.86,3.16,2.31,7.04,3.5,10.09.11.26-.02.56-.28.66-.24.09-.51-.02-.63-.25-23.93-51.32,2.08-114.11,29.98-158.82,0,0,1.47-2.28,1.47-2.28,0,0,.37-.57.37-.57.13-.19.23-.39.44-.53.42-.27,1.04-.4,2.29-.1.35.08.64.29.83.56h0Z" fill="#042b0a" stroke-width="0"/><path d="M214.08,175.69c.38,2.18-.57,3.52-1.33,5-.8,1.46-1.5,2.98-2.23,4.47-17.32,38.88-22.07,87.4-6.64,127.61,2.46,6.26,5.42,12.33,8.88,18.13.14.24.07.54-.17.69-.23.14-.53.07-.68-.15-7.48-11.39-12.75-24.19-16.06-37.44-7.8-33.34-4.21-68.82,7.55-100.8,2.18-5.58,4.4-11.26,7.53-16.37.58-.77,2.74-2.55,3.15-1.13h0Z" fill="#042b0a" stroke-width="0"/><path d="M260.75,218.29c.6.29,1.02.52,1.07,1.03,0,0-.08.92-.08.92l-.17,1.84c-2.52,33.34-.47,83.13,19.64,110.84.17.22.13.54-.1.71-.21.16-.51.12-.68-.08-3.22-3.85-5.88-8.14-8.13-12.62-14.09-29.21-16.36-67.13-14.04-99.12,0,0,.17-1.87.17-1.87l.09-.93c.19-.72,1.54-1.05,2.24-.72h0Z" fill="#042b0a" stroke-width="0"/><path d="M303.06,242.81c1.04.91.94,1.74.92,2.6-.11,5.99.28,11.98,1.03,17.92,2.6,20.16,9.45,40.96,24.81,55.01.2.19.22.5.04.71-.18.2-.48.22-.68.06-19.26-15.83-26.54-41.82-28.02-65.85-.14-2.63-.2-5.26-.16-7.89-.01-.88-.03-1.77,1.07-2.59.31-.23.73-.2,1,.05h0Z" fill="#042b0a" stroke-width="0"/><path d="M326.67,257.42c10.78-9.64,32.22-17.61,46.4-12.98.6.23.29,1.16-.34.94-11.29-3.13-24.62,1.57-34.58,7.01-3.48,1.98-6.77,4.31-9.59,7.05-1.34,1.26-3.26-.75-1.9-2.02h0Z" fill="#042b0a" stroke-width="0"/><path d="M286.03,231.04c22.38-16.94,53.39-36.88,81.55-40.37,4.37-.45,8.82-.44,13.16.37.27.05.45.31.4.58-.05.27-.31.44-.57.4-4.24-.67-8.57-.55-12.83.02-21.42,3.35-40.59,14.86-58.44,26.63-7.15,4.87-14.13,10.02-20.76,15.51-2.08,1.65-4.62-1.41-2.52-3.14h0Z" fill="#042b0a" stroke-width="0"/><path d="M232.08,190.58c41.25-32.57,89.15-69.57,144.5-67.03.28.02.48.26.47.53-.02.27-.25.48-.53.47-40.99-1.51-78.26,20.51-110.29,43.94-10.85,8.01-21.16,16.63-31.67,25.22-2.05,1.62-4.59-1.42-2.47-3.13h0Z" fill="#042b0a" stroke-width="0"/><path d="M204.28,168.19c19.83-45.53,57.26-89.22,107.6-100,7.1-1.43,14.31-2.19,21.52-2.38.28,0,.51.21.51.49,0,.28-.21.51-.49.51-7.15.35-14.26,1.26-21.23,2.81-35.17,8.08-63.67,33.44-83.42,62.77-7.91,11.74-14.94,24.34-20.05,37.51-1.14,2.91-5.56,1.34-4.44-1.71h0Z" fill="#042b0a" stroke-width="0"/><path d="M157.82,120.43c-1.4-1.32-.55-1.37-.44-1.85l.69-1.21c21.62-37.81,51.82-72.89,92.48-90.56,13.74-5.89,28.39-9.6,43.22-10.93.28-.02.52.18.54.45.02.27-.17.51-.44.54-14.66,1.9-29.03,5.82-42.4,12.01-39.65,18.19-69.13,52.91-90.29,90.26,0,0-.68,1.21-.68,1.21-.35.33.05,1.08-1.81.57-.33-.09-.64-.27-.87-.49h0Z" fill="#042b0a" stroke-width="0"/><path d="M123.89,80.11c13.83-46.19,48.39-84.97,95.87-97.21,6.55-1.74,13.21-2.99,19.91-3.93.27-.04.53.15.56.43.04.28-.16.53-.43.56-6.65,1.02-13.24,2.35-19.71,4.16-46.68,12.71-80.15,51.15-93.23,96.87-.56,1.91-3.54,1.16-2.97-.88h0Z" fill="#042b0a" stroke-width="0"/><path d="M2703.17,155.21c26.26,2.74,49.63,20.19,52.19,25.69,0,0,16.8-18.61,14.76-40.72-2.04-22.11-84.76-5.94-99.75-15.96-14.99-10.02,12.76-15.69,23.56-16.28s49.19-4.62,72.32,17.18c0,0,1.02-27.28-.24-34.98-1.25-7.71-25.67-17.49-40.27-20.31-14.6-2.82-55.37,3.29-64.3,2.66s-14.92,7.45-18.3-1.52,39.98-13.55,45.81-13.59c5.83-.04,44.73-4.93,73.84,14.59,0,0-5.52-29.98-8.65-36.47-3.13-6.5-45.75-18.9-61.52-17.76-15.77,1.14-37.53,4.54-40.15-2.82-2.62-7.36,18.59-15.73,29.74-14.95,11.15.78,37.72-.94,53.42,11.82,0,0-4.38-14.21-22.11-23.52-17.73-9.31-49.86-17.84-71.42-10.84-21.56,7.01-44.65,21.47-46.57,27.19s-6.33,1.01-6.33,1.01c-1.97-.22-44.15-25.14-90.92,8.79,0,0,34.08-6.58,33.11.98-.98,7.55-40.23,11.08-48.6,40.97-8.37,29.9-4.42,31.07-4.42,31.07,0,0,16.75-34.24,38.47-43.48,21.72-9.24,46.53-17.81,48.13-8.73,1.6,9.08-41.64,31.15-52.2,41.17-10.57,10.02-32.24,25.09-30.01,50.8,2.23,25.71,9.12,29.78,9.12,29.78,0,0,4.26-28.84,19.6-43.01,15.34-14.17,18-.98,12.41,8.49s-20.14,47.06-18.06,68.89c1.29,13.54,25.18,21.27,25.18,21.27,0,0-7.59-32.36,15.22-57.21,22.81-24.85,45.08-29.12,35.06-14.13-10.02,14.99-31.12,57.04-33.04,84.43-1.1,15.61,27.61,25.02,27.61,25.02,0,0-5.13-22.78,7.75-46.53,12.87-23.75,23.56-16.28,17.34,2.11-6.22,18.39-9.41,54.26-3.54,60.05s24.47,14.95,26.51,13.29c0,0-5.59-14.29-1.1-33.7,4.5-19.41,13.54-26.85,12.99-6.26-.55,20.58.78,39.95,5.25,40.27s21.29,3.29,22.46-.67-5.21-8.88-2.54-21.25,5.91-13.93,8.73-2.97,1.96,10.45,11.9,9.35c9.94-1.1,11.51,2.15,14.09,3.68,0,0,1.6-16.48,8.41-24.07,6.81-7.59,16.06-12.43,16.06-12.43,0,0-2.28-4.98-15.04-14.85-12.76-9.86,6.15-11.69,11.98-8.14,5.83,3.56,12.56,9.86,11.89,12.95,0,0,11.86-22.03,18.51-27.39,0,0-14.17-15.34-43.36-20.97-29.19-5.63-27.24-20.74-.98-18ZM2540.98,86.67c-.04-5.83,5.58-11.66,11.23-13.11s18.71,1.76,14.52,10.96c-4.18,9.2-25.72,7.99-25.76,2.15ZM2633.1,13.33c-3.44-2.03-.82-5.33,1.84-7.04,1.88-1.21,7.55.98,8.26,3.72s-6.65,5.36-10.1,3.33ZM2657.91,132.53c-4.66-3.91-5.56-10.25-.59-10.8,4.45-.49,10.14,2.5,9.82,6.97s-4.58,7.75-9.24,3.84ZM2677.02,218.15c2.58,1.53,3.44,2.03,3.39,4.09-.05,2.05-6.44,1.08-8.52-1.31s1.58-4.88,5.13-2.78Z" fill="#186d28" stroke="#042b0a" stroke-linecap="round" stroke-linejoin="round"/><path d="M2613.55-139.34s-27.13,59.35-25.92,97.93c1.31,42.01-6.57,144.79,106.51,306.27,0,0-92.26-125.95-99.8-277.33,0,0-8.26-29.27,19.21-126.87Z" fill="#042b0a" stroke="#042b0a" stroke-linecap="round" stroke-linejoin="round" stroke-width="2"/><path d="M2593.09,18.15c-.24.3-.45.69-.52.81-.08.15-.12.32-.26.37-.15.04-.23-.06-.35-.09,0,0-.7-.25-.7-.25,0,0-1.43-.5-1.43-.5-25.51-8.23-67.87-18.41-91.92-3.49-.23.15-.55.08-.7-.15-.14-.22-.08-.51.12-.67,3.35-2.51,7.14-4.39,11.08-5.77,24.34-8.23,55.63-1.81,79.67,5.48.9.3,3.57,1.15,4.45,1.47,0,0,.75.27.75.27.12.07.27.05.37.19.28.7-.04,1.73-.58,2.33h0Z" fill="#042b0a" stroke-width="0"/><path d="M2593.17,25.71c-31.48-2.52-71.26.82-96.16,22.08-3.6,3.2-6.85,6.79-9.66,10.72-.16.22-.47.28-.7.12-.22-.16-.27-.46-.12-.69,2.74-4.08,5.94-7.84,9.53-11.21,10.91-10.03,24.83-16.18,39.02-19.98,14.25-3.82,28.99-5.45,43.72-5.72,4.93-.07,9.8-.02,14.8.34,1.2.09,2.1,1.13,2.01,2.33-.09,1.24-1.21,2.16-2.44,2h0Z" fill="#042b0a" stroke-width="0"/><path d="M2597.57,42.7c-.22,2-.82,2.33-1.52,2.45-4.73,1.33-9.39,2.94-13.97,4.72-26.26,10.3-50.6,26.02-69.83,46.75-7.74,8.27-14.51,17.45-20.49,27.15-.14.24-.45.32-.69.17-.22-.14-.3-.42-.18-.65,5.23-10.21,11.68-19.84,19.15-28.63,18.78-22,43.43-38.7,70.26-49.33,4.72-1.87,9.52-3.55,14.41-4.96.68-.27,1.46-.31,2.62,1.35.21.3.28.64.23.97h0Z" fill="#042b0a" stroke-width="0"/><path d="M2603.95,85.32c.29,1.96.16,2.17-1.03,2.72,0,0-1.91,1.02-1.91,1.02-36.76,20.51-79.23,53.09-84.93,97.64-.03.27-.28.47-.55.44-.26-.03-.45-.26-.44-.52.51-11.78,4.17-23.34,9.67-33.8,15.59-28.74,42.27-49.66,70.07-65.87,1.86-1.07,3.91-2.19,5.81-3.21,0,0,.49-.26.49-.26.17-.08.31-.19.52-.19.41-.16,2.16,1.05,2.29,2.03h0Z" fill="#042b0a" stroke-width="0"/><path d="M2623.72,126.88c-.45,1.92-1.65,2.49-2.78,3.24-3.39,2.24-6.62,4.72-9.72,7.36-20.54,17.77-37.07,40.93-45.02,67.05-3.16,10.45-4.64,21.41-4.32,32.38.01.28-.21.51-.48.52-.27.01-.49-.2-.52-.46-.91-11.07.33-22.28,3.14-33.06,7.51-26.88,23.93-50.9,44.95-69.09,3.76-3.11,7.59-6.34,11.85-8.71.69-.23,1.45-.35,2.4-.09.38.1.6.49.5.86h0Z" fill="#042b0a" stroke-width="0"/><path d="M2640.29,175.55c.39.49.68.84.54,1.28-.24.37-.99,1.48-1.25,1.87-14.86,22.54-32.95,59.16-29.7,86.55.03.27-.16.52-.43.56-.27.03-.52-.16-.56-.42l-.45-3.03c-.64-3.97-.47-8.23-.28-12.24.94-11.18,4-22.11,7.86-32.59,4.91-13.29,11.54-26.14,19.12-38.12.48-.71,2.04-3.1,2.53-3.82,0,0,.42-.64.42-.64.5-.45,1.77.06,2.2.59h0Z" fill="#042b0a" stroke-width="0"/><path d="M2660.82,209.64c.56,1.16.17,1.72-.2,2.31-2.43,4.21-4.48,8.63-6.29,13.14-6.08,15.35-9.31,32.77-4.08,48.82.2.53-.66.99-.94.35-7.57-18.87-2.69-40.34,5.73-58.09.93-1.93,1.92-3.84,2.99-5.71.34-.63.66-1.29,1.94-1.34.37-.02.71.2.85.52h0Z" fill="#042b0a" stroke-width="0"/><path d="M2671.78,229.02c11.67-2.58,29.87.16,38.31,9.16.42.49-.31,1.15-.75.66-7-6.68-17.98-8.39-27.33-8.43-3.25.06-6.48.44-9.54,1.29-1.79.47-2.5-2.23-.68-2.69h0Z" fill="#042b0a" stroke-width="0"/><path d="M2653.16,194.14c23.35-3.36,64.14-6.36,83.35,8.97.21.18.24.49.07.7-.17.21-.48.24-.69.07-2.76-2.12-5.89-3.73-9.14-4.98-16.58-5.95-34.73-5.22-52.04-3.78-6.99.68-13.99,1.64-20.85,2.97-2.63.45-3.37-3.47-.69-3.96h0Z" fill="#042b0a" stroke-width="0"/><path d="M2630.6,144.12c42.24-6.94,90.99-14.4,129.43,9.25.23.15.3.46.15.69-.15.23-.45.29-.68.15-28.63-17.09-63.79-15.95-95.78-11.76-10.86,1.47-21.59,3.59-32.46,5.6-2.6.43-3.33-3.46-.66-3.94h0Z" fill="#042b0a" stroke-width="0"/><path d="M2619.35,117.27c32.15-24.65,76.11-41.03,116.29-28.82,5.62,1.79,11.06,4.09,16.28,6.81.24.13.34.43.21.67-.13.24-.43.34-.67.21-5.24-2.55-10.66-4.67-16.24-6.28-28.21-7.96-58.4-1.02-83.92,12.17-10.2,5.27-20.14,11.51-28.89,18.88-2.41,2.03-5.53-1.54-3.06-3.64h0Z" fill="#042b0a" stroke-width="0"/><path d="M2605.22,65.24c-.11-.34-.33-.9-.27-1.24.03-.26.38-.31.55-.46,0,0,.97-.6.97-.6,30.28-18.56,65.71-31.59,101.67-28.16,12.13,1.24,24.04,4.37,35.12,9.31.25.11.37.41.25.66-.11.24-.4.36-.64.26-11.21-4.34-22.98-7.17-34.92-7.96-35.36-2.55-69.87,10.74-99.6,28.96,0,0-.96.59-.96.59-.22.09-.4.36-.65.28-.57-.25-1.33-1.04-1.52-1.64h0Z" fill="#042b0a" stroke-width="0"/><path d="M2596.71,23.06c28.08-27.5,68.03-41.55,106.74-31.56,5.36,1.34,10.6,3.07,15.75,5.05.26.1.39.39.29.65-.1.26-.39.39-.65.29-5.14-1.88-10.36-3.51-15.68-4.75-32.24-7.81-66.32,1.35-92.07,21.77-4.3,3.33-8.37,6.93-12.2,10.77-1.42,1.41-3.65-.73-2.18-2.21h0Z" fill="#042b0a" stroke-width="0"/><g filter="url(#g)"><path d="M422.83-15.5s1.86,34.65-23.11,69.62c-24.96,34.98,22.03,98.48,15.64,152.73,0,0,7.3,15.11,78.6,18.07,0,0-5.93-113.48-5.67-132.22,0,0,4.89,53.49,10.23,74.19,5.34,20.7,11.4,57.34,10.43,60.13-.98,2.8,22.42,7.84,29,7,6.58-.84-9.71-44.19-16.88-68.67-7.17-24.47-15.9-71.46-10.16-78.87,5.74-7.41,25.48-9.92,25.48-9.92,0,0,5.08,39.44,15.05,64.89,9.97,25.45,29.78,85.73,39.04,95.24,9.25,9.51,91.05.45,133.22,5.78,0,0-61.59-93.71-59.24-127.41,0,0,15.97-.69,20.73-5.31s16.82,5.88,19.49,16.23c2.67,10.35,18.31,100.55,39.75,111.19,21.44,10.64,32.91-4.18,41.32-1.24,0,0-46.14-56.93-41.97-86.86,0,0,9.39.14,15.97-.69,0,0,5.34,20.7,12.77,26.43,7.43,5.74,11.21,3.92,11.21,3.92,0,0,5.08,39.44,23.72,49.09,18.64,9.66,45.1-3.06,54.49-2.92,0,0-13.04-7.7-16.68-15.25-3.65-7.55,9.52-9.23,15.12-7.27,0,0-10.23-6.72-11.93-19.86,0,0,13.88,14.27,28.03,9.8,0,0,6.32,17.9,14.73,20.84,8.41,2.94,88.51-19.26,108.26-21.77,0,0-28.87-16.37-28.74-25.74,0,0,9.52-9.23,21.7-8.1,12.19,1.12,9.12,18.88,22.29,17.21,13.17-1.67,39.89-33.13,41.84-38.72,0,0-8.41-2.94-9.25-9.51-.85-6.57,1.96-5.59-1.69-13.15-3.65-7.55-29.59-32.31-36.17-31.48-6.58.84-145.67,11.83-152.25,12.67-6.58.84-139.67-14.32-151.86-15.44s-127.35-22.56-158.05-42.71c-30.7-20.15-110.15-44.79-116.6-53.32-6.45-8.53-7.86,1.38-7.86,1.38Z" fill="#267d39" stroke="#094215" stroke-miterlimit="10"/><path d="M370.13-51.33s-11.79,38.96-24.23,56.58c-12.45,17.62-28.86,55.54-24.89,71.19,3.97,15.65,11.98,46.69,55.71,74.54,0,0-15.45-36.78,19.1-90.61,34.55-53.83,27.01-75.87,27.01-75.87l-52.7-35.82Z" fill="#267d39" stroke="#094215" stroke-miterlimit="10"/><path d="M399.93-32.35s-15.64,44.74-33.83,69.77c-18.19,25.02-24.3,82.98-24.3,82.98" fill="#267d39" stroke="#094215" stroke-miterlimit="10"/><path d="M223.04-205.6c-5.13,10.68-11.47,14.82,7.04,33.84,18.51,19.02,112.17,101.98,132.63,115.42,20.47,13.43,66.2,48.4,113.54,71.08,36.37,17.42,140.06,53.68,174.74,57.96,20.83,2.57,121.68,25.29,189.27,25.38,30.99.04,172.85-8.61,232.36-34.87,0,0-5.67,2.72-59.31,12.21-53.64,9.49-143.98,24.98-215.15,12.65-71.17-12.33-139.67-14.32-203.15-39.65-63.48-25.33-125.14-46.89-163.27-72.78-38.13-25.88-146.91-101.58-177.21-149.83-30.31-48.26-25.68-43.5-31.48-31.41Z" fill="#094215" stroke="#094215" stroke-miterlimit="10"/><path d="M425.99-13.5s2.22,39.68,4.89,50.03c2.67,10.35,11.53,47.97,33.96,55.81,22.42,7.84,41.58-19.98,57.68-30.04,16.1-10.06,82.19-37.17,115.82-25.41,0,0-49.01,14.25-55.86,33.82,0,0-33.76-2.39-45.1,3.06-11.34,5.45-52.92,25.43-72.54,18.57" fill="#267d39" stroke="#094215" stroke-miterlimit="10"/><path d="M432.21,41.64s-13.19,37.82.3,80.2c13.49,42.38,11.91,97.64,11.91,97.64" fill="#267d39" stroke="#094215" stroke-miterlimit="10"/><path d="M459.39,89.72c-5.18,24.01,10.3,105.95,10.05,133.5" fill="#267d39" stroke="#094215" stroke-miterlimit="10"/><path d="M458.49,5.65c-.17,15.37,13.19,67.12,34.63,77.75" fill="#267d39" stroke="#094215" stroke-miterlimit="10"/><path d="M497.73,25.46c3.61,7.47,4.49,30.9,15.98,39.04" fill="#267d39" stroke="#094215" stroke-miterlimit="10"/><path d="M537.38,73.77s68.53-41.74,98.34-37.69" fill="#267d39" stroke="#094215" stroke-miterlimit="10"/><path d="M558.25,70.34c-.28,7.49,21.57,125.36,52.85,170.62" fill="#267d39" stroke="#094215" stroke-miterlimit="10"/><path d="M633.02,241.3c-33.86-37.81-50.54-170.59-50.54-170.59,0,0,4.56,9.44,11.99,15.18,7.43,5.74,10.95,22.66,35.72-3.2,24.77-25.86,21.25-42.78,50.51-54.52,0,0-72.54,18.57-86.23,57.72" fill="#267d39" stroke="#094215" stroke-miterlimit="10"/><path d="M608.42,96.62s25.09,125.59,49.89,144.32" fill="#267d39" stroke="#094215" stroke-miterlimit="10"/><path d="M688.6,240.68s-66.23-135.63-59.38-155.2c0,0,1.69,13.15,21.31,20,19.62,6.86,18.58-53.13,68.57-70.17,0,0-17.34,31.6-28.09,62.36-10.76,30.76-34.87,9.78-40.48,7.82" fill="#267d39" stroke="#094215" stroke-miterlimit="10"/><path d="M704.69,125.99s30.57,29.52,66.41,16.95c0,0-44.84-15.68-54.55-59.87" fill="#267d39" stroke="#094215" stroke-miterlimit="10"/><path d="M762.07,91.52s24.67,74.15,48.07,79.19c0,0-21.7,8.1-31.09,7.96" fill="#267d39" stroke="#094215" stroke-miterlimit="10"/><path d="M817.23,97.3s28.7,65.52,30.39,78.67c1.69,13.15,18.51,19.02,43.02,11.9,0,0-23.99-5.1-24.7-33.67s-22.87-55.15-22.87-55.15" fill="#267d39" stroke="#094215" stroke-miterlimit="10"/><path d="M847.45,100.59s26.18,27.98,34.33,49.66c8.15,21.68,14.47,39.58,44.71,25.05,30.24-14.53,72.54-18.57,89.62-31.43,17.08-12.86,30.76-12.94,31.06-19.82" fill="#267d39" stroke="#094215" stroke-miterlimit="10"/><path d="M884.68,96.11s21.02,26.21,24.57,38.54c3.55,12.33,18.64,33.12,22.91,37.93" fill="#267d39" stroke="#094215" stroke-miterlimit="10"/><path d="M922.89,92.94s16.57,27.26,19.24,37.61c2.67,10.35,20.31,31.15,23.55,31.24" fill="#267d39" stroke="#094215" stroke-miterlimit="10"/><path d="M940.81,91.07c7.32,13.34,23.23,56.33,36.88,67.49" fill="#267d39" stroke="#094215" stroke-miterlimit="10"/><path d="M972.76,87.92c12.06,10.49,23.72,49.09,35.78,59.58" fill="#267d39" stroke="#094215" stroke-miterlimit="10"/><path d="M1005.68,83.73c12.06,10.49,22.88,42.52,30.31,48.26" fill="#267d39" stroke="#094215" stroke-miterlimit="10"/><path d="M1072.61,63.2c6.58-.84,14.6,30.21-6.26,44.89,0,0-25.03-22.87-55.01-27.08" fill="#267d39" stroke="#094215" stroke-miterlimit="10"/><path d="M1050.91,71.31s27.02,11.63,26.9,21.48" fill="#267d39" stroke="#094215" stroke-miterlimit="10"/></g></svg>