<?xml version="1.0" encoding="UTF-8"?><svg id="b" xmlns="http://www.w3.org/2000/svg" xmlns:xlink="http://www.w3.org/1999/xlink" viewBox="0 0 1173.64 499.67">
<style>rect{animation: anim-logo-gradient 3s linear infinite;}
    @keyframes anim-logo-gradient {
        from {transform: translateX(0);}
        to {transform: translateX(-166%);}
    }
</style>
<defs><linearGradient id="d" x1="348.67" y1="356.32" x2="854.33" y2="315.96" gradientUnits="userSpaceOnUse"><stop offset="0" stop-color="#f2b413"/><stop offset="1" stop-color="#49b692"/></linearGradient><linearGradient id="e" x1="357.6" y1="468.21" x2="863.26" y2="427.86" xlink:href="#d"/><linearGradient id="f" x1="358.33" y1="477.25" x2="863.98" y2="436.89" xlink:href="#d"/><linearGradient id="g" x1="349.27" y1="363.76" x2="854.92" y2="323.41" xlink:href="#d"/><linearGradient id="h" x1="335.57" y1="192.09" x2="841.22" y2="151.74" xlink:href="#d"/><linearGradient id="i" x1="325.55" y1="66.57" x2="831.21" y2="26.21" xlink:href="#d"/><linearGradient id="j" x1="324.92" y1="58.6" x2="830.57" y2="18.25" xlink:href="#d"/><linearGradient id="k" x1="332.97" y1="159.55" x2="838.63" y2="119.19" xlink:href="#d"/><clipPath id="l"><path d="M118.05,288.41l168.24-29.3c13.41-2.34,26.18,6.64,28.51,20.06,2.34,13.41-6.64,26.18-20.06,28.51-.91.16-1.85.27-2.76.32l-170.47,10.21c-18.86.56-21.94-26.02-3.48-29.8h0Z" fill="none" stroke-width="0"/></clipPath><linearGradient id="m" x1="3145.4" y1="250.73" x2="-3.93" y2="250.73" gradientTransform="translate(-6.41 -114.02)" gradientUnits="userSpaceOnUse"><stop offset="0" stop-color="#f2b413"/><stop offset=".33" stop-color="#49b692"/><stop offset=".66" stop-color="#f2b413"/><stop offset="1" stop-color="#49b692"/></linearGradient><clipPath id="n"><path d="M473.82,226.78l444.34-78.9c33.72-5.99,65.9,16.49,71.89,50.21,5.99,33.72-16.49,65.9-50.21,71.89-2.34.41-5.02.71-7.34.86l-450.57,25.48c-43.87,1.17-51.05-60.6-8.11-69.53h0Z" fill="none" stroke-width="0"/></clipPath><clipPath id="o"><path d="M68.39,324.41l-51.65,6.02c-8.23.96-15.68-4.93-16.64-13.16s4.93-15.68,13.16-16.64l51.65-6.02c8.23-.96,15.68,4.93,16.64,13.16s-4.93,15.68-13.16,16.64Z" fill="none" stroke-width="0"/></clipPath><clipPath id="p"><circle cx="1102.13" cy="188.74" r="71.5" fill="none" stroke-width="0"/></clipPath></defs><g id="c"><path d="M824.92,298.28c-.72,6.79-1.84,13.57-3.28,20.3-1.43,6.74-3.25,13.41-5.32,20.03l-.02.05c-1.35,4.32-5.96,6.73-10.28,5.37s-6.73-5.96-5.37-10.28c.16-.51.39-1.04.63-1.49,3.11-5.67,5.93-11.51,8.58-17.47,2.64-5.96,5.04-12.07,7.25-18.28v-.02c.75-2.09,3.06-3.19,5.15-2.44,1.79.64,2.85,2.41,2.65,4.22Z" fill="url(#d)" stroke-width="0"/><path d="M764.84,425.36c-5.26,5.55-10.8,10.86-16.59,15.92-5.78,5.07-11.87,9.82-18.17,14.3-6.3,4.49-12.85,8.65-19.6,12.51-6.74,3.87-13.71,7.38-20.84,10.57l-.19.09c-10.69,4.78-23.24,0-28.03-10.7s0-23.24,10.7-28.03c.7-.32,1.44-.59,2.16-.83,6.16-1.98,12.24-4.28,18.23-6.82,5.99-2.55,11.87-5.41,17.65-8.5,5.77-3.1,11.41-6.51,16.93-10.12,5.52-3.63,10.88-7.53,16.07-11.7l.12-.1c6.87-5.51,16.9-4.42,22.42,2.45,5.06,6.3,4.55,15.26-.86,20.95Z" fill="url(#e)" stroke-width="0"/><path d="M586.31,499.67c-7.94-.14-15.89-.64-23.81-1.54-7.92-.92-15.8-2.21-23.62-3.87-7.82-1.65-15.56-3.74-23.2-6.17-7.63-2.44-15.17-5.21-22.54-8.4l-.15-.07c-14.45-6.25-21.09-23.03-14.84-37.47s23.03-21.09,37.47-14.84c.4.18.89.4,1.29.6,5.59,2.76,11.3,5.32,17.13,7.57,5.83,2.27,11.78,4.24,17.81,5.98,6.03,1.73,12.15,3.18,18.35,4.34,6.19,1.17,12.45,2.08,18.75,2.67l.24.02c14.1,1.33,24.45,13.85,23.12,27.95-1.27,13.41-12.74,23.42-25.98,23.23Z" fill="url(#f)" stroke-width="0"/><path d="M405.45,416.73c-10.78-12.06-20.51-25.11-28.82-39.05-4.16-6.96-8-14.13-11.49-21.47-3.5-7.33-6.59-14.86-9.35-22.51l-.02-.05c-5.91-16.38,2.57-34.45,18.95-40.36,16.38-5.91,34.45,2.57,40.36,18.95.03.09.12.35.16.44,2,5.8,4.3,11.49,6.81,17.09,2.52,5.6,5.31,11.08,8.35,16.42,6.11,10.67,13.12,20.86,21.1,30.28l.07.09c10.92,12.89,9.33,32.19-3.56,43.11-12.67,10.74-31.57,9.35-42.58-2.94Z" fill="url(#g)" stroke-width="0"/><path d="M341.74,225.84c.71-8.1,1.81-16.16,3.29-24.15,1.48-7.99,3.31-15.92,5.58-23.72,4.52-15.6,10.47-30.78,17.9-45.19,7.81-15.14,26.41-21.09,41.55-13.29,14.81,7.63,20.83,25.6,13.78,40.55l-.09.19c-5.27,11.14-9.59,22.71-12.73,34.58-1.56,5.94-2.91,11.93-3.94,17.97-1.04,6.04-1.78,12.14-2.25,18.25-1.32,17.43-16.52,30.5-33.96,29.17-17.43-1.32-30.5-16.52-29.17-33.96,0-.07.01-.14.02-.21l.02-.21Z" fill="url(#h)" stroke-width="0"/><path d="M437.33,49.44c6.34-4.94,12.89-9.6,19.66-13.9,6.78-4.3,13.75-8.27,20.88-11.9,7.13-3.64,14.45-6.88,21.89-9.79,7.44-2.9,15-5.45,22.67-7.59,13.88-3.87,28.26,4.25,32.13,18.12,3.66,13.13-3.41,26.72-15.94,31.42l-.35.13c-5.92,2.2-11.73,4.63-17.41,7.33-5.68,2.7-11.2,5.68-16.6,8.86-5.39,3.19-10.62,6.63-15.67,10.3-5.06,3.66-9.95,7.54-14.64,11.64-12,10.51-30.25,9.3-40.76-2.71s-9.3-30.25,2.71-40.76c.39-.34.79-.67,1.19-.99l.23-.18Z" fill="url(#i)" stroke-width="0"/><path d="M627.89.33c7.72,1.28,15.36,2.92,22.88,4.93,7.52,2.03,14.92,4.4,22.18,7.13,7.24,2.75,14.34,5.82,21.25,9.24,6.9,3.44,13.61,7.19,20.1,11.24,7.63,4.75,9.96,14.79,5.21,22.42-4.34,6.97-13.1,9.52-20.4,6.28l-.16-.07c-6.07-2.69-12.25-5.08-18.5-7.17-6.24-2.1-12.55-3.94-18.92-5.45-6.36-1.53-12.77-2.77-19.2-3.69-6.43-.94-12.88-1.59-19.33-1.92-11.94-.62-21.12-10.79-20.5-22.73.62-11.94,10.79-21.12,22.73-20.5.82.04,1.63.13,2.42.26l.24.04Z" fill="url(#j)" stroke-width="0"/><path d="M786.08,103.9c1.84,2.94,3.62,5.92,5.32,8.93,1.7,3.01,3.35,6.04,4.88,9.13,3.09,6.16,5.87,12.43,8.28,18.83.78,2.08-.27,4.41-2.35,5.19-1.77.66-3.71,0-4.73-1.48v-.02c-3.76-5.43-7.65-10.71-11.74-15.79-2.06-2.53-4.12-5.04-6.25-7.49-2.13-2.45-4.31-4.84-6.54-7.18-3.18-3.34-3.05-8.62.29-11.79,3.34-3.18,8.62-3.05,11.79.29.38.4.72.83,1,1.28l.06.09Z" fill="url(#k)" stroke-width="0"/><g clip-path="url(#l)"><rect x="-10.34" y="-135.79" width="3149.33" height="545" transform="translate(-5.3 182.14) rotate(-6.65)" fill="url(#m)" stroke-width="0"/></g><g clip-path="url(#n)"><rect x="-10.34" y="-135.79" width="3149.33" height="545" transform="translate(-5.3 182.14) rotate(-6.65)" fill="url(#m)" stroke-width="0"/></g><g clip-path="url(#o)"><rect x="-10.34" y="-135.79" width="3149.33" height="545" transform="translate(-5.3 182.14) rotate(-6.65)" fill="url(#m)" stroke-width="0"/></g><g clip-path="url(#p)"><rect x="-10.34" y="-135.79" width="3149.33" height="545" transform="translate(-5.3 182.14) rotate(-6.65)" fill="url(#m)" stroke-width="0"/></g></g></svg>