<svg width="392" height="275" viewBox="0 0 392 275" fill="none" xmlns="http://www.w3.org/2000/svg">
<rect x="28.5" y="0.5" width="336" height="189" rx="17" fill="url(#paint0_radial_412_311)" fill-opacity="0.5"/>
<rect x="35" y="7" width="323" height="176" rx="10.5" stroke="white" stroke-opacity="0.1" stroke-width="13"/>
<path d="M24.0559 205.974C26.4157 199.109 32.8737 194.5 40.1326 194.5H351.939C359.163 194.5 365.598 199.066 367.984 205.884L384.084 251.884C387.953 262.937 379.749 274.5 368.039 274.5H24.3201C12.6497 274.5 4.44963 263.01 8.24344 251.974L24.0559 205.974Z" fill="url(#paint1_radial_412_311)" fill-opacity="0.3"/>
<path d="M30.2029 208.087C31.6604 203.847 35.6492 201 40.1326 201H351.939C356.401 201 360.375 203.82 361.849 208.031L377.949 254.031C380.339 260.858 375.272 268 368.039 268H24.3201C17.1119 268 12.0472 260.903 14.3904 254.087L30.2029 208.087Z" stroke="white" stroke-opacity="0.1" stroke-width="13"/>
<path fill-rule="evenodd" clip-rule="evenodd" d="M92.7498 47.05C89.1163 47.05 85.6317 48.4934 83.0624 51.0627C80.4932 53.6319 79.0498 57.1166 79.0498 60.75V129.25C79.0498 132.884 80.4932 136.368 83.0624 138.937C85.6317 141.507 89.1163 142.95 92.7498 142.95H161.25C164.883 142.95 168.368 141.507 170.937 138.937C173.506 136.368 174.95 132.884 174.95 129.25V60.75C174.95 57.1166 173.506 53.6319 170.937 51.0627C168.368 48.4934 164.883 47.05 161.25 47.05H92.7498ZM154.4 74.45C154.4 72.6333 153.678 70.891 152.393 69.6064C151.109 68.3217 149.367 67.6 147.55 67.6C145.733 67.6 143.991 68.3217 142.706 69.6064C141.421 70.891 140.7 72.6333 140.7 74.45V115.55C140.7 117.367 141.421 119.109 142.706 120.394C143.991 121.678 145.733 122.4 147.55 122.4C149.367 122.4 151.109 121.678 152.393 120.394C153.678 119.109 154.4 117.367 154.4 115.55V74.45ZM133.85 88.15C133.85 86.3333 133.128 84.591 131.843 83.3064C130.559 82.0217 128.817 81.3 127 81.3C125.183 81.3 123.441 82.0217 122.156 83.3064C120.871 84.591 120.15 86.3333 120.15 88.15V115.55C120.15 117.367 120.871 119.109 122.156 120.394C123.441 121.678 125.183 122.4 127 122.4C128.817 122.4 130.559 121.678 131.843 120.394C133.128 119.109 133.85 117.367 133.85 115.55V88.15ZM113.3 108.7C113.3 106.883 112.578 105.141 111.293 103.856C110.009 102.572 108.267 101.85 106.45 101.85C104.633 101.85 102.891 102.572 101.606 103.856C100.321 105.141 99.5998 106.883 99.5998 108.7V115.55C99.5998 117.367 100.321 119.109 101.606 120.394C102.891 121.678 104.633 122.4 106.45 122.4C108.267 122.4 110.009 121.678 111.293 120.394C112.578 119.109 113.3 117.367 113.3 115.55V108.7Z" fill="#00AACA" fill-opacity="0.74"/>
<path d="M223.3 91.5C223.3 80.0427 227.851 69.0546 235.953 60.953C244.054 52.8515 255.042 48.3 266.5 48.3V91.5H309.7C309.7 102.957 305.148 113.945 297.047 122.047C288.945 130.149 277.957 134.7 266.5 134.7C255.042 134.7 244.054 130.149 235.953 122.047C227.851 113.945 223.3 102.957 223.3 91.5Z" fill="#08E6A9"/>
<path d="M277.3 49.6609C284.771 51.5966 291.589 55.4953 297.047 60.9529C302.505 66.4106 306.403 73.2285 308.339 80.7001H277.3V49.6609Z" fill="#00FFC2"/>
<defs>
<radialGradient id="paint0_radial_412_311" cx="0" cy="0" r="1" gradientUnits="userSpaceOnUse" gradientTransform="translate(338.5 56) rotate(165.459) scale(302.696 538.127)">
<stop stop-color="#00AACA"/>
<stop offset="0.0001" stop-color="#00AACA" stop-opacity="0.41"/>
<stop offset="1" stop-color="#00AACA" stop-opacity="0"/>
</radialGradient>
<radialGradient id="paint1_radial_412_311" cx="0" cy="0" r="1" gradientUnits="userSpaceOnUse" gradientTransform="translate(100 321.5) rotate(-78.2994) scale(258.879 279.57)">
<stop stop-color="#08E6A9"/>
<stop offset="0.836449" stop-color="#08E6A9" stop-opacity="0"/>
</radialGradient>
</defs>
</svg>
